<svg width="135" height="148" viewBox="0 0 135 148" fill="none" xmlns="http://www.w3.org/2000/svg">
<path d="M58.7701 22.9902C63.3798 27.0223 70.7339 41.0206 70.7339 41.0206H66.3885L56.0411 26.6995L58.7701 22.9902Z" fill="#F8F2E9" stroke="#232222" stroke-linejoin="round"/>
<path d="M40.9902 7.05891C40.9902 7.05891 41.6048 1.75768 40.5999 1.08772C39.595 0.417767 39.9299 4.07485 39.9299 4.07485C39.9299 4.07485 40.4893 1.09079 39.429 1.00166C38.3688 0.912541 38.6484 4.43439 38.6484 4.43439C38.6484 4.43439 39.0387 1.92056 38.0891 1.86525C37.1395 1.80993 37.4744 6.94521 38.5347 9.45601L40.9902 7.05891Z" fill="#F8F2E9" stroke="#232222" stroke-linejoin="round"/>
<path d="M60.6434 16.5274C60.6434 16.5274 61.759 15.0553 61.0337 13.6262C60.3085 12.1972 58.7995 10.6361 55.2285 10.9157C52.7484 11.1093 50.253 12.8949 45.8798 10.2366C43.5934 8.85055 42.3335 10.3564 44.5124 11.976C46.6912 13.5955 50.0441 14.3761 50.0441 14.3761C50.0441 14.3761 44.9087 12.3447 44.294 13.1099C43.6794 13.8752 45.969 15.6023 47.8099 16.1063C49.6507 16.6103 50.9353 16.9976 50.9353 16.9976C50.9353 16.9976 45.5079 15.5993 45.9136 16.5274C47.2043 19.5114 57.0908 22.0653 60.6434 16.5274Z" fill="#232222" stroke="#232222" stroke-linejoin="round"/>
<path fill-rule="evenodd" clip-rule="evenodd" d="M54.7252 13.3973C55.3522 12.7702 56.2027 12.418 57.0895 12.418C57.9763 12.418 58.8267 12.7702 59.4538 13.3973C60.0808 14.0243 60.4331 14.8748 60.4331 15.7616V18.7672C60.4331 19.2644 60.2356 19.7412 59.884 20.0927C59.5325 20.4443 59.0556 20.6418 58.5585 20.6418H57.6335L57.3074 21.4458L53.4572 19.8839L53.9937 18.5614C53.8316 18.1641 53.7459 17.7356 53.7459 17.2982V15.7616C53.7459 14.8748 54.0981 14.0243 54.7252 13.3973Z" fill="#F8F2E9"/>
<path d="M59.4538 13.3973L59.1002 13.7508L59.1002 13.7508L59.4538 13.3973ZM59.884 20.0927L60.2376 20.4463L60.2376 20.4463L59.884 20.0927ZM57.6335 20.6418L57.1702 20.4539C57.2467 20.2652 57.43 20.1418 57.6335 20.1418V20.6418ZM57.3074 21.4458L57.7707 21.6337C57.7209 21.7566 57.6243 21.8546 57.5021 21.9063C57.38 21.9579 57.2423 21.9589 57.1195 21.9091L57.3074 21.4458ZM53.4572 19.8839L53.2692 20.3472C53.0133 20.2434 52.89 19.9519 52.9938 19.696L53.4572 19.8839ZM53.9937 18.5614L54.4566 18.3725C54.5059 18.4933 54.506 18.6285 54.457 18.7494L53.9937 18.5614ZM57.0895 12.418V12.918C56.3353 12.918 55.612 13.2176 55.0787 13.7508L54.7252 13.3973L54.3716 13.0437C55.0924 12.3229 56.0701 11.918 57.0895 11.918V12.418ZM59.4538 13.3973L59.1002 13.7508C58.5669 13.2176 57.8437 12.918 57.0895 12.918V12.418V11.918C58.1089 11.918 59.0865 12.3229 59.8073 13.0437L59.4538 13.3973ZM60.4331 15.7616H59.9331C59.9331 15.0074 59.6335 14.2841 59.1002 13.7508L59.4538 13.3973L59.8073 13.0437C60.5281 13.7646 60.9331 14.7422 60.9331 15.7616H60.4331ZM60.4331 18.7672H59.9331V15.7616H60.4331H60.9331V18.7672H60.4331ZM59.884 20.0927L59.5305 19.7392C59.7883 19.4814 59.9331 19.1318 59.9331 18.7672H60.4331H60.9331C60.9331 19.397 60.6829 20.001 60.2376 20.4463L59.884 20.0927ZM58.5585 20.6418V20.1418C58.923 20.1418 59.2727 19.997 59.5305 19.7392L59.884 20.0927L60.2376 20.4463C59.7923 20.8916 59.1883 21.1418 58.5585 21.1418V20.6418ZM57.6335 20.6418V20.1418H58.5585V20.6418V21.1418H57.6335V20.6418ZM57.6335 20.6418L58.0969 20.8298L57.7707 21.6337L57.3074 21.4458L56.8441 21.2578L57.1702 20.4539L57.6335 20.6418ZM57.3074 21.4458L57.1195 21.9091L53.2692 20.3472L53.4572 19.8839L53.6451 19.4206L57.4954 20.9824L57.3074 21.4458ZM53.4572 19.8839L52.9938 19.696L53.5303 18.3735L53.9937 18.5614L54.457 18.7494L53.9205 20.0719L53.4572 19.8839ZM53.7459 17.2982H54.2459C54.2459 17.6702 54.3187 18.0346 54.4566 18.3725L53.9937 18.5614L53.5307 18.7503C53.3444 18.2937 53.2459 17.801 53.2459 17.2982H53.7459ZM53.7459 15.7616H54.2459V17.2982H53.7459H53.2459V15.7616H53.7459ZM54.7252 13.3973L55.0787 13.7508C54.5454 14.2841 54.2459 15.0074 54.2459 15.7616H53.7459H53.2459C53.2459 14.7422 53.6508 13.7646 54.3716 13.0437L54.7252 13.3973Z" fill="#232222"/>
<path d="M61.7261 37.9001L61.0438 27.6817C60.5519 25.2638 59.2286 23.0944 57.3037 21.5507L55.7562 20.2806C54.3629 19.0952 53.0525 18.8574 52.2728 18.7122C51.4931 18.567 51.6148 18.7663 50.8931 19.0952C50.1495 19.434 49.5327 20.0002 49.1317 20.7122C48.7307 21.4242 48.5662 22.2451 48.6619 23.0566L49.8389 33.112C49.8389 33.112 55.6965 33.3302 61.7261 37.9001Z" fill="#F8F2E9" stroke="#232222" stroke-linejoin="round"/>
<path d="M93.3641 123.547L94.4552 135.896L110.626 134.467L115.851 105.047C115.851 105.047 109.661 111.67 105.402 115.188C101.142 118.707 93.3641 123.547 93.3641 123.547Z" fill="#FF6F23" stroke="#232222" stroke-linejoin="round"/>
<path d="M37.8682 128.992L33.7286 144.926L17.8617 141.503L16.3313 111.662L37.8682 128.992Z" fill="#FF6F23" stroke="#232222" stroke-linejoin="round"/>
<path d="M94.3428 135.961C94.21 134.458 97.7221 132.92 102.187 132.525C106.652 132.131 110.38 133.029 110.512 134.532C110.645 136.035 107.133 137.574 102.668 137.968C98.2031 138.363 94.4757 137.464 94.3428 135.961Z" fill="#232222" stroke="#232222" stroke-linejoin="round"/>
<path d="M25.2319 145.959C20.8503 145.013 17.5565 143.051 17.8748 141.576C18.1932 140.101 22.0031 139.672 26.3847 140.618C30.7663 141.563 34.0603 143.526 33.7419 145.001C33.4236 146.476 29.6135 146.905 25.2319 145.959Z" fill="#232222" stroke="#232222" stroke-linejoin="round"/>
<path d="M122.115 76.4317C122.675 73.3586 123.345 65.6448 118.633 56.9631C118.052 55.8706 117.061 55.0527 115.879 54.6882C114.696 54.3237 113.417 54.4422 112.321 55.0178C108.615 56.9846 104.973 61.2994 103.409 68.5029C103.365 68.6726 103.371 68.8513 103.425 69.018C103.479 69.1847 103.579 69.3325 103.714 69.4441C103.85 69.5557 104.014 69.6264 104.188 69.6481C104.362 69.6697 104.538 69.6413 104.696 69.5662C106.138 68.8901 108.642 68.4661 112.797 69.683C118.486 71.3518 122.115 76.4317 122.115 76.4317Z" fill="#FF6F23" stroke="#232222" stroke-linejoin="round"/>
<path d="M1.16973 91.3823C3.53301 118.137 29.947 137.658 64.9998 134.564C100.053 131.469 126.553 107.274 124.189 80.5217C121.826 53.7696 91.4968 34.5898 56.444 37.6876C21.3913 40.7853 -1.19663 64.6302 1.16973 91.3823Z" fill="#FF6F23" stroke="#232222" stroke-linejoin="round"/>
<path d="M82.3767 109.559L83.4401 121.588L99.6081 120.162L104.833 90.7422" fill="#FF6F23"/>
<path d="M82.3767 109.559L83.4401 121.588L99.6081 120.162L104.833 90.7422" stroke="#232222" stroke-linejoin="round"/>
<path d="M30.0605 116.682L27.5129 128.486L11.6429 125.062L10.1156 95.2188" fill="#FF6F23"/>
<path d="M30.0605 116.682L27.5129 128.486L11.6429 125.062L10.1156 95.2188" stroke="#232222" stroke-linejoin="round"/>
<path d="M121.049 68.7807L127.988 68.166L129.955 90.4374L123.016 91.052C120.613 91.2641 118.225 86.4423 117.681 80.2959C117.137 74.1495 118.658 68.9927 121.049 68.7807Z" fill="#FF6F23" stroke="#232222" stroke-linejoin="round"/>
<path d="M124.51 79.7453C123.966 73.5946 125.473 68.4363 127.875 68.224C130.278 68.0117 132.666 72.8257 133.21 78.9765C133.753 85.1272 132.246 90.2854 129.844 90.4977C127.441 90.71 125.053 85.896 124.51 79.7453Z" fill="#FF6F23" stroke="#232222" stroke-linejoin="round"/>
<path d="M104.483 49.1709C104.231 45.8241 102.852 37.6525 95.5712 29.9173C94.6596 28.9417 93.4015 28.363 92.0676 28.3055C90.7337 28.248 89.4304 28.7164 88.4383 29.61C85.0947 32.6493 82.4487 38.1074 82.756 46.0024C82.7628 46.1892 82.8211 46.3704 82.9247 46.5259C83.0283 46.6815 83.1731 46.8053 83.3428 46.8837C83.5125 46.962 83.7006 46.9918 83.8861 46.9697C84.0717 46.9475 84.2474 46.8744 84.3939 46.7584C85.7154 45.6674 88.2232 44.5488 92.9006 44.6901C99.2959 44.8807 104.483 49.1709 104.483 49.1709Z" fill="#FF6F23" stroke="#232222" stroke-linejoin="round"/>
<path d="M106.973 61.3715C106.319 60.1411 106.398 58.8201 107.149 58.421C107.9 58.0219 109.038 58.6959 109.692 59.9263C110.346 61.1568 110.268 62.4778 109.517 62.8769C108.766 63.276 107.627 62.602 106.973 61.3715Z" fill="#FF6F23" stroke="#232222" stroke-linejoin="round"/>
<path d="M130.66 80.9405C130.576 79.9886 130.81 79.1904 131.182 79.1575C131.554 79.1247 131.923 79.8696 132.007 80.8215C132.091 81.7733 131.858 82.5716 131.486 82.6044C131.114 82.6373 130.745 81.8924 130.66 80.9405Z" fill="#232222" stroke="#232222" stroke-linejoin="round"/>
<path d="M126.941 77.794C126.857 76.8422 127.09 76.0439 127.462 76.011C127.834 75.9782 128.204 76.7231 128.288 77.675C128.372 78.6268 128.139 79.4251 127.767 79.458C127.395 79.4908 127.025 78.7459 126.941 77.794Z" fill="#232222" stroke="#232222" stroke-linejoin="round"/>
<path d="M83.3287 121.651C83.1959 120.148 86.7078 118.609 91.1729 118.215C95.6381 117.82 99.3655 118.719 99.4983 120.222C99.6311 121.725 96.119 123.263 91.6539 123.658C87.1888 124.052 83.4615 123.154 83.3287 121.651Z" fill="#232222" stroke="#232222" stroke-linejoin="round"/>
<path d="M19.0151 129.512C14.6335 128.566 11.3397 126.604 11.658 125.129C11.9764 123.654 15.7863 123.225 20.1679 124.17C24.5495 125.116 27.8435 127.079 27.5251 128.553C27.2068 130.028 23.3967 130.457 19.0151 129.512Z" fill="#232222" stroke="#232222" stroke-linejoin="round"/>
<path d="M58.187 15.4887C58.8815 15.5502 58.4758 13.0886 59.4162 13.7032C60.4458 14.3732 60.6455 16.5244 60.6455 16.5244C61.5921 16.3831 62.096 12.4187 58.4788 11.4383C54.7603 10.4334 52.6705 11.9269 52.2741 13.6233C51.8776 15.3197 53.1038 19.5976 54.0289 18.5804C54.9539 17.5632 56.2108 17.4986 56.0449 15.4335C55.8789 13.3683 56.8439 14.1058 57.139 14.1611C57.434 14.2164 56.8901 15.3781 58.187 15.4887Z" fill="#232222" stroke="#232222" stroke-linejoin="round"/>
<path d="M56.8234 16.1962C56.8234 16.1962 55.7571 15.1452 55.7356 14.2171C55.7141 13.289 56.8173 13.1722 57.4442 14.2171C57.813 14.8286 58.2739 16.9338 56.8234 16.1962Z" fill="#F8F2E9" stroke="#232222" stroke-linejoin="round"/>
<path d="M59.3021 35.0579L57.0894 31.1211L52.455 32.4272C50.1655 33.2139 49.0746 34.8857 50.1072 38.0572C51.1398 41.2288 59.133 45.94 59.133 45.94L51.9972 53.039L57.5043 58.0945L65.9586 49.1361C66.7507 48.2828 67.1994 47.1666 67.2181 46.0024C67.2369 44.8382 66.8243 43.7082 66.06 42.8299L59.299 35.0579" fill="#B1C6C3"/>
<path d="M59.3021 35.0579L57.0894 31.1211L52.455 32.4272C50.1655 33.2139 49.0746 34.8857 50.1072 38.0572C51.1398 41.2288 59.133 45.94 59.133 45.94L51.9972 53.039L57.5043 58.0945L65.9586 49.1361C66.7507 48.2828 67.1994 47.1666 67.2181 46.0024C67.2369 44.8382 66.8243 43.7082 66.06 42.8299L59.299 35.0579" stroke="#232222" stroke-linejoin="round"/>
<path d="M48.9402 25.6398C49.0732 27.007 49.0999 28.3826 49.0203 29.754L48.7916 33.6912C49.0989 36.1497 51.7865 32.9234 55.3729 33.1139C57.5733 33.2245 58.9962 34.6904 60.1087 35.9996C61.0799 37.1428 61.7222 37.9111 61.7222 37.9111L61.0399 27.6928" fill="#F8F2E9"/>
<path d="M61.0399 27.6928L61.7222 37.9111C61.7222 37.9111 61.0799 37.1428 60.1087 35.9996C58.9962 34.6904 57.5733 33.2245 55.3729 33.1139C51.7865 32.9234 49.0989 36.1497 48.7916 33.6912L49.0203 29.754C49.0999 28.3826 49.0732 27.007 48.9402 25.6398L48.7916 24.1113" stroke="#232222" stroke-linejoin="round"/>
<path d="M57.5034 58.0997C55.6257 59.8145 50.3736 54.6577 51.9963 53.0442C53.6189 51.4308 59.7775 56.0192 57.5034 58.0997Z" fill="#5D766F" stroke="#232222" stroke-linejoin="round"/>
<path d="M58.2579 62.7147C56.4908 64.8659 49.1305 57.4503 51.3063 55.6955C52.3471 54.8597 53.3326 53.9574 54.2566 52.9941C54.2566 52.9941 54.7391 53.0464 56.039 54.039C56.5539 54.428 57.0086 54.8909 57.3882 55.4128L56.1897 56.138C55.9887 56.3246 55.8629 56.5783 55.8363 56.8512C55.8097 57.1242 55.884 57.3974 56.0452 57.6193C57.0624 59.0176 58.9586 61.8603 58.2579 62.7147Z" fill="#232222" stroke="#232222" stroke-linejoin="round"/>
<path d="M51.3582 25.2278C47.864 23.6912 39.425 18.9554 37.6426 8.26378L41.6592 6.00195C41.6592 6.00195 43.4324 16.3524 53.7552 19.0906C54.1877 19.2073 54.8866 19.5847 55.7574 20.2814" fill="#F8F2E9"/>
<path d="M51.3582 25.2278C47.864 23.6912 39.425 18.9554 37.6426 8.26378L41.6592 6.00195C41.6592 6.00195 43.4324 16.3524 53.7552 19.0906C54.1877 19.2073 54.8866 19.5847 55.7574 20.2814L57.6733 21.849" stroke="#232222" stroke-linejoin="round"/>
</svg>
