<svg width="76" height="70" viewBox="0 0 76 70" fill="none" xmlns="http://www.w3.org/2000/svg">
<path d="M11.1843 37.2002C12.8899 29.5781 22.3803 22.4027 34.8382 20.0481C47.2962 17.6934 58.7523 20.9096 63.1222 27.3835L64.0147 27.2148L64.8107 31.4262C66.5285 40.5143 55.8936 50.1549 41.0587 52.9588C26.2238 55.7628 12.8055 50.6685 11.0878 41.5803L10.2918 37.3689L11.1843 37.2002Z" fill="#232222"/>
<path d="M64.2134 28.2703C65.9312 37.3583 55.2977 46.9986 40.463 49.8026C25.6282 52.6065 12.2098 47.5122 10.4921 38.4241C8.77433 29.3361 19.4078 19.6957 34.2425 16.8918C49.0773 14.0879 62.4957 19.1822 64.2134 28.2703Z" fill="#FFB772" stroke="#232222" stroke-linejoin="round"/>
</svg>
