<svg width="135" height="148" viewBox="0 0 135 148" fill="none" xmlns="http://www.w3.org/2000/svg">
<path d="M58.7701 22.9551C63.3798 26.9871 70.7339 40.9855 70.7339 40.9855H66.3885L56.0411 26.6644L58.7701 22.9551Z" fill="#F8F2E9" stroke="#232222" stroke-linejoin="round"/>
<path d="M40.9902 7.02375C40.9902 7.02375 41.6048 1.72252 40.5999 1.05257C39.595 0.38261 39.9299 4.0397 39.9299 4.0397C39.9299 4.0397 40.4893 1.05563 39.429 0.966507C38.3688 0.877385 38.6484 4.39923 38.6484 4.39923C38.6484 4.39923 39.0387 1.88541 38.0891 1.83009C37.1395 1.77477 37.4744 6.91006 38.5347 9.42085L40.9902 7.02375Z" fill="#F8F2E9" stroke="#232222" stroke-linejoin="round"/>
<path d="M60.6434 16.4922C60.6434 16.4922 61.759 15.0201 61.0337 13.5911C60.3085 12.162 58.7995 10.6009 55.2285 10.8806C52.7484 11.0742 50.253 12.8597 45.8798 10.2014C43.5934 8.8154 42.3335 10.3212 44.5124 11.9408C46.6912 13.5604 50.0441 14.341 50.0441 14.341C50.0441 14.341 44.9087 12.3096 44.294 13.0748C43.6794 13.84 45.969 15.5671 47.8099 16.0712C49.6507 16.5752 50.9353 16.9624 50.9353 16.9624C50.9353 16.9624 45.5079 15.5641 45.9136 16.4922C47.2043 19.4763 57.0908 22.0301 60.6434 16.4922Z" fill="#232222" stroke="#232222" stroke-linejoin="round"/>
<path fill-rule="evenodd" clip-rule="evenodd" d="M54.7252 13.3621C55.3522 12.7351 56.2027 12.3828 57.0895 12.3828C57.9763 12.3828 58.8267 12.7351 59.4538 13.3621C60.0808 13.9892 60.4331 14.8397 60.4331 15.7264V18.732C60.4331 19.2292 60.2356 19.706 59.884 20.0576C59.5325 20.4092 59.0556 20.6067 58.5585 20.6067H57.6335L57.3074 21.4106L53.4572 19.8488L53.9937 18.5263C53.8316 18.129 53.7459 17.7004 53.7459 17.263V15.7264C53.7459 14.8397 54.0981 13.9892 54.7252 13.3621Z" fill="#F8F2E9"/>
<path d="M59.4538 13.3621L59.1002 13.7157L59.4538 13.3621ZM59.884 20.0576L60.2376 20.4111H60.2376L59.884 20.0576ZM57.6335 20.6067L57.1702 20.4187C57.2467 20.2301 57.43 20.1067 57.6335 20.1067V20.6067ZM57.3074 21.4106L57.7707 21.5986C57.7209 21.7214 57.6243 21.8195 57.5021 21.8711C57.38 21.9228 57.2423 21.9238 57.1195 21.8739L57.3074 21.4106ZM53.4572 19.8488L53.2692 20.3121C53.0133 20.2083 52.89 19.9167 52.9938 19.6608L53.4572 19.8488ZM53.9937 18.5263L54.4566 18.3374C54.5059 18.4581 54.506 18.5933 54.457 18.7142L53.9937 18.5263ZM57.0895 12.3828V12.8828C56.3353 12.8828 55.612 13.1824 55.0787 13.7157L54.7252 13.3621L54.3716 13.0086C55.0924 12.2878 56.0701 11.8828 57.0895 11.8828V12.3828ZM59.4538 13.3621L59.1002 13.7157C58.5669 13.1824 57.8437 12.8828 57.0895 12.8828V12.3828V11.8828C58.1089 11.8828 59.0865 12.2878 59.8073 13.0086L59.4538 13.3621ZM60.4331 15.7264H59.9331C59.9331 14.9723 59.6335 14.249 59.1002 13.7157L59.4538 13.3621L59.8073 13.0086C60.5281 13.7294 60.9331 14.707 60.9331 15.7264H60.4331ZM60.4331 18.732H59.9331V15.7264H60.4331H60.9331V18.732H60.4331ZM59.884 20.0576L59.5305 19.704C59.7883 19.4462 59.9331 19.0966 59.9331 18.732H60.4331H60.9331C60.9331 19.3618 60.6829 19.9658 60.2376 20.4111L59.884 20.0576ZM58.5585 20.6067V20.1067C58.923 20.1067 59.2727 19.9618 59.5305 19.704L59.884 20.0576L60.2376 20.4111C59.7923 20.8565 59.1883 21.1067 58.5585 21.1067V20.6067ZM57.6335 20.6067V20.1067H58.5585V20.6067V21.1067H57.6335V20.6067ZM57.6335 20.6067L58.0969 20.7946L57.7707 21.5986L57.3074 21.4106L56.8441 21.2227L57.1702 20.4187L57.6335 20.6067ZM57.3074 21.4106L57.1195 21.8739L53.2692 20.3121L53.4572 19.8488L53.6451 19.3854L57.4954 20.9473L57.3074 21.4106ZM53.4572 19.8488L52.9938 19.6608L53.5303 18.3383L53.9937 18.5263L54.457 18.7142L53.9205 20.0367L53.4572 19.8488ZM53.7459 17.263H54.2459C54.2459 17.635 54.3187 17.9995 54.4566 18.3374L53.9937 18.5263L53.5307 18.7152C53.3444 18.2585 53.2459 17.7658 53.2459 17.263H53.7459ZM53.7459 15.7264H54.2459V17.263H53.7459H53.2459V15.7264H53.7459ZM54.7252 13.3621L55.0787 13.7157C54.5454 14.249 54.2459 14.9723 54.2459 15.7264H53.7459H53.2459C53.2459 14.707 53.6508 13.7294 54.3716 13.0086L54.7252 13.3621Z" fill="#232222"/>
<path d="M61.7261 37.8649L61.0438 27.6466C60.5519 25.2286 59.2286 23.0592 57.3037 21.5155L55.7562 20.2454C54.3629 19.06 53.0525 18.8222 52.2728 18.677C51.4931 18.5319 51.6148 18.7312 50.8931 19.06C50.1495 19.3988 49.5327 19.9651 49.1317 20.677C48.7307 21.389 48.5662 22.2099 48.6619 23.0214L49.8389 33.0769C49.8389 33.0769 55.6965 33.2951 61.7261 37.8649Z" fill="#F8F2E9" stroke="#232222" stroke-linejoin="round"/>
<path d="M93.3641 123.512L94.4552 135.86L110.626 134.431L115.851 105.012C115.851 105.012 109.661 111.634 105.402 115.153C101.142 118.672 93.3641 123.512 93.3641 123.512Z" fill="#FF6F23" stroke="#232222" stroke-linejoin="round"/>
<path d="M37.8682 128.957L33.7286 144.891L17.8617 141.468L16.3313 111.627L37.8682 128.957Z" fill="#FF6F23" stroke="#232222" stroke-linejoin="round"/>
<path d="M94.3428 135.926C94.21 134.423 97.7221 132.885 102.187 132.49C106.652 132.096 110.38 132.994 110.512 134.497C110.645 136 107.133 137.539 102.668 137.933C98.2031 138.328 94.4757 137.429 94.3428 135.926Z" fill="#232222" stroke="#232222" stroke-linejoin="round"/>
<path d="M25.2319 145.924C20.8503 144.978 17.5565 143.016 17.8748 141.541C18.1932 140.066 22.0031 139.637 26.3847 140.583C30.7663 141.528 34.0603 143.491 33.7419 144.966C33.4236 146.44 29.6135 146.869 25.2319 145.924Z" fill="#232222" stroke="#232222" stroke-linejoin="round"/>
<path d="M122.115 76.3966C122.675 73.3234 123.345 65.6097 118.633 56.9279C118.052 55.8354 117.061 55.0175 115.879 54.653C114.696 54.2885 113.417 54.407 112.321 54.9826C108.615 56.9495 104.973 61.2642 103.409 68.4678C103.365 68.6375 103.371 68.8161 103.425 68.9828C103.479 69.1495 103.579 69.2973 103.714 69.4089C103.85 69.5205 104.014 69.5913 104.188 69.6129C104.362 69.6346 104.538 69.6061 104.696 69.5311C106.138 68.855 108.642 68.4309 112.797 69.6479C118.486 71.3166 122.115 76.3966 122.115 76.3966Z" fill="#FF6F23" stroke="#232222" stroke-linejoin="round"/>
<path d="M1.16973 91.3471C3.53301 118.102 29.947 137.623 64.9998 134.528C100.053 131.434 126.553 107.239 124.189 80.4865C121.826 53.7344 91.4968 34.5546 56.444 37.6524C21.3913 40.7502 -1.19662 64.595 1.16973 91.3471Z" fill="#FF6F23" stroke="#232222" stroke-linejoin="round"/>
<path d="M82.3767 109.524L83.4401 121.553L99.6081 120.127L104.833 90.707" fill="#FF6F23"/>
<path d="M82.3767 109.524L83.4401 121.553L99.6081 120.127L104.833 90.707" stroke="#232222" stroke-linejoin="round"/>
<path d="M30.0605 116.647L27.5129 128.451L11.6429 125.027L10.1156 95.1836" fill="#FF6F23"/>
<path d="M30.0605 116.647L27.5129 128.451L11.6429 125.027L10.1156 95.1836" stroke="#232222" stroke-linejoin="round"/>
<path d="M121.049 68.7455L127.988 68.1309L129.955 90.4022L123.016 91.0169C120.613 91.2289 118.225 86.4071 117.681 80.2607C117.137 74.1143 118.658 68.9575 121.049 68.7455Z" fill="#FF6F23" stroke="#232222" stroke-linejoin="round"/>
<path d="M124.51 79.7101C123.966 73.5594 125.473 68.4012 127.875 68.1889C130.278 67.9766 132.666 72.7906 133.21 78.9413C133.753 85.092 132.246 90.2502 129.844 90.4625C127.441 90.6748 125.053 85.8608 124.51 79.7101Z" fill="#FF6F23" stroke="#232222" stroke-linejoin="round"/>
<path d="M104.483 49.1357C104.231 45.789 102.852 37.6173 95.5712 29.8821C94.6596 28.9066 93.4015 28.3278 92.0676 28.2704C90.7337 28.2129 89.4304 28.6813 88.4383 29.5748C85.0947 32.6142 82.4487 38.0722 82.756 45.9672C82.7628 46.154 82.8211 46.3352 82.9247 46.4908C83.0283 46.6463 83.1731 46.7702 83.3428 46.8485C83.5125 46.9268 83.7006 46.9566 83.8861 46.9345C84.0717 46.9124 84.2474 46.8392 84.3939 46.7232C85.7154 45.6322 88.2232 44.5136 92.9006 44.655C99.2959 44.8455 104.483 49.1357 104.483 49.1357Z" fill="#FF6F23" stroke="#232222" stroke-linejoin="round"/>
<path d="M106.973 61.3364C106.319 60.1059 106.398 58.7849 107.149 58.3858C107.9 57.9868 109.038 58.6607 109.692 59.8912C110.346 61.1217 110.268 62.4427 109.517 62.8417C108.766 63.2408 107.627 62.5668 106.973 61.3364Z" fill="#FF6F23" stroke="#232222" stroke-linejoin="round"/>
<path d="M130.66 80.9053C130.576 79.9535 130.81 79.1552 131.182 79.1224C131.554 79.0895 131.923 79.8345 132.007 80.7863C132.091 81.7382 131.858 82.5364 131.486 82.5693C131.114 82.6021 130.745 81.8572 130.66 80.9053Z" fill="#232222" stroke="#232222" stroke-linejoin="round"/>
<path d="M126.941 77.7589C126.857 76.807 127.09 76.0088 127.462 75.9759C127.834 75.943 128.204 76.688 128.288 77.6398C128.372 78.5917 128.139 79.3899 127.767 79.4228C127.395 79.4557 127.025 78.7107 126.941 77.7589Z" fill="#232222" stroke="#232222" stroke-linejoin="round"/>
<path d="M83.3287 121.616C83.1959 120.113 86.7078 118.574 91.1729 118.18C95.6381 117.785 99.3655 118.684 99.4983 120.187C99.6311 121.69 96.119 123.228 91.6539 123.623C87.1888 124.017 83.4615 123.119 83.3287 121.616Z" fill="#232222" stroke="#232222" stroke-linejoin="round"/>
<path d="M19.0151 129.476C14.6335 128.531 11.3397 126.568 11.658 125.093C11.9764 123.619 15.7863 123.19 20.1679 124.135C24.5495 125.081 27.8435 127.043 27.5251 128.518C27.2068 129.993 23.3967 130.422 19.0151 129.476Z" fill="#232222" stroke="#232222" stroke-linejoin="round"/>
<path d="M58.187 15.4536C58.8815 15.5151 58.4758 13.0534 59.4162 13.6681C60.4458 14.338 60.6455 16.4893 60.6455 16.4893C61.5921 16.3479 62.096 12.3835 58.4788 11.4032C54.7603 10.3982 52.6705 11.8917 52.2741 13.5881C51.8776 15.2845 53.1038 19.5625 54.0289 18.5452C54.9539 17.528 56.2108 17.4635 56.0449 15.3983C55.8789 13.3331 56.8439 14.0706 57.139 14.126C57.434 14.1813 56.8901 15.343 58.187 15.4536Z" fill="#232222" stroke="#232222" stroke-linejoin="round"/>
<path d="M56.8234 16.161C56.8234 16.161 55.7571 15.11 55.7356 14.1819C55.7141 13.2538 56.8173 13.137 57.4442 14.1819C57.813 14.7935 58.2739 16.8986 56.8234 16.161Z" fill="#F8F2E9" stroke="#232222" stroke-linejoin="round"/>
<path d="M59.3021 35.0227L57.0894 31.0859L52.455 32.392C50.1655 33.1788 49.0746 34.8505 50.1072 38.0221C51.1398 41.1936 59.133 45.9048 59.133 45.9048L51.9972 53.0039L57.5043 58.0593L65.9586 49.1009C66.7507 48.2476 67.1994 47.1315 67.2181 45.9673C67.2369 44.8031 66.8243 43.6731 66.06 42.7947L59.299 35.0227" fill="#B1C6C3"/>
<path d="M59.3021 35.0227L57.0894 31.0859L52.455 32.392C50.1655 33.1788 49.0746 34.8505 50.1072 38.0221C51.1398 41.1936 59.133 45.9048 59.133 45.9048L51.9972 53.0039L57.5043 58.0593L65.9586 49.1009C66.7507 48.2476 67.1994 47.1315 67.2181 45.9673C67.2369 44.8031 66.8243 43.6731 66.06 42.7947L59.299 35.0227" stroke="#232222" stroke-linejoin="round"/>
<path d="M48.9402 25.6046C49.0732 26.9719 49.0999 28.3474 49.0203 29.7188L48.7916 33.656C49.0989 36.1146 51.7865 32.8882 55.3729 33.0787C57.5733 33.1894 58.9962 34.6553 60.1087 35.9644C61.0799 37.1077 61.7222 37.876 61.7222 37.876L61.0399 27.6576" fill="#F8F2E9"/>
<path d="M61.0399 27.6576L61.7222 37.876C61.7222 37.876 61.0799 37.1077 60.1087 35.9644C58.9962 34.6553 57.5733 33.1894 55.3729 33.0787C51.7865 32.8882 49.0989 36.1146 48.7916 33.656L49.0203 29.7188C49.0999 28.3474 49.0732 26.9719 48.9402 25.6046L48.7916 24.0762" stroke="#232222" stroke-linejoin="round"/>
<path d="M57.5034 58.0645C55.6257 59.7794 50.3736 54.6225 51.9963 53.0091C53.6189 51.3957 59.7775 55.984 57.5034 58.0645Z" fill="#5D766F" stroke="#232222" stroke-linejoin="round"/>
<path d="M58.2579 62.6795C56.4908 64.8307 49.1305 57.4151 51.3063 55.6603C52.3471 54.8245 53.3326 53.9222 54.2566 52.959C54.2566 52.959 54.7391 53.0112 56.039 54.0038C56.5539 54.3928 57.0086 54.8558 57.3882 55.3776L56.1897 56.1028C55.9887 56.2894 55.8629 56.5431 55.8363 56.8161C55.8097 57.089 55.884 57.3623 56.0452 57.5841C57.0624 58.9824 58.9586 61.8252 58.2579 62.6795Z" fill="#232222" stroke="#232222" stroke-linejoin="round"/>
<path d="M51.3582 25.1926C47.864 23.656 39.425 18.9202 37.6426 8.22862L41.6592 5.9668C41.6592 5.9668 43.4324 16.3172 53.7552 19.0555C54.1877 19.1721 54.8866 19.5495 55.7574 20.2462" fill="#F8F2E9"/>
<path d="M51.3582 25.1926C47.864 23.656 39.425 18.9202 37.6426 8.22862L41.6592 5.9668C41.6592 5.9668 43.4324 16.3172 53.7552 19.0555C54.1877 19.1721 54.8866 19.5495 55.7574 20.2462L57.6733 21.8138" stroke="#232222" stroke-linejoin="round"/>
</svg>
