<svg width="139" height="77" viewBox="0 0 139 77" fill="none" xmlns="http://www.w3.org/2000/svg">
<rect x="26" y="1" width="25" height="13" fill="#FFB772" stroke="black" stroke-linejoin="round"/>
<rect x="26" y="27" width="25" height="13" fill="#FFB772" stroke="black" stroke-linejoin="round"/>
<rect x="51" y="1" width="25" height="13" fill="#FF8C4F" stroke="black" stroke-linejoin="round"/>
<rect x="1" y="1" width="25" height="13" fill="#FF8C4F" stroke="black" stroke-linejoin="round"/>
<rect x="14" y="14" width="25" height="13" fill="#FF8C4F" stroke="black" stroke-linejoin="round"/>
<path d="M101 1L113 11.3394V50L101 40V1Z" fill="#FF8C4F" stroke="black" stroke-linejoin="round"/>
<path d="M101 40L113 50L12.2698 50L1 40L101 40Z" fill="#232222" stroke="black" stroke-linejoin="round"/>
<rect x="76" y="27" width="25" height="13" fill="#FFB772" stroke="black" stroke-linejoin="round"/>
<rect x="76" y="1" width="25" height="13" fill="#FFB772" stroke="black" stroke-linejoin="round"/>
<rect x="51" y="27" width="25" height="13" fill="#FF8C4F" stroke="black" stroke-linejoin="round"/>
<rect x="1" y="27" width="25" height="13" fill="#FF8C4F" stroke="black" stroke-linejoin="round"/>
<rect x="39" y="14" width="25" height="13" fill="#FFB772" stroke="black" stroke-linejoin="round"/>
<rect x="1" y="14" width="13" height="13" fill="#FFB772" stroke="black" stroke-linejoin="round"/>
<rect x="64" y="14" width="25" height="13" fill="#FF8C4F" stroke="black" stroke-linejoin="round"/>
<rect x="89" y="14" width="12" height="13" fill="#FFB772" stroke="black" stroke-linejoin="round"/>
<rect x="51" y="27" width="25" height="13" fill="#FFB772" stroke="black" stroke-linejoin="round"/>
<rect x="51" y="53" width="25" height="13" fill="#FFB772" stroke="black" stroke-linejoin="round"/>
<rect x="76" y="27" width="25" height="13" fill="#FF8C4F" stroke="black" stroke-linejoin="round"/>
<rect x="26" y="27" width="25" height="13" fill="#FF8C4F" stroke="black" stroke-linejoin="round"/>
<rect x="39" y="40" width="25" height="13" fill="#FF8C4F" stroke="black" stroke-linejoin="round"/>
<path d="M126 27L138 37.3394V76L126 66V27Z" fill="#FF8C4F" stroke="black" stroke-linejoin="round"/>
<path d="M126 66L138 76L37.2698 76L26 66L126 66Z" fill="#232222" stroke="black" stroke-linejoin="round"/>
<rect x="101" y="53" width="25" height="13" fill="#FFB772" stroke="black" stroke-linejoin="round"/>
<rect x="101" y="27" width="25" height="13" fill="#FFB772" stroke="black" stroke-linejoin="round"/>
<rect x="76" y="53" width="25" height="13" fill="#FF8C4F" stroke="black" stroke-linejoin="round"/>
<rect x="26" y="53" width="25" height="13" fill="#FF8C4F" stroke="black" stroke-linejoin="round"/>
<rect x="64" y="40" width="25" height="13" fill="#FFB772" stroke="black" stroke-linejoin="round"/>
<rect x="26" y="40" width="13" height="13" fill="#FFB772" stroke="black" stroke-linejoin="round"/>
<rect x="89" y="40" width="25" height="13" fill="#FF8C4F" stroke="black" stroke-linejoin="round"/>
<rect x="114" y="40" width="12" height="13" fill="#FFB772" stroke="black" stroke-linejoin="round"/>
</svg>
