<svg width="53" height="44" viewBox="0 0 53 44" fill="none" xmlns="http://www.w3.org/2000/svg">
<g clip-path="url(#clip0_18450_22585)">
<path d="M17.4763 11.4322L15.7195 9.49851C13.5999 7.16543 10.4205 6.44379 7.63259 7.66988C4.78419 8.924 2.91602 11.9577 2.91602 15.3382V28.7271C2.91602 28.7271 7.86258 28.9381 7.86258 24.0267C7.86258 24.0267 12.8011 25.5078 13.1225 20.0814C13.1225 20.0814 17.4763 22.1588 17.4763 16.7955V11.4322Z" fill="#FF6F23" stroke="#232222" stroke-linecap="round" stroke-linejoin="round"/>
<path d="M35.5244 11.4322L37.2812 9.49851C39.4008 7.16543 42.5802 6.44379 45.3681 7.66988C48.2165 8.924 50.0879 11.9577 50.0879 15.3382V28.7271C50.0879 28.7271 45.1371 28.9381 45.1371 24.0267C45.1371 24.0267 40.2028 25.5078 39.8814 20.0814C39.8814 20.0814 35.5276 22.1588 35.5276 16.7955V11.4322H35.5244Z" fill="#FF6F23" stroke="#232222" stroke-linecap="round" stroke-linejoin="round"/>
<path d="M38.6936 13.7934V11.2992C38.6936 6.03403 42.5099 3.5293 42.5099 3.5293H10.2861C10.2861 3.5293 14.2961 6.03403 14.2961 11.5024V13.7969C14.2961 19.9274 18.137 25.042 23.6924 26.2295V31.7119C23.6924 34.4479 22.3546 35.8141 19.8762 36.7249C15.148 38.4589 13.6025 42.5225 13.6025 42.5225H13.6201C13.6201 43.1426 19.3868 43.6435 26.5019 43.6435C33.6169 43.6435 39.3836 43.1426 39.3836 42.5225H39.3906C39.3906 42.5225 37.8451 38.4589 33.117 36.7249C30.6385 35.8141 29.3007 34.4479 29.3007 31.7119V26.2295C34.8562 25.042 38.6936 19.9274 38.6936 13.7969V13.7934Z" fill="#FF6F23" stroke="#232222" stroke-linecap="round" stroke-linejoin="round"/>
<path d="M26.4985 32.6435C28.6723 32.6435 30.4345 30.8901 30.4345 28.727C30.4345 26.564 28.6723 24.8105 26.4985 24.8105C24.3247 24.8105 22.5625 26.564 22.5625 28.727C22.5625 30.8901 24.3247 32.6435 26.4985 32.6435Z" fill="#FF6F23" stroke="#232222" stroke-linecap="round" stroke-linejoin="round"/>
<path d="M45.1377 24.0259V16.7891" stroke="#232222" stroke-linecap="round" stroke-linejoin="round"/>
<path d="M7.86328 24.027V17.3691" stroke="#232222" stroke-linecap="round" stroke-linejoin="round"/>
<path d="M26.3962 4.6502C35.2936 4.6502 42.5064 4.14831 42.5064 3.5292C42.5064 2.91009 35.2936 2.4082 26.3962 2.4082C17.4989 2.4082 10.2861 2.91009 10.2861 3.5292C10.2861 4.14831 17.4989 4.6502 26.3962 4.6502Z" fill="#232222" stroke="#232222" stroke-linecap="round" stroke-linejoin="round"/>
<path d="M20.543 5.81285L21.6805 7.92126L19.5595 6.79054C18.7598 6.36546 17.7977 6.36546 16.998 6.79054L14.877 7.92126L16.0144 5.81285C16.4421 5.01795 16.4421 4.06151 16.0144 3.26661L14.877 1.1582L16.998 2.28892C17.7977 2.714 18.7598 2.714 19.5595 2.28892L21.6805 1.1582L20.543 3.26661C20.1154 4.06151 20.1154 5.01795 20.543 5.81285Z" fill="white" stroke="#232222" stroke-linecap="round" stroke-linejoin="round"/>
<path d="M25.1561 19.9495L30.0779 7.54492H29.2892L25.0188 17.8546L22.5122 11.0025H20.6709L23.938 19.946H25.1561V19.9495Z" fill="white"/>
<path d="M28.4032 19.9495L33.3249 7.54492H32.5363L28.2659 17.8546L25.7592 11.0025H23.918L27.1851 19.946H28.4032V19.9495Z" fill="white"/>
</g>
<defs>
<clipPath id="clip0_18450_22585">
<rect width="53" height="44" fill="white"/>
</clipPath>
</defs>
</svg>
