<svg width="105" height="58" viewBox="0 0 105 58" fill="none" xmlns="http://www.w3.org/2000/svg">
<path d="M73.3546 1.0362C83.04 2.26981 83.8734 12.185 83.8734 12.185C83.8734 12.185 95.7751 6.1853 102.121 16.4947C107.162 24.7167 103.424 37.5606 92.2958 41.4658C81.1673 45.371 77.9532 36.8887 77.9532 36.8887C77.9532 36.8887 75.9996 47.9131 65.0366 49.1147C57.5256 49.9369 53.4595 43.4068 53.4595 43.4068C53.4595 43.4068 51.1716 56.5083 39.2087 57.3008C28.0817 58.0379 28.3911 46.0153 28.3911 46.0153C28.3911 46.0153 23.603 54.9785 13.7917 55.472C3.98043 55.9655 -1.11293 48.0817 1.34733 41.4658C3.80759 34.8499 8.45838 33.1935 8.45838 33.1935C8.45838 33.1935 4.54732 31.2405 4.54732 22.761C4.54732 22.761 4.54728 13.8723 15.5695 12.4501C23.7472 11.3949 28.2728 19.4914 28.2728 19.4914C28.2728 19.4914 28.2728 3.55156 42.9471 1.03565C54.9594 -1.02382 56.7009 11.6143 56.7009 11.6143C56.7009 11.6143 61.2631 -0.504644 73.3546 1.0362Z" fill="#F8F2E9"/>
</svg>
