<svg width="76" height="71" viewBox="0 0 76 71" fill="none" xmlns="http://www.w3.org/2000/svg">
<path d="M17.4975 50.1586C15.0522 43.1315 19.1338 32.5584 28.0378 24.3984C36.9417 16.2384 47.8311 13.0916 54.6187 16.1392L55.2566 15.5546L58.0151 18.5646C63.9678 25.0601 60.1972 38.2036 49.5944 47.9204C38.9915 57.6373 25.5708 60.2487 19.6181 53.7532L16.8596 50.7432L17.4975 50.1586Z" fill="#232222"/>
<path d="M55.9466 16.3078C61.8993 22.8033 58.1296 35.9458 47.5269 45.6626C36.9242 55.3794 23.5034 57.9908 17.5507 51.4954C11.5981 45 15.3677 31.8574 25.9704 22.1406C36.5731 12.4238 49.9939 9.8124 55.9466 16.3078Z" fill="#FFB772" stroke="#232222" stroke-linejoin="round"/>
</svg>
