<svg width="63" height="61" viewBox="0 0 63 61" fill="none" xmlns="http://www.w3.org/2000/svg">
<path d="M16.5292 46.1809C14.1776 40.4122 16.8963 31.1126 23.6334 23.4759C30.3706 15.8393 38.9796 12.2988 44.6167 14.3433L45.0994 13.7962L47.4861 16.1305C52.6367 21.1679 50.3077 32.6242 42.2851 41.7179C34.2625 50.8116 23.5838 54.0998 18.4332 49.0624L16.0465 46.728L16.5292 46.1809Z" fill="#232222" stroke="#232222" stroke-linecap="round" stroke-linejoin="round"/>
<path d="M45.6894 14.3854C50.8399 19.4227 48.5117 30.8782 40.4892 39.9718C32.4667 49.0654 21.7879 52.3536 16.6374 47.3163C11.4868 42.2789 13.815 30.8235 21.8375 21.7299C29.86 12.6362 40.5389 9.348 45.6894 14.3854Z" fill="#FFB772" stroke="#232222" stroke-linecap="round" stroke-linejoin="round"/>
<path d="M37.4921 37.0408C31.5702 43.7534 23.9355 46.4231 20.4395 43.0039" stroke="#232222" stroke-linecap="round" stroke-linejoin="round"/>
<path d="M25.4138 22.325C24.8513 20.2931 23.2636 18.7056 21.2316 18.1433L20.5869 17.9648L21.2316 17.7864C23.2636 17.2241 24.8513 15.6366 25.4138 13.6047L25.591 12.9648L25.7643 13.5955C26.324 15.6325 27.9137 17.2251 29.9496 17.7885L30.5869 17.9648L29.9496 18.1412C27.9137 18.7046 26.324 20.2972 25.7643 22.3341L25.591 22.9648L25.4138 22.325Z" fill="#F8F2E9" stroke="#232222" stroke-linecap="round" stroke-linejoin="round"/>
</svg>
