<svg width="33" height="33" viewBox="0 0 33 33" fill="none" xmlns="http://www.w3.org/2000/svg">
<path d="M11.6703 30.8848L12.5859 31.6478L9.75773 31.648L8.8978 30.8849L11.6703 30.8848Z" fill="#232222" stroke="#232222" stroke-width="0.802063" stroke-linejoin="round"/>
<path d="M19.5551 30.8848L20.4707 31.6478L17.6425 31.648L16.7826 30.8849L19.5551 30.8848Z" fill="#232222" stroke="#232222" stroke-width="0.802063" stroke-linejoin="round"/>
<path d="M19.5814 26.1814L20.4971 26.9445L14.3356 10.1576L13.4757 9.39453L19.5814 26.1814Z" fill="#232222" stroke="#232222" stroke-width="0.802063" stroke-linejoin="round"/>
<path d="M19.5803 30.8858L20.496 31.6488L32.3945 1.76304L31.6618 1L19.5803 30.8858Z" fill="#232222" stroke="#232222" stroke-width="0.802063" stroke-linejoin="round"/>
<path d="M19.735 30.8817L31.6454 1.02148H29.7353L19.4019 25.8408L13.3329 9.34594H8.87988L16.7872 30.8798L19.735 30.8817Z" fill="#FF6F23" stroke="#232222" stroke-width="0.802063" stroke-linejoin="round"/>
<path d="M11.6956 30.8858L12.6112 31.6488L24.5098 1.76304L23.777 1L11.6956 30.8858Z" fill="#232222" stroke="#232222" stroke-width="0.802063" stroke-linejoin="round"/>
<path d="M11.6957 26.1814L12.6113 26.9445L6.44985 10.1576L5.58991 9.39453L11.6957 26.1814Z" fill="#232222" stroke="#232222" stroke-width="0.802063" stroke-linejoin="round"/>
<path d="M11.8558 30.8817L23.7661 1.02148H21.8548L11.5214 25.8408L5.45233 9.34594H1L8.9079 30.8817H11.8558Z" fill="#FF6F23" stroke="#232222" stroke-width="0.802063" stroke-linejoin="round"/>
</svg>
