<svg width="207" height="192" viewBox="0 0 207 192" fill="none" xmlns="http://www.w3.org/2000/svg">
<path d="M53.4444 33.9631C52.5668 34.8696 54.6329 36.1328 56.2915 34.9973C57.9501 33.8619 64.223 31.0798 64.223 31.0798C64.223 31.0798 57.7693 29.5007 53.4444 33.9631Z" fill="#232222" stroke="#232222" stroke-linecap="round" stroke-linejoin="round"/>
<path d="M152.292 38.4011C152.292 38.4011 159.286 34.5993 161.099 33.4758C162.678 32.4971 167.391 35.5057 171.651 40.1345C175.561 44.3823 178.553 50.6865 177.54 51.8461C175.426 54.2666 170.831 59.5317 170.831 59.5317L152.292 38.4035V38.4011Z" fill="#FF6F23" stroke="#232222" stroke-linejoin="round"/>
<path d="M104.654 27.3586L101.224 11.334C101.224 11.334 120.23 12.7178 126.783 33.94" fill="#FF6F23"/>
<path d="M104.654 27.3586L101.224 11.334C101.224 11.334 120.23 12.7178 126.783 33.94" stroke="#232222" stroke-linejoin="round"/>
<path d="M39.6559 135.527L30.7095 170.407L58.6096 177.613L78.2697 140.19" fill="#FF6F23"/>
<path d="M39.6559 135.527L30.7095 170.407L58.6096 177.613L78.2697 140.19" stroke="#232222" stroke-linejoin="round"/>
<path d="M130.887 154.109C171.229 134.406 190.985 91.9222 175.013 59.2177C159.04 26.5131 113.388 15.9728 73.0462 35.6752C32.7039 55.3777 12.9481 97.8619 28.9204 130.566C44.8926 163.271 90.5446 173.811 130.887 154.109Z" fill="#FF6F23" stroke="#232222" stroke-linejoin="round"/>
<path d="M11.8143 93.1987C10.0761 97.9624 13.5477 105.961 20.4233 104.628C27.3013 103.295 27.5834 89.4957 21.795 89.973C16.0067 90.4504 17.716 107.309 26.0549 107.28C33.3138 107.256 35.4016 97.9986 35.4016 97.9986" stroke="#232222" stroke-miterlimit="10"/>
<path d="M72.5129 148.375L68.5303 179.221L96.3919 186.994L116.356 150.496" fill="#FF6F23"/>
<path d="M72.5129 148.375L68.5303 179.221L96.3919 186.994L116.356 150.496" stroke="#232222" stroke-linejoin="round"/>
<path d="M96.4086 186.916C97.131 184.3 91.4753 180.456 83.7762 178.33C76.0772 176.203 69.2502 176.6 68.5278 179.215C67.8054 181.831 73.4611 185.675 81.1602 187.801C88.8592 189.928 95.6862 189.531 96.4086 186.916Z" fill="#232222" stroke="#232222" stroke-linecap="round" stroke-linejoin="round"/>
<path d="M58.538 177.998C59.2604 175.382 53.6047 171.538 45.9056 169.412C38.2065 167.285 31.3796 167.682 30.6572 170.297C29.9348 172.913 35.5905 176.757 43.2895 178.884C50.9886 181.01 57.8156 180.613 58.538 177.998Z" fill="#232222" stroke="#232222" stroke-linecap="round" stroke-linejoin="round"/>
<path d="M74.5631 54.5007C72.8539 57.1502 82.7237 59.1391 83.7507 57.0658C84.7777 54.9925 77.5139 49.9298 74.5631 54.5007Z" fill="#5D766F" stroke="#232222" stroke-linejoin="round"/>
<path d="M163.701 119.088L199.18 110.901C201.271 111.301 204.065 105.891 205.417 98.8178C206.77 91.7445 206.172 85.6862 204.079 85.286L172.635 81.2383" fill="#FF6F23"/>
<path d="M163.701 119.088L199.18 110.901C201.271 111.301 204.065 105.891 205.417 98.8178C206.77 91.7445 206.172 85.6862 204.079 85.286L172.635 81.2383" stroke="#232222" stroke-linejoin="round"/>
<path d="M120.732 28.7931L116.139 9.92383C116.139 9.92383 143.444 18.6437 140.522 42.0549" fill="#FF6F23"/>
<path d="M120.732 28.7931L116.139 9.92383C116.139 9.92383 143.444 18.6437 140.522 42.0549" stroke="#232222" stroke-linejoin="round"/>
<path d="M82.883 63.2892C82.883 63.2892 80.6964 59.1643 81.4799 56.6884L84.6935 52.0693L79.3246 50.7988L77.6829 53.4579C77.208 54.2246 76.5908 54.8924 75.8603 55.4227L74.5199 56.3967C71.6583 58.0698 75.7567 62.5828 79.8381 66.7125C83.2157 70.131 85.7566 68.0891 82.883 63.2892Z" fill="#F8F2E9" stroke="#232222" stroke-linecap="round" stroke-linejoin="round"/>
<path d="M74.7457 12.9055C78.0871 13.2092 81.8021 5.5188 77.8147 2.36788C74.4613 -0.281584 71.1802 0.841847 69.9603 4.21696C68.7404 7.59208 70.4135 12.5125 74.7433 12.9055H74.7457Z" fill="#F8F2E9" stroke="#232222" stroke-linecap="round" stroke-linejoin="round"/>
<path d="M76.4181 1.42448C76.4181 1.42448 78.2744 3.03489 76.9726 5.22389C74.8752 8.7533 73.4938 7.49728 72.1871 10.2215C70.4393 13.8618 62.6814 20.0527 60.7648 19.1679C59.7546 18.7003 60.7768 16.9982 60.7768 16.9982C60.7768 16.9982 56.6206 22.0464 55.1356 21.2051C53.6505 20.3637 57.5656 16.2051 57.5656 16.2051C57.5656 16.2051 55.1524 17.0561 55.2489 16.0532C55.4538 13.9004 62.6669 10.3059 65.1018 7.08744C68.9446 2.0103 72.2161 -0.634345 76.4157 1.42448H76.4181Z" fill="#232222" stroke="#232222" stroke-linecap="round" stroke-linejoin="round"/>
<path d="M91.2936 34.75C89.4517 31.8209 84.1528 31.7365 71.1803 31.6377L73.4416 29.3715C73.4416 29.3715 64.4831 28.4747 60.2112 29.9501C56.648 31.1821 54.7579 32.6647 54.7579 32.6647C54.5844 33.5109 54.5289 34.3233 54.5699 35.0948H54.5675C54.5675 35.0948 53.7382 42.3706 58.3934 44.7356L61.4865 42.6141L64.2227 42.3079C72.6677 41.8402 81.1706 41.2086 81.1706 41.2086L74.5651 54.5017C74.5651 54.5017 75.9609 52.0355 80.3341 53.4651C84.7049 54.8947 83.7526 57.0668 83.7526 57.0668C90.8669 42.6623 93.5211 38.2867 91.296 34.75H91.2936Z" fill="#B1C6C3" stroke="#232222" stroke-linecap="round" stroke-linejoin="round"/>
<path d="M53.4434 33.9638C60.5673 26.7555 67.7611 34.1157 73.2529 31.6639C73.2529 31.6639 74.9043 22.8814 78.8267 17.5945C78.8267 17.5945 82.1487 12.0931 78.1444 10.9335C74.5499 9.892 67.5803 11.3626 61.3194 19.364C55.8927 26.2999 53.4434 33.9662 53.4434 33.9662V33.9638Z" fill="#F8F2E9" stroke="#232222" stroke-linecap="round" stroke-linejoin="round"/>
<path d="M74.5199 56.3981C75.9471 55.5567 81.1882 59.7901 82.3189 62.0659C83.4495 64.3417 85.0141 66.8344 83.6062 68.1676C82.1983 69.5008 78.2253 65.2433 76.762 63.4593C75.2986 61.6753 71.8946 57.9458 74.5199 56.3981Z" fill="#232222" stroke="#232222" stroke-linecap="round" stroke-linejoin="round"/>
<path d="M74.9795 5.10484C73.5909 4.55277 72.3446 8.25334 73.8296 8.68005C75.3147 9.10676 76.8431 5.84495 74.9795 5.10484Z" fill="#F8F2E9" stroke="#232222" stroke-linecap="round" stroke-linejoin="round"/>
<path d="M74.4601 7.37551C74.4601 7.37551 78.4572 7.86732 79.3926 4.86105C80.2074 2.24293 77.435 1.07851 73.7007 2.00425L76.3357 3.79066C76.3357 3.79066 75.8053 6.86201 74.4601 7.37551Z" fill="#232222" stroke="#232222" stroke-linecap="round" stroke-linejoin="round"/>
<path d="M92.3516 30.6834C92.3516 30.6834 98.0169 32.4529 99.3115 32.9785C100.606 33.504 101.187 33.2533 102.477 32.2022C103.829 31.1004 104.348 30.6472 104.348 30.6472C104.348 30.6472 106.382 30.1578 107.074 30.0059C107.658 29.8782 107.595 28.9958 106.828 29.0971C106.122 29.1911 104.295 29.5792 104.295 29.5792C104.295 29.5792 106.85 28.6655 107.443 28.492C108.125 28.2919 107.843 27.2046 106.915 27.5084C105.985 27.8145 104.087 28.4172 104.087 28.4172C104.087 28.4172 106.455 27.207 106.975 26.9491C107.496 26.6911 107.26 25.7292 106.44 26.0064C105.621 26.2861 103.709 27.3589 103.709 27.3589C103.709 27.3589 105.047 26.626 105.637 26.3222C106.435 25.9124 105.946 25.0831 105.15 25.4905C104.222 25.9654 102.226 26.8574 102.226 26.8574L99.7334 29.0874L93.9475 26.9732L92.3516 30.6786V30.6834Z" fill="#F8F2E9" stroke="#232222" stroke-linecap="round" stroke-linejoin="round"/>
<path d="M78.1431 10.9316C78.1431 10.9316 81.1397 11.1438 84.1846 18.2171C85.9517 22.3227 86.8485 24.0295 86.8485 24.0295L99.6739 28.3304C99.6739 28.3304 100.932 31.6283 97.6344 34.1018L81.8268 30.2759L74.6089 18.6245" fill="#F8F2E9"/>
<path d="M78.1431 10.9316C78.1431 10.9316 81.1397 11.1438 84.1846 18.2171C85.9517 22.3227 86.8485 24.0295 86.8485 24.0295L99.6739 28.3304C99.6739 28.3304 100.932 31.6283 97.6344 34.1018L81.8268 30.2759L74.6089 18.6245" stroke="#232222" stroke-linecap="round" stroke-linejoin="round"/>
<path d="M153.14 40.75C153.14 40.75 157.988 43.3995 156.09 44.6459C154.427 45.7404 149.786 43.0258 149.786 43.0258" stroke="#232222" stroke-linejoin="round"/>
</svg>
