<svg width="368" height="295" viewBox="0 0 368 295" fill="none" xmlns="http://www.w3.org/2000/svg">
<g clip-path="url(#clip0_18485_49622)">
<path d="M51.0801 133.8C51.0801 133.8 28.8601 148.96 15.5001 136C10.1601 130.82 19.1501 113.59 29.5001 117.03C39.8501 120.47 21.3301 145.16 0.620117 138.54" stroke="#232222" stroke-width="1.24" stroke-linecap="round" stroke-linejoin="round"/>
<path d="M86.0597 220.08L28.2397 240.07L43.1097 278.21L112.17 268.53" fill="#FF6F23"/>
<path d="M86.0597 220.08L28.2397 240.07L43.1097 278.21L112.17 268.53" stroke="#232222" stroke-width="1.24" stroke-linejoin="round"/>
<path d="M29.2499 261.64C25.1399 251.11 24.6899 241.45 28.2299 240.07C31.7799 238.69 37.9799 246.1 42.0899 256.64C46.1999 267.17 46.6499 276.83 43.1099 278.21C39.5599 279.59 33.3599 272.18 29.2499 261.64Z" fill="#232222" stroke="#232222" stroke-width="1.24" stroke-linejoin="round"/>
<path d="M303.92 220.08L361.75 240.07L346.87 278.21L277.81 268.53" fill="#FF6F23"/>
<path d="M303.92 220.08L361.75 240.07L346.87 278.21L277.81 268.53" stroke="#232222" stroke-width="1.24" stroke-linejoin="round"/>
<path d="M360.73 261.64C364.84 251.11 365.29 241.45 361.75 240.07C358.2 238.69 352 246.1 347.89 256.64C343.78 267.17 343.33 276.83 346.87 278.21C350.42 279.59 356.62 272.18 360.73 261.64Z" fill="#232222" stroke="#232222" stroke-width="1.24" stroke-linejoin="round"/>
<path d="M315.6 129.869C305.12 126.799 298.8 127.869 295.17 129.579C294.77 129.769 294.33 129.839 293.89 129.789C293.45 129.739 293.04 129.559 292.7 129.279C292.36 128.999 292.11 128.629 291.97 128.209C291.83 127.789 291.82 127.339 291.93 126.909C295.88 108.739 305.06 97.8591 314.41 92.8991C317.17 91.4491 320.4 91.1491 323.38 92.0691C326.36 92.9891 328.86 95.0491 330.33 97.8091C342.21 119.709 340.52 139.159 339.11 146.909C339.11 146.909 329.96 134.099 315.61 129.889L315.6 129.869Z" fill="#FF6F23" stroke="#232222" stroke-width="1.24" stroke-linejoin="round"/>
<path d="M173.48 49.1807C261.88 41.3707 338.37 89.7407 344.33 157.211C350.29 224.681 283.46 285.701 195.06 293.501C106.66 301.301 40.04 252.071 34.08 184.601C28.11 117.131 85.08 57.0007 173.48 49.1807Z" fill="#FF6F23" stroke="#232222" stroke-width="1.24" stroke-linejoin="round"/>
<path d="M327.92 156.641C329.29 172.141 335.31 184.301 341.38 183.771L358.88 182.221L353.92 126.051L336.42 127.601C330.39 128.131 326.55 141.141 327.93 156.641H327.92Z" fill="#FF6F23" stroke="#232222" stroke-width="1.24" stroke-linejoin="round"/>
<path d="M358.6 182.371C364.66 181.831 368.46 168.831 367.09 153.311C365.72 137.801 359.7 125.661 353.64 126.191C347.58 126.721 343.78 139.731 345.15 155.251C346.52 170.761 352.54 182.901 358.6 182.371Z" fill="#FF6F23" stroke="#232222" stroke-width="1.24" stroke-linejoin="round"/>
<path d="M362.74 162.46C363.68 162.38 364.27 160.36 364.05 157.96C363.84 155.56 362.91 153.68 361.97 153.76C361.03 153.84 360.44 155.86 360.66 158.26C360.87 160.66 361.8 162.54 362.74 162.46Z" fill="#232222" stroke="#232222" stroke-width="1.24" stroke-linejoin="round"/>
<path d="M353.36 154.531C354.3 154.451 354.89 152.431 354.67 150.031C354.46 147.631 353.53 145.751 352.59 145.831C351.65 145.911 351.06 147.931 351.28 150.331C351.49 152.731 352.42 154.611 353.36 154.531Z" fill="#232222" stroke="#232222" stroke-width="1.24" stroke-linejoin="round"/>
<path d="M170.85 79.8203L159.88 86.9703C159.88 86.9703 154.91 86.1803 153.17 88.2203C150.38 91.5103 152.23 110.71 158.19 111.66C163.79 112.55 162.87 100.2 163.2 97.1803C163.53 94.1603 167.19 93.3103 178.45 88.1003L170.84 79.8303L170.85 79.8203Z" fill="#F8F2E9" stroke="#232222" stroke-width="1.24" stroke-linejoin="round"/>
<path d="M180.68 42.5509L197.73 62.1509C199.66 64.3709 200.7 67.2109 200.65 70.1509C200.6 73.0909 198.91 76.9609 195.73 79.0909L167.76 95.7609C167.76 95.7609 163.96 98.1509 160.68 91.5309C157.4 84.9109 160.27 80.6909 160.27 80.6909L181.11 68.5709C181.11 68.5709 160.4 58.5109 157.5 50.1209C154.9 42.1209 158.86 36.1009 164.64 34.1109L175.11 32.6309L180.69 42.5609" fill="#B1C6C3"/>
<path d="M180.68 42.5509L197.73 62.1509C199.66 64.3709 200.7 67.2109 200.65 70.1509C200.6 73.0909 198.91 76.9609 195.73 79.0909L167.76 95.7609C167.76 95.7609 163.96 98.1509 160.68 91.5309C157.4 84.9109 160.27 80.6909 160.27 80.6909L181.11 68.5709C181.11 68.5709 160.4 58.5109 157.5 50.1209C154.9 42.1209 158.86 36.1009 164.64 34.1109L175.11 32.6309L180.69 42.5609" stroke="#232222" stroke-width="1.24" stroke-linejoin="round"/>
<path d="M236.01 49.6399L217.12 38.9899L214.27 21.5799C212.88 16.5999 203.68 13.2099 194.65 14.7799C171.02 18.8899 155.63 34.1499 155.63 34.1499C155.63 34.1499 156.9 42.3099 169.09 42.9899C183.03 43.7699 187.41 50.2799 187.41 50.2799C187.41 50.2799 195.32 47.0999 202.92 42.9599L204.49 48.7299L234.74 54.2399C234.74 54.2399 237.25 54.9299 236.01 49.6499V49.6399Z" fill="#F8F2E9" stroke="#232222" stroke-width="1.24" stroke-linejoin="round"/>
<path d="M204 23.9902C203.19 20.8402 202.9 17.3602 202.9 17.3602L207.71 14.4702C207.71 14.4702 207.18 8.65021 209.26 5.43021C212.83 -0.0997891 224.37 -0.279789 226.27 6.56021C228.89 15.9802 225.22 25.6302 219.79 26.2502C218.4 26.4102 217.18 26.0902 216.22 25.6702L210.43 28.2102C208.83 28.9102 206.96 28.5602 205.77 27.2802C205.06 26.5202 204.39 25.4602 204.01 23.9902H204Z" fill="#F8F2E9" stroke="#232222" stroke-width="1.24" stroke-linejoin="round"/>
<path d="M156.49 86.8791C156.49 86.8791 155.55 93.2691 157.26 102.449C158.23 107.679 162.1 109.059 162.83 105.679C162.83 105.679 162.22 112.269 158.71 112.219C154.7 112.159 152.49 106.919 152.04 97.7991C151.77 92.2191 150.97 86.4791 156.49 86.8791Z" fill="#232222" stroke="#232222" stroke-width="1.24" stroke-linejoin="round"/>
<path d="M213.66 21.9492C213.66 21.9492 214.32 24.6592 216.2 25.6692Z" fill="#F8F2E9"/>
<path d="M213.66 21.9492C213.66 21.9492 214.32 24.6592 216.2 25.6692" stroke="#232222" stroke-width="1.24" stroke-linecap="round" stroke-linejoin="round"/>
<path d="M293.03 190.42L350.86 210.42L335.98 248.55L266.93 238.88" fill="#FF6F23"/>
<path d="M293.03 190.42L350.86 210.42L335.98 248.55L266.93 238.88" stroke="#232222" stroke-width="1.24" stroke-linejoin="round"/>
<path d="M349.84 231.989C353.95 221.459 354.4 211.799 350.86 210.419C347.31 209.039 341.11 216.449 337 226.989C332.89 237.519 332.44 247.179 335.98 248.559C339.53 249.939 345.73 242.529 349.84 231.989Z" fill="#232222" stroke="#232222" stroke-width="1.24" stroke-linejoin="round"/>
<path d="M63.2001 190.42L5.37012 210.42L20.2501 248.55L89.3101 238.88" fill="#FF6F23"/>
<path d="M63.2001 190.42L5.37012 210.42L20.2501 248.55L89.3101 238.88" stroke="#232222" stroke-width="1.24" stroke-linejoin="round"/>
<path d="M6.39006 231.989C2.28006 221.459 1.83006 211.799 5.37006 210.419C8.92006 209.039 15.1201 216.449 19.2301 226.989C23.3401 237.519 23.7901 247.179 20.2501 248.559C16.7001 249.939 10.5001 242.529 6.39006 231.989Z" fill="#232222" stroke="#232222" stroke-width="1.24" stroke-linejoin="round"/>
<path d="M227.89 7.55986C226.62 2.10986 216.2 -2.79014 208.15 3.77986C202.67 8.24986 198.73 8.76986 192.54 7.60986C183.1 5.83986 177.51 8.56986 177.51 8.56986L183.5 10.1999C178.05 9.65986 170.15 14.2899 170.15 14.2899C172.8 13.7399 179.99 13.9699 187.67 16.3799C191.26 15.4499 201.94 13.4499 205.69 21.2499C207.29 21.1499 208.75 20.7399 210.07 19.8699C214.93 16.6799 217.61 9.05986 217.61 9.05986L218.52 15.5399C222.2 13.6099 224.31 8.14986 224.31 8.14986C227.22 8.96986 227.22 14.0099 227.22 14.0099C227.22 14.0099 229 12.2599 227.91 7.55986H227.89Z" fill="#232222" stroke="#232222" stroke-width="1.24" stroke-linejoin="round"/>
<path d="M294.64 107.09C294.64 107.09 304.28 114.21 307.33 112.71C310.38 111.21 307.77 105.27 307.77 105.27" fill="#FF6F23"/>
<path d="M294.64 107.09C294.64 107.09 304.28 114.21 307.33 112.71C310.38 111.21 307.77 105.27 307.77 105.27" stroke="#232222" stroke-width="1.24" stroke-linecap="round" stroke-linejoin="round"/>
<path d="M227.91 51.5495L234.17 48.8295C236.22 47.9395 238.6 48.7095 239.75 50.6195L242.87 55.8095L240.03 57.9495C238.87 58.8295 237.26 58.8095 236.11 57.8995L234.02 56.2395C234.02 56.2395 226.63 60.4595 224.81 57.9695L211.99 52.2795L216.39 47.2695L227.91 51.5395V51.5495Z" fill="#F8F2E9" stroke="#232222" stroke-width="1.24" stroke-linejoin="round"/>
<path d="M192.1 31.0394L194.66 47.2794C195.06 49.8294 196.79 51.9694 199.2 52.8994L221.31 62.3894C228.3 59.3894 227.39 51.1394 227.39 51.1394L208.33 41.3694C208.33 41.3694 207.85 38.0694 206.71 24.4294C206.22 18.5494 201.46 16.6894 201.46 16.6894C198.41 14.9294 188.18 14.7294 178.67 19.4794" fill="#F8F2E9"/>
<path d="M192.1 31.0394L194.66 47.2794C195.06 49.8294 196.79 51.9694 199.2 52.8994L221.31 62.3894C228.3 59.3894 227.39 51.1394 227.39 51.1394L208.33 41.3694C208.33 41.3694 207.85 38.0694 206.71 24.4294C206.22 18.5494 201.46 16.6894 201.46 16.6894C198.41 14.9294 188.18 14.7294 178.67 19.4794" stroke="#232222" stroke-width="1.24" stroke-linecap="round" stroke-linejoin="round"/>
<path d="M239.84 70.1509C239.06 50.2409 245.74 36.4709 254.17 28.8109C256.67 26.5609 259.96 25.3809 263.32 25.5209C266.68 25.6609 269.86 27.1209 272.16 29.5809C290.52 49.0909 294 69.7009 294.64 78.1409C294.64 78.1409 281.56 67.3209 265.43 66.8409" fill="#FF6F23"/>
<path d="M239.84 70.1509C239.06 50.2409 245.74 36.4709 254.17 28.8109C256.67 26.5609 259.96 25.3809 263.32 25.5209C266.68 25.6609 269.86 27.1209 272.16 29.5809C290.52 49.0909 294 69.7009 294.64 78.1409C294.64 78.1409 281.56 67.3209 265.43 66.8409" stroke="#232222" stroke-width="1.24" stroke-linecap="round" stroke-linejoin="round"/>
</g>
<defs>
<clipPath id="clip0_18485_49622">
<rect width="367.99" height="294.93" fill="white"/>
</clipPath>
</defs>
</svg>
