<svg width="632" height="476" viewBox="0 0 632 476" fill="none" xmlns="http://www.w3.org/2000/svg">
<rect width="632" height="476" rx="10" fill="#F6D8BA"/>
<path d="M141.916 92.77C134.491 92.77 127.561 86.94 127.561 72.75C127.561 58.56 134.491 52.73 141.916 52.73C149.341 52.73 156.271 58.505 156.271 72.75C156.271 86.995 149.396 92.77 141.916 92.77ZM133.996 72.75C133.996 86.61 137.186 91.615 141.916 91.615C146.701 91.615 149.891 86.61 149.891 72.75C149.891 58.89 146.701 53.83 141.916 53.83C137.186 53.83 133.996 58.89 133.996 72.75ZM170.316 92.77C162.726 92.77 157.996 87.82 157.996 78.25C157.996 68.68 162.726 63.73 170.316 63.73C177.906 63.73 182.636 68.625 182.636 78.25C182.636 87.82 177.906 92.77 170.316 92.77ZM164.211 78.25C164.211 87.27 165.971 91.615 170.316 91.615C174.661 91.615 176.421 87.27 176.421 78.25C176.421 69.23 174.661 64.83 170.316 64.83C165.971 64.83 164.211 69.23 164.211 78.25ZM196.931 92.77C189.341 92.77 184.611 87.82 184.611 78.25C184.611 68.68 189.341 63.73 196.931 63.73C204.521 63.73 209.251 68.625 209.251 78.25C209.251 87.82 204.521 92.77 196.931 92.77ZM190.826 78.25C190.826 87.27 192.586 91.615 196.931 91.615C201.276 91.615 203.036 87.27 203.036 78.25C203.036 69.23 201.276 64.83 196.931 64.83C192.586 64.83 190.826 69.23 190.826 78.25ZM212.293 70.605C212.293 66.92 211.798 66.535 209.598 65.985V65.435H213.118C214.713 65.38 216.033 65.05 217.188 63.73H217.738V67.8C219.883 65.215 222.303 63.73 225.713 63.73C230.443 63.73 234.733 67.745 234.733 77.37C234.733 87.05 229.563 92.77 224.118 92.77C221.203 92.77 219.223 91.78 217.738 89.58V97.83C217.738 101.515 218.233 101.9 220.378 102.45V103H209.598V102.45C211.798 101.9 212.293 101.515 212.293 97.83V70.605ZM217.738 82.32C217.793 88.535 220.488 91.175 222.908 91.175C226.813 91.175 228.573 87.105 228.573 78.195C228.573 69.395 226.758 65.93 223.238 65.93C221.588 65.93 219.993 66.645 217.738 69.065V82.32ZM237.593 81.275C239.518 90.13 242.653 91.615 246.118 91.615C248.978 91.615 250.133 90.075 250.133 87.985C250.133 84.96 247.933 82.705 244.028 79.185C239.848 75.885 237.153 73.355 237.153 69.395C237.153 65.325 240.893 63.73 245.238 63.73C248.648 63.73 250.243 64.665 253.158 64.665L254.643 74.235H253.543C251.563 65.985 249.033 64.83 246.118 64.83C243.808 64.83 242.708 65.93 242.708 67.58C242.708 70.165 245.018 72.53 249.033 75.995C252.718 79.02 255.633 81.935 255.633 86.17C255.633 90.79 252.058 92.77 246.943 92.77C242.983 92.77 240.618 91.835 237.703 91.835L236.493 81.275H237.593ZM257.485 98.545C260.015 95.3 260.51 94.53 260.51 93.43C260.51 91.285 256.99 91.89 256.99 88.975C256.99 87.215 258.365 86.115 260.015 86.115C261.885 86.115 263.26 87.325 263.26 89.69C263.26 93.265 261.005 96.18 258.31 99.315L257.485 98.545ZM297.73 53.5L299.215 67.195H298.115C296.135 55.755 294.705 54.6 291.35 54.6H288.875V86.83C288.875 90.515 289.315 90.9 291.35 91.45V92H280.79V91.45C282.825 90.9 283.265 90.515 283.265 86.83V54.6H280.79C277.435 54.6 276.06 55.755 274.025 67.195H272.925L274.41 53.5H297.73ZM302.13 59.605C302.13 55.92 301.635 55.535 299.435 54.985V54.435H302.955C304.55 54.38 305.87 54.05 307.025 52.73H307.575V68.075C309.665 65.93 312.47 63.73 316.045 63.73C320.445 63.73 323.14 66.15 323.14 71.87V86.83C323.14 90.515 323.635 90.9 325.78 91.45V92H315V91.45C317.2 90.9 317.695 90.515 317.695 86.83V70.55C317.695 67.415 316.595 65.71 314.285 65.71C312.085 65.71 309.83 67.195 307.575 69.45V86.83C307.575 90.515 308.07 90.9 310.215 91.45V92H299.435V91.45C301.635 90.9 302.13 90.515 302.13 86.83V59.605ZM345.479 92.715C344.324 92.715 343.609 92 343.609 90.13V88.59C342.069 91.175 339.539 92.77 336.239 92.77C330.739 92.77 326.284 89.25 326.284 81.55C326.284 73.905 330.739 70.44 336.294 70.44C339.594 70.44 342.069 71.925 343.609 74.565V73.3C343.609 66.865 342.179 64.83 338.439 64.83C335.799 64.83 332.114 65.985 328.869 70.385H327.714L330.629 64.72C333.379 64.72 335.964 63.73 339.154 63.73C345.259 63.73 349.109 66.645 349.109 73.41V86.17C349.109 89.855 349.109 90.02 351.969 89.195L352.189 89.635L348.064 91.835C346.964 92.385 346.249 92.715 345.479 92.715ZM332.389 81.55C332.389 87.435 334.644 90.68 337.944 90.68C341.134 90.68 343.609 87.655 343.609 81.55C343.609 75.5 341.134 72.475 337.999 72.475C334.644 72.475 332.389 75.665 332.389 81.55ZM350.133 64.5C355.578 64.225 357.393 61.97 358.438 56.25H359.043V64.5H364.433V65.6C359.703 65.6 359.043 66.315 359.043 68.735V84.685C359.043 87.985 359.208 89.36 360.638 89.36C361.958 89.36 363.003 86.94 363.993 81.77L364.983 82.1C363.608 89.085 362.453 92.77 358.218 92.77C354.863 92.77 353.543 90.46 353.543 85.345V68.735C353.543 66.315 353.268 65.6 350.133 65.6V64.5ZM363.893 65.105C366.423 61.86 366.918 61.09 366.918 59.99C366.918 57.845 363.398 58.45 363.398 55.535C363.398 53.775 364.773 52.675 366.423 52.675C368.293 52.675 369.668 53.885 369.668 56.25C369.668 59.825 367.413 62.74 364.718 65.875L363.893 65.105ZM368.602 81.275C370.527 90.13 373.662 91.615 377.127 91.615C379.987 91.615 381.142 90.075 381.142 87.985C381.142 84.96 378.942 82.705 375.037 79.185C370.857 75.885 368.162 73.355 368.162 69.395C368.162 65.325 371.902 63.73 376.247 63.73C379.657 63.73 381.252 64.665 384.167 64.665L385.652 74.235H384.552C382.572 65.985 380.042 64.83 377.127 64.83C374.817 64.83 373.717 65.93 373.717 67.58C373.717 70.165 376.027 72.53 380.042 75.995C383.727 79.02 386.642 81.935 386.642 86.17C386.642 90.79 383.067 92.77 377.952 92.77C373.992 92.77 371.627 91.835 368.712 91.835L367.502 81.275H368.602ZM398.923 59.605C398.923 55.92 398.428 55.535 396.228 54.985V54.435H399.748C401.343 54.38 402.663 54.05 403.818 52.73H404.368V68.075C406.458 65.93 409.263 63.73 412.838 63.73C417.238 63.73 419.933 66.15 419.933 71.87V86.83C419.933 90.515 420.428 90.9 422.573 91.45V92H411.793V91.45C413.993 90.9 414.488 90.515 414.488 86.83V70.55C414.488 67.415 413.388 65.71 411.078 65.71C408.878 65.71 406.623 67.195 404.368 69.45V86.83C404.368 90.515 404.863 90.9 407.008 91.45V92H396.228V91.45C398.428 90.9 398.923 90.515 398.923 86.83V59.605ZM428.772 63.675H429.322V86.005C429.322 89.14 430.367 90.845 432.732 90.845C434.877 90.845 437.132 89.47 439.387 87.16V70.495C439.387 66.81 438.892 66.425 436.747 65.875V65.325H440.212C441.862 65.27 443.182 64.94 444.337 63.675H444.887V85.785C444.887 89.47 445.327 89.855 447.527 90.405V90.955H444.007C442.412 91.065 441.092 91.395 439.937 92.66H439.387V88.48C437.352 90.625 434.492 92.825 430.972 92.825C426.517 92.825 423.822 90.405 423.822 84.685V70.495C423.822 66.81 423.327 66.425 421.127 65.875V65.325H424.647C426.297 65.27 427.617 64.995 428.772 63.675ZM463.186 71.32C460.546 71.32 460.821 67.635 459.776 67.085C459.446 66.865 458.621 67.58 456.201 70V86.83C456.201 90.515 457.026 90.9 460.766 91.45V92H448.061V91.45C450.261 90.9 450.756 90.515 450.756 86.83V70.605C450.756 66.92 450.261 66.535 448.061 65.985V65.435H451.581C453.231 65.38 454.496 65.05 455.651 63.73H456.201V68.515C459.006 65.71 460.931 63.73 462.581 63.73C464.561 63.73 464.176 66.26 465.496 66.26C465.881 66.26 466.266 66.04 466.981 65.6L467.366 66.37C466.596 69.56 465.056 71.32 463.186 71.32ZM467.043 64.5C472.488 64.225 474.303 61.97 475.348 56.25H475.953V64.5H481.343V65.6C476.613 65.6 475.953 66.315 475.953 68.735V84.685C475.953 87.985 476.118 89.36 477.548 89.36C478.868 89.36 479.913 86.94 480.903 81.77L481.893 82.1C480.518 89.085 479.363 92.77 475.128 92.77C471.773 92.77 470.453 90.46 470.453 85.345V68.735C470.453 66.315 470.178 65.6 467.043 65.6V64.5ZM485.586 92.77C483.716 92.77 482.341 91.285 482.341 89.415C482.341 87.545 483.716 86.115 485.586 86.115C487.456 86.115 488.776 87.545 488.776 89.415C488.776 91.285 487.456 92.77 485.586 92.77ZM492.919 92.77C491.049 92.77 489.674 91.285 489.674 89.415C489.674 87.545 491.049 86.115 492.919 86.115C494.789 86.115 496.109 87.545 496.109 89.415C496.109 91.285 494.789 92.77 492.919 92.77ZM500.252 92.77C498.382 92.77 497.007 91.285 497.007 89.415C497.007 87.545 498.382 86.115 500.252 86.115C502.122 86.115 503.442 87.545 503.442 89.415C503.442 91.285 502.122 92.77 500.252 92.77Z" fill="#232222"/>
<path d="M259.064 138.6H265.328C268.568 138.6 271.448 139.44 271.448 142.896C271.448 144.552 270.728 146.04 269.528 146.736C271.184 147.432 272.168 148.728 272.168 150.864C272.168 154.56 269.408 156 265.928 156H259.064V138.6ZM261.512 146.04H265.712C267.704 146.04 268.976 145.272 268.976 143.232C268.976 141.456 267.656 140.664 265.712 140.664H261.512V146.04ZM261.512 153.936H265.952C268.424 153.936 269.648 152.856 269.648 150.888C269.648 148.848 268.424 147.984 265.808 147.984H261.512V153.936ZM276.551 150.264C276.647 153.048 278.615 154.392 280.535 154.392C282.455 154.392 283.511 153.528 284.063 152.256H286.319C285.719 154.488 283.679 156.312 280.535 156.312C276.455 156.312 274.199 153.384 274.199 149.568C274.199 145.488 276.935 142.872 280.463 142.872C284.399 142.872 286.775 146.184 286.487 150.264H276.551ZM276.575 148.392H284.183C284.135 146.568 282.767 144.744 280.463 144.744C278.519 144.744 276.767 145.8 276.575 148.392ZM288.148 152.592C288.148 149.544 291.58 148.656 296.884 148.056V147.744C296.884 145.392 295.564 144.6 293.956 144.6C292.156 144.6 291.1 145.584 291.004 147.168H288.748C288.964 144.384 291.412 142.824 293.932 142.824C297.484 142.824 299.092 144.528 299.068 148.152L299.044 151.128C299.02 153.288 299.14 154.776 299.38 156H297.172C297.1 155.52 297.028 154.992 297.004 154.224C296.212 155.544 294.868 156.312 292.588 156.312C290.164 156.312 288.148 154.968 288.148 152.592ZM297.052 149.784C293.092 150.192 290.572 150.768 290.572 152.544C290.572 153.768 291.508 154.584 293.068 154.584C295.108 154.584 297.052 153.648 297.052 150.6V149.784ZM302.946 139.848H305.13V143.088H307.578V144.84H305.13V152.496C305.13 153.84 305.226 154.176 306.474 154.176H307.578V156H305.994C303.522 156 302.946 155.448 302.946 152.76V144.84H300.906V143.088H302.946V139.848ZM318.006 138.6V141.24H315.822V138.6H318.006ZM318.006 143.088V156H315.822V143.088H318.006ZM322.094 139.848H324.278V143.088H326.726V144.84H324.278V152.496C324.278 153.84 324.374 154.176 325.622 154.176H326.726V156H325.142C322.67 156 322.094 155.448 322.094 152.76V144.84H320.054V143.088H322.094V139.848ZM337.754 156H335.306V138.6H337.754V156ZM348.732 148.656C348.3 148.68 347.868 148.68 347.412 148.68H344.34V156H341.892V138.6H347.412C351.66 138.6 354.66 139.44 354.66 143.616C354.66 146.376 353.34 147.696 351.204 148.272L355.236 156H352.5L348.732 148.656ZM344.34 140.664V146.616H347.604C350.148 146.616 352.14 146.352 352.14 143.664C352.14 140.976 350.148 140.664 347.604 140.664H344.34ZM360.629 153.888H369.821V156H358.181V138.6H360.629V153.888ZM372.084 150.912L371.604 143.856V138.6H373.932V143.856L373.452 150.912H372.084ZM371.388 156V153.24H374.148V156H371.388Z" fill="#232222"/>
<rect x="176" y="191" width="280" height="63.8049" rx="7.0793" fill="#FF6F23"/>
<path d="M244.427 213.573H250.952C254.107 213.573 257.191 214.434 257.191 217.995C257.191 219.62 256.283 221.078 255.255 221.7C256.689 222.345 257.86 223.469 257.86 225.763C257.86 229.492 254.92 230.902 251.383 230.902H244.427V213.573ZM247.463 220.816H251.239C253.008 220.816 254.107 220.027 254.107 218.33C254.107 216.8 252.96 216.011 251.239 216.011H247.463V220.816ZM247.463 228.464H251.502C253.653 228.464 254.729 227.484 254.729 225.763C254.729 223.995 253.653 223.134 251.335 223.134H247.463V228.464ZM272.501 224.496C272.501 229.134 269.298 231.213 266.167 231.213C263.036 231.213 259.833 229.134 259.833 224.496C259.833 219.859 263.036 217.756 266.167 217.756C269.298 217.756 272.501 219.859 272.501 224.496ZM266.167 228.895C267.959 228.895 269.561 227.46 269.561 224.496C269.561 221.533 267.959 220.075 266.167 220.075C264.374 220.075 262.773 221.533 262.773 224.496C262.773 227.46 264.374 228.895 266.167 228.895ZM286.786 224.496C286.786 229.134 283.583 231.213 280.452 231.213C277.321 231.213 274.118 229.134 274.118 224.496C274.118 219.859 277.321 217.756 280.452 217.756C283.583 217.756 286.786 219.859 286.786 224.496ZM280.452 228.895C282.245 228.895 283.846 227.46 283.846 224.496C283.846 221.533 282.245 220.075 280.452 220.075C278.66 220.075 277.058 221.533 277.058 224.496C277.058 227.46 278.66 228.895 280.452 228.895ZM291.968 213.573V223.206L296.725 218.043H300.143L295.219 223.325L300.693 230.902H297.37L293.331 225.333L291.968 226.791V230.902H289.124V213.573H291.968ZM306.659 227.365C306.659 224.162 310.603 223.349 315.312 222.871V222.632C315.312 220.433 314.045 219.764 312.635 219.764C311.201 219.764 310.125 220.529 310.054 222.082H307.257C307.448 219.453 309.623 217.66 312.731 217.66C315.814 217.66 318.228 219.071 318.156 223.182C318.156 223.827 318.109 225.333 318.109 226.504C318.109 228.13 318.252 229.827 318.491 230.902H315.886C315.79 230.353 315.694 230.042 315.647 229.157C314.834 230.544 313.304 231.213 311.416 231.213C308.619 231.213 306.659 229.707 306.659 227.365ZM315.384 224.855C311.32 225.237 309.671 225.811 309.671 227.293C309.671 228.416 310.603 229.086 312.037 229.086C314.141 229.086 315.384 228.01 315.384 225.835V224.855ZM335.075 213.573H337.919V230.902H335.075V229.205C334.31 230.472 332.971 231.213 331.25 231.213C328.215 231.213 325.657 228.608 325.657 224.473C325.657 220.361 328.215 217.756 331.25 217.756C332.971 217.756 334.31 218.497 335.075 219.764V213.573ZM331.872 220.075C329.983 220.075 328.621 221.772 328.621 224.473C328.621 227.197 329.983 228.895 331.872 228.895C333.736 228.895 335.194 227.436 335.194 224.473C335.194 221.509 333.736 220.075 331.872 220.075ZM343.162 225.285C343.353 227.676 345.027 228.847 346.652 228.847C348.134 228.847 349.305 228.249 349.807 227.054H352.604C352.006 229.11 350.094 231.213 346.771 231.213C342.636 231.213 340.27 228.058 340.27 224.377C340.27 220.505 342.923 217.756 346.58 217.756C350.524 217.756 352.986 220.959 352.747 225.285H343.162ZM343.162 223.206H349.855C349.783 221.198 348.253 219.979 346.58 219.979C345.242 219.979 343.401 220.768 343.162 223.206ZM357.933 230.902H355.089V218.043H357.933V219.836C358.674 218.497 359.941 217.756 361.662 217.756C363.646 217.756 364.817 218.593 365.415 220.027C366.514 218.401 368.02 217.756 369.598 217.756C372.633 217.756 373.805 219.764 373.805 222.823V230.902H370.96V223.516C370.96 221.772 370.793 220.075 368.69 220.075C366.586 220.075 365.869 221.748 365.869 224.066V230.902H363.025V223.516C363.025 221.772 362.857 220.075 360.754 220.075C358.651 220.075 357.933 221.748 357.933 224.066V230.902ZM388.582 224.496C388.582 229.134 385.379 231.213 382.248 231.213C379.116 231.213 375.914 229.134 375.914 224.496C375.914 219.859 379.116 217.756 382.248 217.756C385.379 217.756 388.582 219.859 388.582 224.496ZM382.248 228.895C384.04 228.895 385.642 227.46 385.642 224.496C385.642 221.533 384.04 220.075 382.248 220.075C380.455 220.075 378.854 221.533 378.854 224.496C378.854 227.46 380.455 228.895 382.248 228.895Z" fill="#F8F2E9"/>
<path d="M262 281.371V287.371M262 287.371H268M262 287.371L266.64 283.011C267.715 281.935 269.044 281.15 270.505 280.727C271.965 280.305 273.509 280.259 274.992 280.595C276.475 280.93 277.848 281.636 278.985 282.646C280.121 283.656 280.983 284.937 281.49 286.371M284 297.371V291.371M284 291.371H278M284 291.371L279.36 295.731C278.285 296.806 276.956 297.591 275.495 298.014C274.035 298.436 272.491 298.482 271.008 298.146C269.525 297.811 268.152 297.105 267.015 296.095C265.879 295.085 265.017 293.804 264.51 292.371" stroke="#FF6F23" stroke-width="1.8" stroke-linecap="square"/>
<path d="M297.276 284.229H293.172V282.321H303.666V284.229H299.562V295.371H297.276V284.229ZM308.896 287.865C308.536 287.829 308.194 287.811 307.87 287.811C306.52 287.811 305.746 288.351 305.746 290.295V295.371H303.604V285.687H305.71V287.415C306.232 286.335 307.168 285.687 308.338 285.669C308.5 285.669 308.734 285.687 308.896 285.705V287.865ZM310.223 298.521V296.883H311.033C311.969 296.883 312.365 296.811 312.797 295.551L312.905 295.317L309.395 285.687H311.735L313.931 292.635L316.127 285.687H318.323L314.921 295.353C314.021 297.855 313.373 298.521 311.195 298.521H310.223ZM327.333 282.321H329.745L334.641 295.371H332.139L331.113 292.473H325.821L324.813 295.371H322.473L327.333 282.321ZM326.487 290.565H330.429L328.449 284.967L326.487 290.565ZM342.181 285.687H344.323V294.399C344.323 295.983 343.927 297.099 343.153 297.819C342.379 298.539 341.227 298.863 339.715 298.863C337.591 298.863 335.899 298.017 335.575 295.893H337.699C337.897 296.793 338.491 297.171 339.769 297.171C340.723 297.171 341.335 296.901 341.695 296.469C342.055 296.055 342.181 295.461 342.181 294.831V293.697C341.605 294.651 340.597 295.209 339.301 295.209C337.015 295.209 335.089 293.355 335.089 290.331C335.089 287.307 337.015 285.471 339.301 285.471C340.597 285.471 341.605 286.029 342.181 286.983V285.687ZM339.769 287.181C338.347 287.181 337.321 288.387 337.321 290.331C337.321 292.311 338.347 293.517 339.769 293.517C341.173 293.517 342.271 292.509 342.271 290.331C342.271 288.171 341.173 287.181 339.769 287.181ZM346.148 292.707C346.148 290.295 349.118 289.683 352.664 289.323V289.143C352.664 287.487 351.71 286.983 350.648 286.983C349.568 286.983 348.758 287.559 348.704 288.729H346.598C346.742 286.749 348.38 285.399 350.72 285.399C353.042 285.399 354.86 286.461 354.806 289.557C354.806 290.043 354.77 291.177 354.77 292.059C354.77 293.283 354.878 294.561 355.058 295.371H353.096C353.024 294.957 352.952 294.723 352.916 294.057C352.304 295.101 351.152 295.605 349.73 295.605C347.624 295.605 346.148 294.471 346.148 292.707ZM352.718 290.817C349.658 291.105 348.416 291.537 348.416 292.653C348.416 293.499 349.118 294.003 350.198 294.003C351.782 294.003 352.718 293.193 352.718 291.555V290.817ZM359.114 282.321V284.481H356.972V282.321H359.114ZM359.114 285.687V295.371H356.972V285.687H359.114ZM363.666 287.037C364.224 286.029 365.25 285.471 366.6 285.471C368.94 285.471 369.894 286.983 369.894 289.287V295.371H367.752V289.809C367.752 288.495 367.554 287.217 365.916 287.217C364.278 287.217 363.666 288.477 363.666 290.223V295.371H361.524V285.687H363.666V287.037Z" fill="#FF6F23"/>
</svg>
