<svg width="632" height="476" viewBox="0 0 632 476" fill="none" xmlns="http://www.w3.org/2000/svg">
<g clip-path="url(#clip0_18365_40005)">
<rect width="632" height="476" rx="10" fill="#FFB772"/>
<path d="M400.355 322.036C410.04 323.27 410.873 333.185 410.873 333.185C410.873 333.185 422.775 327.185 429.121 337.495C434.162 345.717 430.424 358.561 419.296 362.466C408.167 366.371 404.953 357.889 404.953 357.889C404.953 357.889 403 368.913 392.037 370.115C384.526 370.937 380.46 364.407 380.46 364.407C380.46 364.407 378.172 377.508 366.209 378.301C355.082 379.038 355.391 367.015 355.391 367.015C355.391 367.015 350.603 375.979 340.792 376.472C330.98 376.965 325.887 369.082 328.347 362.466C330.808 355.85 335.458 354.193 335.458 354.193C335.458 354.193 331.547 352.241 331.547 343.761C331.547 343.761 331.547 334.872 342.569 333.45C350.747 332.395 355.273 340.491 355.273 340.491C355.273 340.491 355.273 324.552 369.947 322.036C381.959 319.976 383.701 332.614 383.701 332.614C383.701 332.614 388.263 320.495 400.355 322.036Z" fill="#F8F2E9"/>
<path d="M39.7711 70.0944C47.1965 71.0401 47.8354 78.6417 47.8354 78.6417C47.8354 78.6417 56.96 74.042 61.8253 81.9457C65.6901 88.2492 62.8242 98.0961 54.2925 101.09C45.7608 104.084 43.2967 97.581 43.2967 97.581C43.2967 97.581 41.7989 106.033 33.394 106.954C27.6357 107.584 24.5184 102.578 24.5184 102.578C24.5184 102.578 22.7644 112.622 13.5929 113.23C5.06233 113.795 5.29957 104.578 5.29957 104.578C5.29957 104.578 1.62874 111.45 -5.89315 111.828C-13.415 112.206 -17.3199 106.162 -15.4337 101.09C-13.5476 96.0178 -9.982 94.748 -9.982 94.748C-9.982 94.748 -12.9804 93.2507 -12.9804 86.7499C-12.9804 86.7499 -12.9805 79.9352 -4.53023 78.8449C1.73931 78.0359 5.20882 84.2432 5.20882 84.2432C5.20882 84.2432 5.20882 72.0228 16.459 70.094C25.6683 68.5151 27.0034 78.2042 27.0034 78.2042C27.0034 78.2042 30.5011 68.9131 39.7711 70.0944Z" fill="#F8F2E9"/>
<path d="M230.771 66.0944C238.196 67.0401 238.835 74.6417 238.835 74.6417C238.835 74.6417 247.96 70.042 252.825 77.9457C256.69 84.2492 253.824 94.0961 245.292 97.09C236.761 100.084 234.297 93.581 234.297 93.581C234.297 93.581 232.799 102.033 224.394 102.954C218.636 103.584 215.518 98.5781 215.518 98.5781C215.518 98.5781 213.764 108.622 204.593 109.23C196.062 109.795 196.3 100.578 196.3 100.578C196.3 100.578 192.629 107.45 185.107 107.828C177.585 108.206 173.68 102.162 175.566 97.09C177.452 92.0178 181.018 90.748 181.018 90.748C181.018 90.748 178.02 89.2507 178.02 82.7499C178.02 82.7499 178.02 75.9352 186.47 74.8449C192.739 74.0359 196.209 80.2432 196.209 80.2432C196.209 80.2432 196.209 68.0228 207.459 66.094C216.668 64.5151 218.003 74.2042 218.003 74.2042C218.003 74.2042 221.501 64.9131 230.771 66.0944Z" fill="#F8F2E9"/>
<path d="M632.771 247.094C640.196 248.04 640.835 255.642 640.835 255.642C640.835 255.642 649.96 251.042 654.825 258.946C658.69 265.249 655.824 275.096 647.292 278.09C638.761 281.084 636.297 274.581 636.297 274.581C636.297 274.581 634.799 283.033 626.394 283.954C620.636 284.584 617.518 279.578 617.518 279.578C617.518 279.578 615.764 289.622 606.593 290.23C598.062 290.795 598.3 281.578 598.3 281.578C598.3 281.578 594.629 288.45 587.107 288.828C579.585 289.206 575.68 283.162 577.566 278.09C579.452 273.018 583.018 271.748 583.018 271.748C583.018 271.748 580.02 270.251 580.02 263.75C580.02 263.75 580.02 256.935 588.47 255.845C594.739 255.036 598.209 261.243 598.209 261.243C598.209 261.243 598.209 249.023 609.459 247.094C618.668 245.515 620.003 255.204 620.003 255.204C620.003 255.204 623.501 245.913 632.771 247.094Z" fill="#F8F2E9"/>
<path d="M75.7711 402.094C83.1965 403.04 83.8354 410.642 83.8354 410.642C83.8354 410.642 92.96 406.042 97.8253 413.946C101.69 420.249 98.8242 430.096 90.2925 433.09C81.7608 436.084 79.2967 429.581 79.2967 429.581C79.2967 429.581 77.7989 438.033 69.394 438.954C63.6357 439.584 60.5184 434.578 60.5184 434.578C60.5184 434.578 58.7644 444.622 49.5929 445.23C41.0623 445.795 41.2996 436.578 41.2996 436.578C41.2996 436.578 37.6287 443.45 30.1068 443.828C22.5849 444.206 18.6801 438.162 20.5663 433.09C22.4524 428.018 26.018 426.748 26.018 426.748C26.018 426.748 23.0196 425.251 23.0196 418.75C23.0196 418.75 23.0195 411.935 31.4698 410.845C37.7393 410.036 41.2088 416.243 41.2088 416.243C41.2088 416.243 41.2088 404.023 52.459 402.094C61.6683 400.515 63.0034 410.204 63.0034 410.204C63.0034 410.204 66.5011 400.913 75.7711 402.094Z" fill="#F8F2E9"/>
<path d="M547.771 445.094C555.196 446.04 555.835 453.642 555.835 453.642C555.835 453.642 564.96 449.042 569.825 456.946C573.69 463.249 570.824 473.096 562.292 476.09C553.761 479.084 551.297 472.581 551.297 472.581C551.297 472.581 549.799 481.033 541.394 481.954C535.636 482.584 532.518 477.578 532.518 477.578C532.518 477.578 530.764 487.622 521.593 488.23C513.062 488.795 513.3 479.578 513.3 479.578C513.3 479.578 509.629 486.45 502.107 486.828C494.585 487.206 490.68 481.162 492.566 476.09C494.452 471.018 498.018 469.748 498.018 469.748C498.018 469.748 495.02 468.251 495.02 461.75C495.02 461.75 495.02 454.935 503.47 453.845C509.739 453.036 513.209 459.243 513.209 459.243C513.209 459.243 513.209 447.023 524.459 445.094C533.668 443.515 535.003 453.204 535.003 453.204C535.003 453.204 538.501 443.913 547.771 445.094Z" fill="#F8F2E9"/>
<path d="M239.298 454.822C239.298 454.822 239.112 444.374 229.005 442.408C216.386 439.954 210.739 452.338 210.739 452.338C210.739 452.338 211.571 438.767 198.785 440.091C184.487 441.573 180.27 458.619 180.27 458.619C180.27 458.619 177.527 449.203 168.081 450.673C155.282 452.659 151.626 467.886 151.626 467.886C151.626 467.886 139.333 465.908 138.114 475.746C136.454 489.153 153.14 487.085 153.14 487.085C153.14 487.085 154.682 495.067 162.532 495.194C172.892 495.358 178.545 486.422 178.545 486.422C178.545 486.422 177.381 499 189.143 499C201.79 499 205.111 485.429 205.111 485.429C205.111 485.429 208.935 492.555 216.898 492.215C228.52 491.716 231.345 480.299 231.345 480.299C231.345 480.299 234.136 489.411 246.121 486.091C258.106 482.772 262.936 469.571 258.203 460.605C252.243 449.361 239.298 454.822 239.298 454.822Z" fill="#F8F2E9"/>
<path d="M654.3 72.822C654.3 72.822 654.114 62.3736 644.006 60.4084C631.388 57.9543 625.741 70.3375 625.741 70.3375C625.741 70.3375 626.573 56.7667 613.787 58.091C599.489 59.5732 595.272 76.6187 595.272 76.6187C595.272 76.6187 592.529 67.2029 583.083 68.673C570.284 70.6594 566.628 85.8856 566.628 85.8856C566.628 85.8856 554.335 83.9083 553.116 93.7462C551.455 107.153 568.142 105.085 568.142 105.085C568.142 105.085 569.684 113.067 577.534 113.194C587.894 113.358 593.547 104.422 593.547 104.422C593.547 104.422 592.383 117 604.145 117C616.792 117 620.113 103.429 620.113 103.429C620.113 103.429 623.937 110.555 631.9 110.215C643.522 109.716 646.347 98.2991 646.347 98.2991C646.347 98.2991 649.138 107.411 661.123 104.091C673.108 100.772 677.938 87.5713 673.205 78.6051C667.245 67.3609 654.3 72.822 654.3 72.822Z" fill="#F8F2E9"/>
<path d="M100.232 340.778L92 338.5L100.232 336.222L102.509 328L104.768 336.222L113 338.5L104.768 340.778L102.509 349L100.232 340.778Z" fill="#F8F2E9" stroke="#232222" stroke-linejoin="round"/>
<path d="M291.488 443.519L286 442L291.488 440.481L293.006 435L294.512 440.481L300 442L294.512 443.519L293.006 449L291.488 443.519Z" fill="#F8F2E9" stroke="#232222" stroke-linejoin="round"/>
<path d="M178.488 190.519L173 189L178.488 187.481L180.006 182L181.512 187.481L187 189L181.512 190.519L180.006 196L178.488 190.519Z" fill="#F8F2E9" stroke="#232222" stroke-linejoin="round"/>
<path d="M355.488 86.5188L350 85L355.488 83.4812L357.006 78L358.512 83.4812L364 85L358.512 86.5188L357.006 92L355.488 86.5188Z" fill="#F8F2E9" stroke="#232222" stroke-linejoin="round"/>
<path d="M384.624 180.387L376 178L384.624 175.613L387.009 167L389.376 175.613L398 178L389.376 180.387L387.009 189L384.624 180.387Z" fill="#F8F2E9" stroke="#232222" stroke-linejoin="round"/>
<path d="M91.7696 178.99C96.3794 183.022 103.733 197.021 103.733 197.021H99.388L89.0406 182.7L91.7696 178.99Z" fill="#F8F2E9" stroke="#232222" stroke-linejoin="round"/>
<path d="M73.9907 163.059C73.9907 163.059 74.6053 157.758 73.6004 157.088C72.5955 156.418 72.9304 160.075 72.9304 160.075C72.9304 160.075 73.4897 157.091 72.4295 157.002C71.3692 156.913 71.6489 160.434 71.6489 160.434C71.6489 160.434 72.0392 157.921 71.0896 157.865C70.14 157.81 70.4749 162.945 71.5351 165.456L73.9907 163.059Z" fill="#F8F2E9" stroke="#232222" stroke-linejoin="round"/>
<path d="M93.643 172.527C93.643 172.527 94.7585 171.055 94.0333 169.626C93.308 168.197 91.799 166.636 88.228 166.916C85.7479 167.109 83.2525 168.895 78.8793 166.237C76.5929 164.851 75.333 166.356 77.5119 167.976C79.6908 169.596 83.0436 170.376 83.0436 170.376C83.0436 170.376 77.9082 168.345 77.2935 169.11C76.6789 169.875 78.9686 171.602 80.8094 172.106C82.6502 172.61 83.9348 172.998 83.9348 172.998C83.9348 172.998 78.5075 171.599 78.9131 172.527C80.2038 175.511 90.0904 178.065 93.643 172.527Z" fill="#232222" stroke="#232222" stroke-linejoin="round"/>
<path fill-rule="evenodd" clip-rule="evenodd" d="M87.7257 169.397C88.3527 168.77 89.2032 168.418 90.09 168.418C90.9767 168.418 91.8272 168.77 92.4543 169.397C93.0813 170.024 93.4336 170.875 93.4336 171.762V174.767C93.4336 175.264 93.2361 175.741 92.8845 176.093C92.533 176.444 92.0561 176.642 91.5589 176.642H90.634L90.3079 177.446L86.4577 175.884L86.9941 174.561C86.832 174.164 86.7463 173.736 86.7463 173.298V171.762C86.7463 170.875 87.0986 170.024 87.7257 169.397Z" fill="#F8F2E9"/>
<path d="M92.4543 169.397L92.1007 169.751L92.4543 169.397ZM92.8845 176.093L93.2381 176.446H93.2381L92.8845 176.093ZM90.634 176.642L90.1707 176.454C90.2472 176.265 90.4305 176.142 90.634 176.142V176.642ZM90.3079 177.446L90.7712 177.634C90.7214 177.757 90.6248 177.855 90.5026 177.906C90.3805 177.958 90.2428 177.959 90.1199 177.909L90.3079 177.446ZM86.4577 175.884L86.2697 176.347C86.0138 176.243 85.8905 175.952 85.9943 175.696L86.4577 175.884ZM86.9941 174.561L87.4571 174.373C87.5064 174.493 87.5065 174.628 87.4575 174.749L86.9941 174.561ZM90.09 168.418V168.918C89.3358 168.918 88.6125 169.218 88.0792 169.751L87.7257 169.397L87.3721 169.044C88.0929 168.323 89.0706 167.918 90.09 167.918V168.418ZM92.4543 169.397L92.1007 169.751C91.5674 169.218 90.8441 168.918 90.09 168.918V168.418V167.918C91.1094 167.918 92.087 168.323 92.8078 169.044L92.4543 169.397ZM93.4336 171.762H92.9336C92.9336 171.007 92.634 170.284 92.1007 169.751L92.4543 169.397L92.8078 169.044C93.5286 169.765 93.9336 170.742 93.9336 171.762H93.4336ZM93.4336 174.767H92.9336V171.762H93.4336H93.9336V174.767H93.4336ZM92.8845 176.093L92.531 175.739C92.7888 175.481 92.9336 175.132 92.9336 174.767H93.4336H93.9336C93.9336 175.397 93.6834 176.001 93.2381 176.446L92.8845 176.093ZM91.5589 176.642V176.142C91.9235 176.142 92.2732 175.997 92.531 175.739L92.8845 176.093L93.2381 176.446C92.7927 176.892 92.1887 177.142 91.5589 177.142V176.642ZM90.634 176.642V176.142H91.5589V176.642V177.142H90.634V176.642ZM90.634 176.642L91.0973 176.83L90.7712 177.634L90.3079 177.446L89.8446 177.258L90.1707 176.454L90.634 176.642ZM90.3079 177.446L90.1199 177.909L86.2697 176.347L86.4577 175.884L86.6456 175.421L90.4958 176.982L90.3079 177.446ZM86.4577 175.884L85.9943 175.696L86.5308 174.373L86.9941 174.561L87.4575 174.749L86.921 176.072L86.4577 175.884ZM86.7463 173.298H87.2463C87.2463 173.67 87.3192 174.035 87.4571 174.373L86.9941 174.561L86.5312 174.75C86.3449 174.294 86.2463 173.801 86.2463 173.298H86.7463ZM86.7463 171.762H87.2463V173.298H86.7463H86.2463V171.762H86.7463ZM87.7257 169.397L88.0792 169.751C87.5459 170.284 87.2463 171.007 87.2463 171.762H86.7463H86.2463C86.2463 170.742 86.6513 169.765 87.3721 169.044L87.7257 169.397Z" fill="#232222"/>
<path d="M94.7256 193.9L94.0433 183.682C93.5514 181.264 92.2281 179.094 90.3032 177.551L88.7557 176.281C87.3624 175.095 86.052 174.857 85.2723 174.712C84.4926 174.567 84.6143 174.766 83.8926 175.095C83.149 175.434 82.5322 176 82.1312 176.712C81.7302 177.424 81.5657 178.245 81.6614 179.057L82.8384 189.112C82.8384 189.112 88.696 189.33 94.7256 193.9Z" fill="#F8F2E9" stroke="#232222" stroke-linejoin="round"/>
<path d="M130.292 286.521L139.282 295.056L150.459 283.283L134.906 257.77C134.906 257.77 134.649 266.831 133.784 272.287C132.92 277.744 130.292 286.521 130.292 286.521Z" fill="#FF6F23" stroke="#232222" stroke-linejoin="round"/>
<path d="M66.8855 293.931L51.853 300.645L44.6226 286.112L66.9793 266.288L66.8855 293.931Z" fill="#FF6F23" stroke="#232222" stroke-linejoin="round"/>
<path d="M139.242 295.178C138.147 294.139 139.762 290.662 142.849 287.411C145.935 284.16 149.324 282.367 150.418 283.406C151.512 284.445 149.897 287.922 146.811 291.173C143.725 294.424 140.336 296.217 139.242 295.178Z" fill="#232222" stroke="#232222" stroke-linejoin="round"/>
<path d="M46.2146 294.698C44.2181 290.685 43.6949 286.886 45.0459 286.214C46.3968 285.542 49.1104 288.251 51.1068 292.264C53.1032 296.278 53.6265 300.076 52.2755 300.748C50.9246 301.42 48.211 298.711 46.2146 294.698Z" fill="#232222" stroke="#232222" stroke-linejoin="round"/>
<path d="M155.116 232.432C155.675 229.359 156.345 221.645 151.634 212.963C151.052 211.871 150.062 211.053 148.879 210.688C147.696 210.324 146.417 210.442 145.321 211.018C141.615 212.985 137.973 217.299 136.409 224.503C136.365 224.673 136.371 224.851 136.425 225.018C136.479 225.185 136.58 225.332 136.715 225.444C136.85 225.556 137.014 225.626 137.188 225.648C137.362 225.67 137.539 225.641 137.697 225.566C139.138 224.89 141.643 224.466 145.798 225.683C151.486 227.352 155.116 232.432 155.116 232.432Z" fill="#FF6F23" stroke="#232222" stroke-linejoin="round"/>
<path d="M34.1697 247.382C36.533 274.137 62.947 293.658 97.9998 290.564C133.053 287.469 159.553 263.274 157.189 236.522C154.826 209.77 124.497 190.59 89.444 193.688C54.3913 196.785 31.8034 220.63 34.1697 247.382Z" fill="#FF6F23" stroke="#232222" stroke-linejoin="round"/>
<path d="M120.987 273.483L130.931 280.333L140.142 266.969L120.811 244.186" fill="#FF6F23"/>
<path d="M120.987 273.483L130.931 280.333L140.142 266.969L120.811 244.186" stroke="#232222" stroke-linejoin="round"/>
<path d="M56.9295 279.054L46.2966 284.778L38.599 270.484L60.3088 249.95" fill="#FF6F23"/>
<path d="M56.9295 279.054L46.2966 284.778L38.599 270.484L60.3088 249.95" stroke="#232222" stroke-linejoin="round"/>
<path d="M154.049 224.781L160.988 224.166L162.955 246.437L156.016 247.052C153.613 247.264 151.225 242.442 150.681 236.296C150.137 230.15 151.658 224.993 154.049 224.781Z" fill="#FF6F23" stroke="#232222" stroke-linejoin="round"/>
<path d="M157.51 235.745C156.967 229.595 158.473 224.436 160.876 224.224C163.278 224.012 165.667 228.826 166.21 234.976C166.754 241.127 165.247 246.285 162.844 246.498C160.442 246.71 158.054 241.896 157.51 235.745Z" fill="#FF6F23" stroke="#232222" stroke-linejoin="round"/>
<path d="M137.317 205.101C135.738 202.139 131.182 195.216 121.402 191.071C120.175 190.545 118.79 190.523 117.546 191.008C116.302 191.493 115.298 192.446 114.75 193.664C112.915 197.793 112.693 203.855 116.155 210.956C116.237 211.124 116.363 211.267 116.521 211.367C116.678 211.468 116.861 211.523 117.048 211.526C117.234 211.53 117.419 211.481 117.579 211.386C117.74 211.291 117.872 211.153 117.959 210.988C118.729 209.457 120.573 207.423 124.911 205.667C130.841 203.265 137.317 205.101 137.317 205.101Z" fill="#FF6F23" stroke="#232222" stroke-linejoin="round"/>
<path d="M139.973 217.372C139.319 216.141 139.397 214.82 140.148 214.421C140.899 214.022 142.038 214.696 142.692 215.926C143.346 217.157 143.267 218.478 142.516 218.877C141.766 219.276 140.627 218.602 139.973 217.372Z" fill="#FF6F23" stroke="#232222" stroke-linejoin="round"/>
<path d="M163.661 236.94C163.577 235.989 163.81 235.19 164.182 235.158C164.554 235.125 164.924 235.87 165.008 236.821C165.092 237.773 164.859 238.572 164.487 238.604C164.115 238.637 163.745 237.892 163.661 236.94Z" fill="#232222" stroke="#232222" stroke-linejoin="round"/>
<path d="M159.941 233.794C159.857 232.842 160.09 232.044 160.462 232.011C160.834 231.978 161.204 232.723 161.288 233.675C161.372 234.627 161.139 235.425 160.767 235.458C160.395 235.491 160.025 234.746 159.941 233.794Z" fill="#232222" stroke="#232222" stroke-linejoin="round"/>
<path d="M130.911 280.461C129.668 279.605 130.722 275.919 133.266 272.228C135.809 268.537 138.878 266.238 140.12 267.094C141.363 267.951 140.308 271.637 137.765 275.328C135.222 279.019 132.153 281.318 130.911 280.461Z" fill="#232222" stroke="#232222" stroke-linejoin="round"/>
<path d="M40.0005 278.979C37.8757 275.032 37.2302 271.253 38.5587 270.537C39.8873 269.822 42.6869 272.442 44.8117 276.389C46.9366 280.336 47.5821 284.115 46.2535 284.83C44.925 285.546 42.1254 282.926 40.0005 278.979Z" fill="#232222" stroke="#232222" stroke-linejoin="round"/>
<path d="M91.1875 171.489C91.882 171.55 91.4763 169.089 92.4167 169.703C93.4463 170.373 93.646 172.524 93.646 172.524C94.5926 172.383 95.0965 168.419 91.4793 167.438C87.7608 166.433 85.671 167.927 85.2746 169.623C84.8781 171.32 86.1043 175.598 87.0294 174.58C87.9544 173.563 89.2113 173.499 89.0454 171.433C88.8794 169.368 89.8444 170.106 90.1395 170.161C90.4345 170.216 89.8906 171.378 91.1875 171.489Z" fill="#232222" stroke="#232222" stroke-linejoin="round"/>
<path d="M89.8234 172.196C89.8234 172.196 88.7571 171.145 88.7356 170.217C88.7141 169.289 89.8173 169.172 90.4442 170.217C90.813 170.829 91.2739 172.934 89.8234 172.196Z" fill="#F8F2E9" stroke="#232222" stroke-linejoin="round"/>
<path d="M92.3021 191.058L90.0894 187.121L85.455 188.427C83.1655 189.214 82.0746 190.886 83.1072 194.057C84.1398 197.229 92.133 201.94 92.133 201.94L84.9972 209.039L90.5043 214.094L98.9586 205.136C99.7507 204.283 100.199 203.167 100.218 202.002C100.237 200.838 99.8243 199.708 99.06 198.83L92.299 191.058" fill="#B1C6C3"/>
<path d="M92.3021 191.058L90.0894 187.121L85.455 188.427C83.1655 189.214 82.0746 190.886 83.1072 194.057C84.1398 197.229 92.133 201.94 92.133 201.94L84.9972 209.039L90.5043 214.094L98.9586 205.136C99.7507 204.283 100.199 203.167 100.218 202.002C100.237 200.838 99.8243 199.708 99.06 198.83L92.299 191.058" stroke="#232222" stroke-linejoin="round"/>
<path d="M81.9397 181.64C82.0727 183.007 82.0994 184.383 82.0198 185.754L81.7911 189.691C82.0984 192.15 84.786 188.923 88.3724 189.114C90.5728 189.225 91.9958 190.69 93.1083 192C94.0794 193.143 94.7217 193.911 94.7217 193.911L94.0394 183.693" fill="#F8F2E9"/>
<path d="M94.0394 183.693L94.7217 193.911C94.7217 193.911 94.0794 193.143 93.1083 192C91.9958 190.69 90.5728 189.225 88.3724 189.114C84.786 188.923 82.0984 192.15 81.7911 189.691L82.0198 185.754C82.0994 184.383 82.0727 183.007 81.9397 181.64L81.7911 180.111" stroke="#232222" stroke-linejoin="round"/>
<path d="M90.5029 214.1C88.6252 215.815 83.3731 210.658 84.9958 209.044C86.6184 207.431 92.7771 212.019 90.5029 214.1Z" fill="#5D766F" stroke="#232222" stroke-linejoin="round"/>
<path d="M91.2584 218.715C89.4913 220.866 82.131 213.45 84.3068 211.695C85.3475 210.86 86.3331 209.957 87.2571 208.994C87.2571 208.994 87.7395 209.046 89.0395 210.039C89.5544 210.428 90.0091 210.891 90.3887 211.413L89.1902 212.138C88.9892 212.325 88.8634 212.578 88.8368 212.851C88.8102 213.124 88.8845 213.397 89.0457 213.619C90.0629 215.018 91.9591 217.86 91.2584 218.715Z" fill="#232222" stroke="#232222" stroke-linejoin="round"/>
<path d="M84.3587 181.228C80.8645 179.691 72.4255 174.955 70.6431 164.264L74.6597 162.002C74.6597 162.002 76.4329 172.352 86.7557 175.091C87.1882 175.207 87.8871 175.585 88.7579 176.281" fill="#F8F2E9"/>
<path d="M84.3587 181.228C80.8645 179.691 72.4255 174.955 70.6431 164.264L74.6597 162.002C74.6597 162.002 76.4329 172.352 86.7557 175.091C87.1882 175.207 87.8871 175.585 88.7579 176.281L90.6738 177.849" stroke="#232222" stroke-linejoin="round"/>
<line x1="22.75" y1="41.25" x2="609.25" y2="41.25" stroke="#232222" stroke-width="1.5" stroke-linecap="round"/>
<path d="M542.087 15.5H552.127V17.2C548.547 20.1 546.327 24.58 545.987 30H543.787C544.107 24.8 546.407 20.32 550.007 17.2H542.087V15.5ZM561.461 23.14C560.801 24.28 559.541 25.16 557.621 25.16C554.941 25.16 552.961 23.14 552.961 20.22C552.961 17.54 554.961 15.24 558.061 15.24C561.681 15.24 563.341 17.76 563.341 22.24C563.341 26.34 561.861 30.26 557.681 30.26C554.841 30.26 553.501 28.48 553.201 26.64H555.181C555.421 27.94 556.401 28.74 557.881 28.74C560.121 28.74 561.361 26.5 561.461 23.14ZM558.081 16.76C556.201 16.76 554.901 18.16 554.901 20.14C554.901 22.12 556.181 23.56 558.061 23.56C559.961 23.56 561.221 22.12 561.221 20.14C561.221 18.14 560.001 16.76 558.081 16.76ZM564.328 30L570.028 15.5H571.868L566.148 30H564.328ZM581.902 19.04C581.902 22.4 578.402 25.38 574.342 28.3H582.302V30H571.862V28.36C576.982 24.58 579.982 21.84 579.982 19.28C579.982 17.78 578.982 16.76 577.262 16.76C575.702 16.76 574.182 17.62 574.142 20.02H572.262C572.222 17.14 574.222 15.24 577.302 15.24C579.982 15.24 581.902 16.6 581.902 19.04ZM589.659 30.26C585.799 30.26 584.019 27.34 584.019 22.74C584.019 18.16 585.799 15.24 589.659 15.24C593.519 15.24 595.299 18.16 595.299 22.74C595.299 27.34 593.519 30.26 589.659 30.26ZM589.659 16.76C587.379 16.76 585.959 18.72 585.959 22.74C585.959 26.78 587.379 28.74 589.659 28.74C591.939 28.74 593.359 26.78 593.359 22.74C593.359 18.72 591.939 16.76 589.659 16.76ZM602.881 30.26C599.021 30.26 597.241 27.34 597.241 22.74C597.241 18.16 599.021 15.24 602.881 15.24C606.741 15.24 608.521 18.16 608.521 22.74C608.521 27.34 606.741 30.26 602.881 30.26ZM602.881 16.76C600.601 16.76 599.181 18.72 599.181 22.74C599.181 26.78 600.601 28.74 602.881 28.74C605.161 28.74 606.581 26.78 606.581 22.74C606.581 18.72 605.161 16.76 602.881 16.76Z" fill="black"/>
<path d="M227.511 263.348C224.041 256.351 226.902 244.802 235.103 235.133C243.304 225.464 254.232 220.756 261.702 223.038L262.289 222.345L265.558 225.117C272.612 231.1 270.412 245.285 260.646 256.798C250.88 268.312 237.246 272.796 230.192 266.813L226.924 264.041L227.511 263.348Z" fill="#232222"/>
<path d="M263.108 223.04C270.161 229.023 267.963 243.207 258.197 254.72C248.431 266.234 234.797 270.718 227.743 264.735C220.69 258.752 222.888 244.569 232.654 233.055C242.42 221.541 256.054 217.058 263.108 223.04Z" fill="#FFB772" stroke="#232222" stroke-linejoin="round"/>
<path d="M506.197 28.2853C505.762 24.7169 508.772 20.1423 513.811 17.2009C518.851 14.2594 524.315 13.8883 527.208 16.0222L527.569 15.8115L528.563 17.5151C530.709 21.1915 527.583 27.0116 521.582 30.5143C515.581 34.017 508.976 33.8761 506.831 30.1996L505.836 28.496L506.197 28.2853Z" fill="#232222"/>
<path d="M527.818 16.2362C529.964 19.9126 526.839 25.7323 520.838 29.235C514.837 32.7376 508.232 32.5967 506.086 28.9204C503.941 25.244 507.066 19.4242 513.067 15.9216C519.068 12.419 525.673 12.5598 527.818 16.2362Z" fill="#FFB772" stroke="#232222" stroke-linejoin="round"/>
<path d="M313.361 258.895C311.443 251.323 316.674 240.637 326.729 232.914C336.783 225.191 348.458 222.891 355.279 226.696L355.999 226.142L358.61 229.541C364.244 236.876 359.105 250.279 347.132 259.476C335.159 268.673 320.886 270.182 315.251 262.847L312.64 259.448L313.361 258.895Z" fill="#232222"/>
<path d="M356.654 226.996C362.288 234.33 357.15 247.732 345.177 256.929C333.204 266.126 318.93 267.635 313.296 260.3C307.662 252.966 312.801 239.564 324.774 230.367C336.746 221.17 351.02 219.661 356.654 226.996Z" fill="#FFB772" stroke="#232222" stroke-linejoin="round"/>
<path d="M400.498 135.532C398.052 128.505 402.134 117.931 411.038 109.771C419.942 101.611 430.831 98.4646 437.619 101.512L438.257 100.928L441.015 103.938C446.968 110.433 443.197 123.577 432.594 133.293C421.992 143.01 408.571 145.622 402.618 139.126L399.86 136.116L400.498 135.532Z" fill="#232222"/>
<path d="M438.947 101.681C444.899 108.176 441.13 121.319 430.527 131.036C419.924 140.752 406.503 143.364 400.551 136.868C394.598 130.373 398.368 117.23 408.97 107.514C419.573 97.7969 432.994 95.1855 438.947 101.681Z" fill="#FFB772" stroke="#232222" stroke-linejoin="round"/>
<path d="M284.498 135.532C282.052 128.505 286.134 117.931 295.038 109.771C303.942 101.611 314.831 98.4646 321.619 101.512L322.257 100.928L325.015 103.938C330.968 110.433 327.197 123.577 316.594 133.293C305.992 143.01 292.571 145.622 286.618 139.126L283.86 136.116L284.498 135.532Z" fill="#232222"/>
<path d="M322.947 101.681C328.899 108.176 325.13 121.319 314.527 131.036C303.924 140.752 290.503 143.364 284.551 136.868C278.598 130.373 282.368 117.23 292.97 107.514C303.573 97.7969 316.994 95.1855 322.947 101.681Z" fill="#FFB772" stroke="#232222" stroke-linejoin="round"/>
<path d="M113.498 135.532C111.052 128.505 115.134 117.931 124.038 109.771C132.942 101.611 143.831 98.4646 150.619 101.512L151.257 100.928L154.015 103.938C159.968 110.433 156.197 123.577 145.594 133.293C134.992 143.01 121.571 145.622 115.618 139.126L112.86 136.116L113.498 135.532Z" fill="#232222"/>
<path d="M151.947 101.681C157.899 108.176 154.13 121.319 143.527 131.036C132.924 140.752 119.503 143.364 113.551 136.868C107.598 130.373 111.368 117.23 121.97 107.514C132.573 97.7969 145.994 95.1855 151.947 101.681Z" fill="#FFB772" stroke="#232222" stroke-linejoin="round"/>
<path d="M479.498 401.159C477.052 394.131 481.134 383.558 490.038 375.398C498.942 367.238 509.831 364.092 516.619 367.139L517.257 366.555L520.015 369.565C525.968 376.06 522.197 389.204 511.594 398.92C500.992 408.637 487.571 411.249 481.618 404.753L478.86 401.743L479.498 401.159Z" fill="#232222"/>
<path d="M517.947 367.308C523.899 373.803 520.13 386.946 509.527 396.663C498.924 406.379 485.503 408.991 479.551 402.495C473.598 396 477.368 382.857 487.97 373.141C498.573 363.424 511.994 360.812 517.947 367.308Z" fill="#FFB772" stroke="#232222" stroke-linejoin="round"/>
<path d="M504.931 137.307C502.486 130.28 506.567 119.707 515.471 111.547C524.375 103.387 535.265 100.24 542.052 103.288L542.69 102.703L545.449 105.713C551.401 112.209 547.631 125.352 537.028 135.069C526.425 144.786 513.004 147.397 507.052 140.902L504.293 137.892L504.931 137.307Z" fill="#232222"/>
<path d="M543.38 103.456C549.333 109.952 545.563 123.094 534.961 132.811C524.358 142.528 510.937 145.139 504.984 138.644C499.032 132.148 502.801 119.006 513.404 109.289C524.007 99.5723 537.427 96.9608 543.38 103.456Z" fill="#FFB772" stroke="#232222" stroke-linejoin="round"/>
<path d="M503.497 265.159C501.051 258.131 505.133 247.558 514.037 239.398C522.941 231.238 533.83 228.092 540.618 231.139L541.256 230.555L544.014 233.565C549.967 240.06 546.196 253.204 535.593 262.92C524.991 272.637 511.57 275.249 505.617 268.753L502.859 265.743L503.497 265.159Z" fill="#232222"/>
<path d="M541.946 231.308C547.898 237.803 544.129 250.946 533.526 260.663C522.923 270.379 509.502 272.991 503.55 266.495C497.597 260 501.367 246.857 511.969 237.141C522.572 227.424 535.993 224.812 541.946 231.308Z" fill="#FFB772" stroke="#232222" stroke-linejoin="round"/>
<path d="M387.497 407.159C385.051 400.131 389.133 389.558 398.037 381.398C406.941 373.238 417.83 370.092 424.618 373.139L425.256 372.555L428.014 375.565C433.967 382.06 430.196 395.204 419.593 404.92C408.991 414.637 395.57 417.249 389.617 410.753L386.859 407.743L387.497 407.159Z" fill="#232222"/>
<path d="M425.946 373.308C431.898 379.803 428.129 392.946 417.526 402.663C406.923 412.379 393.502 414.991 387.55 408.495C381.597 402 385.367 388.857 395.969 379.141C406.572 369.424 419.993 366.812 425.946 373.308Z" fill="#FFB772" stroke="#232222" stroke-linejoin="round"/>
<path d="M294.498 399.159C292.052 392.131 296.134 381.558 305.038 373.398C313.942 365.238 324.831 362.092 331.619 365.139L332.257 364.555L335.015 367.565C340.968 374.06 337.197 387.204 326.594 396.92C315.992 406.637 302.571 409.249 296.618 402.753L293.86 399.743L294.498 399.159Z" fill="#232222"/>
<path d="M332.947 365.308C338.899 371.803 335.13 384.946 324.527 394.663C313.924 404.379 300.503 406.991 294.551 400.495C288.598 394 292.368 380.857 302.97 371.141C313.573 361.424 326.994 358.812 332.947 365.308Z" fill="#FFB772" stroke="#232222" stroke-linejoin="round"/>
<path d="M194.498 394.159C192.052 387.131 196.134 376.558 205.038 368.398C213.942 360.238 224.831 357.092 231.619 360.139L232.257 359.555L235.015 362.565C240.968 369.06 237.197 382.204 226.594 391.92C215.992 401.637 202.571 404.249 196.618 397.753L193.86 394.743L194.498 394.159Z" fill="#232222"/>
<path d="M232.947 360.308C238.899 366.803 235.13 379.946 224.527 389.663C213.924 399.379 200.503 401.991 194.551 395.495C188.598 389 192.368 375.857 202.97 366.141C213.573 356.424 226.994 353.812 232.947 360.308Z" fill="#FFB772" stroke="#232222" stroke-linejoin="round"/>
<path d="M121.498 403.159C119.052 396.131 123.134 385.558 132.038 377.398C140.942 369.238 151.831 366.092 158.619 369.139L159.257 368.555L162.015 371.565C167.968 378.06 164.197 391.204 153.594 400.92C142.992 410.637 129.571 413.249 123.618 406.753L120.86 403.743L121.498 403.159Z" fill="#232222"/>
<path d="M159.947 369.308C165.899 375.803 162.13 388.946 151.527 398.663C140.924 408.379 127.503 410.991 121.551 404.495C115.598 398 119.368 384.857 129.97 375.141C140.573 365.424 153.994 362.812 159.947 369.308Z" fill="#FFB772" stroke="#232222" stroke-linejoin="round"/>
<path d="M61.4975 410.159C59.0522 403.131 63.1338 392.558 72.0378 384.398C80.9417 376.238 91.8311 373.092 98.6187 376.139L99.2566 375.555L102.015 378.565C107.968 385.06 104.197 398.204 93.5944 407.92C82.9915 417.637 69.5708 420.249 63.6181 413.753L60.8596 410.743L61.4975 410.159Z" fill="#232222"/>
<path d="M99.9466 376.308C105.899 382.803 102.13 395.946 91.5269 405.663C80.9242 415.379 67.5034 417.991 61.5507 411.495C55.5981 405 59.3677 391.857 69.9704 382.141C80.5731 372.424 93.9939 369.812 99.9466 376.308Z" fill="#FFB772" stroke="#232222" stroke-linejoin="round"/>
<path d="M415.497 258.159C413.051 251.131 417.133 240.558 426.037 232.398C434.941 224.238 445.83 221.092 452.618 224.139L453.256 223.555L456.014 226.565C461.967 233.06 458.196 246.204 447.593 255.92C436.991 265.637 423.57 268.249 417.617 261.753L414.859 258.743L415.497 258.159Z" fill="#232222"/>
<path d="M453.946 224.308C459.898 230.803 456.129 243.946 445.526 253.663C434.923 263.379 421.502 265.991 415.55 259.495C409.597 253 413.367 239.857 423.969 230.141C434.572 220.424 447.993 217.812 453.946 224.308Z" fill="#FFB772" stroke="#232222" stroke-linejoin="round"/>
<path d="M563.497 401.159C561.051 394.131 565.133 383.558 574.037 375.398C582.941 367.238 593.83 364.092 600.618 367.139L601.256 366.555L604.014 369.565C609.967 376.06 606.196 389.204 595.593 398.92C584.991 408.637 571.57 411.249 565.617 404.753L562.859 401.743L563.497 401.159Z" fill="#232222"/>
<path d="M601.946 367.308C607.898 373.803 604.129 386.946 593.526 396.663C582.923 406.379 569.502 408.991 563.55 402.495C557.597 396 561.367 382.857 571.969 373.141C582.572 363.424 595.993 360.812 601.946 367.308Z" fill="#FFB772" stroke="#232222" stroke-linejoin="round"/>
<path d="M25.9447 229.207C20.7991 226.477 17.423 224.586 16.0584 223.541C14.8876 222.355 12.7643 217.705 10.0693 210.834C8.95006 207.969 8.33515 206.369 7.52734 204.41" stroke="black" stroke-width="2" stroke-linecap="round"/>
<path d="M24.9801 239.164C23.3997 239.453 21.8192 239.743 18.5709 239.826C15.3226 239.91 10.4543 239.779 5.43848 239.645" stroke="black" stroke-width="2" stroke-linecap="round"/>
<path d="M35.1196 12.8474L33.8423 11.5701C32.3012 10.029 29.9895 9.55236 27.9625 10.3622C25.8915 11.1906 24.5332 13.1969 24.5332 15.4275V24.2715C24.5332 24.2715 28.0435 24.2715 28.0435 21.0273C28.0435 21.0273 31.7204 22.145 31.9541 18.5606C31.9541 18.5606 35.1196 19.9328 35.1196 16.3901V12.8474Z" fill="#FF6F23" stroke="#232222" stroke-linecap="round" stroke-linejoin="round"/>
<path d="M47.3955 12.8474L48.6728 11.5701C50.2139 10.029 52.5256 9.55236 54.5526 10.3622C56.6236 11.1906 57.9842 13.1945 57.9842 15.4275V24.2715C57.9842 24.2715 54.4739 24.2715 54.4739 21.0273C54.4739 21.0273 50.797 22.145 50.5633 18.5606C50.5633 18.5606 47.3978 19.9328 47.3978 16.3901V12.8474H47.3955Z" fill="#FF6F23" stroke="#232222" stroke-linecap="round" stroke-linejoin="round"/>
<path d="M45.8081 31.5166C44.105 30.9149 42.955 29.3183 42.955 27.5111V22.623C46.773 21.8386 49.6423 18.4602 49.6423 14.4108V12.7632C49.6423 11.4535 50.163 10.197 51.0886 9.26915L52.7269 7.63086H29.6543L31.4268 9.40336C32.3524 10.3289 32.873 11.5854 32.873 12.8974V14.4131C32.873 18.4625 35.7447 21.8409 39.5627 22.6254V27.5134C39.5627 29.3206 38.4127 30.9172 36.7073 31.5189C33.4585 32.6643 32.3963 35.3485 32.3963 35.3485H50.1213C50.1213 35.3485 49.0592 32.6643 45.8104 31.5189L45.8081 31.5166Z" fill="#FF6F23" stroke="#232222" stroke-linecap="round" stroke-linejoin="round"/>
<path d="M41.0002 29.1645C43.0989 29.1645 44.8002 27.4631 44.8002 25.3645C44.8002 23.2658 43.0989 21.5645 41.0002 21.5645C38.9015 21.5645 37.2002 23.2658 37.2002 25.3645C37.2002 27.4631 38.9015 29.1645 41.0002 29.1645Z" fill="#FF6F23" stroke="#232222" stroke-linecap="round" stroke-linejoin="round"/>
<path d="M54.4922 21.0533V16.4531" stroke="#232222" stroke-linecap="round" stroke-linejoin="round"/>
<path d="M28.0898 21.0533V16.4531" stroke="#232222" stroke-linecap="round" stroke-linejoin="round"/>
<path d="M40.0107 19.0311L43.4644 10.2832H42.911L39.9143 17.5538L38.1553 12.7216H36.8633L39.1559 19.0286H40.0107V19.0311Z" fill="white"/>
<path d="M42.288 19.0311L45.7417 10.2832H45.1883L42.1916 17.5538L40.4327 12.7216H39.1406L41.4332 19.0286H42.288V19.0311Z" fill="white"/>
</g>
<defs>
<clipPath id="clip0_18365_40005">
<rect width="632" height="476" rx="10" fill="white"/>
</clipPath>
</defs>
</svg>
