<svg width="632" height="476" viewBox="0 0 632 476" fill="none" xmlns="http://www.w3.org/2000/svg">
<g clip-path="url(#clip0_18357_39089)">
<rect width="632" height="476" rx="10" fill="#F6D8BA"/>
<path d="M400.355 322.036C410.04 323.27 410.873 333.185 410.873 333.185C410.873 333.185 422.775 327.185 429.121 337.495C434.162 345.717 430.424 358.561 419.296 362.466C408.167 366.371 404.953 357.889 404.953 357.889C404.953 357.889 403 368.913 392.037 370.115C384.526 370.937 380.46 364.407 380.46 364.407C380.46 364.407 378.172 377.508 366.209 378.301C355.082 379.038 355.391 367.015 355.391 367.015C355.391 367.015 350.603 375.979 340.792 376.472C330.98 376.965 325.887 369.082 328.347 362.466C330.808 355.85 335.458 354.193 335.458 354.193C335.458 354.193 331.547 352.241 331.547 343.761C331.547 343.761 331.547 334.872 342.569 333.45C350.747 332.395 355.273 340.491 355.273 340.491C355.273 340.491 355.273 324.552 369.947 322.036C381.959 319.976 383.701 332.614 383.701 332.614C383.701 332.614 388.263 320.495 400.355 322.036Z" fill="#F8F2E9"/>
<path d="M39.7711 70.0944C47.1965 71.0401 47.8354 78.6417 47.8354 78.6417C47.8354 78.6417 56.96 74.042 61.8253 81.9457C65.6901 88.2492 62.8242 98.0961 54.2925 101.09C45.7608 104.084 43.2967 97.581 43.2967 97.581C43.2967 97.581 41.7989 106.033 33.394 106.954C27.6357 107.584 24.5184 102.578 24.5184 102.578C24.5184 102.578 22.7644 112.622 13.5929 113.23C5.06233 113.795 5.29957 104.578 5.29957 104.578C5.29957 104.578 1.62874 111.45 -5.89315 111.828C-13.415 112.206 -17.3199 106.162 -15.4337 101.09C-13.5476 96.0178 -9.982 94.748 -9.982 94.748C-9.982 94.748 -12.9804 93.2507 -12.9804 86.7499C-12.9804 86.7499 -12.9805 79.9352 -4.53023 78.8449C1.73931 78.0359 5.20882 84.2432 5.20882 84.2432C5.20882 84.2432 5.20882 72.0228 16.459 70.094C25.6683 68.5151 27.0034 78.2042 27.0034 78.2042C27.0034 78.2042 30.5011 68.9131 39.7711 70.0944Z" fill="#F8F2E9"/>
<path d="M230.771 66.0944C238.196 67.0401 238.835 74.6417 238.835 74.6417C238.835 74.6417 247.96 70.042 252.825 77.9457C256.69 84.2492 253.824 94.0961 245.292 97.09C236.761 100.084 234.297 93.581 234.297 93.581C234.297 93.581 232.799 102.033 224.394 102.954C218.636 103.584 215.518 98.5781 215.518 98.5781C215.518 98.5781 213.764 108.622 204.593 109.23C196.062 109.795 196.3 100.578 196.3 100.578C196.3 100.578 192.629 107.45 185.107 107.828C177.585 108.206 173.68 102.162 175.566 97.09C177.452 92.0178 181.018 90.748 181.018 90.748C181.018 90.748 178.02 89.2507 178.02 82.7499C178.02 82.7499 178.02 75.9352 186.47 74.8449C192.739 74.0359 196.209 80.2432 196.209 80.2432C196.209 80.2432 196.209 68.0228 207.459 66.094C216.668 64.5151 218.003 74.2042 218.003 74.2042C218.003 74.2042 221.501 64.9131 230.771 66.0944Z" fill="#F8F2E9"/>
<path d="M632.771 247.094C640.196 248.04 640.835 255.642 640.835 255.642C640.835 255.642 649.96 251.042 654.825 258.946C658.69 265.249 655.824 275.096 647.292 278.09C638.761 281.084 636.297 274.581 636.297 274.581C636.297 274.581 634.799 283.033 626.394 283.954C620.636 284.584 617.518 279.578 617.518 279.578C617.518 279.578 615.764 289.622 606.593 290.23C598.062 290.795 598.3 281.578 598.3 281.578C598.3 281.578 594.629 288.45 587.107 288.828C579.585 289.206 575.68 283.162 577.566 278.09C579.452 273.018 583.018 271.748 583.018 271.748C583.018 271.748 580.02 270.251 580.02 263.75C580.02 263.75 580.02 256.935 588.47 255.845C594.739 255.036 598.209 261.243 598.209 261.243C598.209 261.243 598.209 249.023 609.459 247.094C618.668 245.515 620.003 255.204 620.003 255.204C620.003 255.204 623.501 245.913 632.771 247.094Z" fill="#F8F2E9"/>
<path d="M75.7711 402.094C83.1965 403.04 83.8354 410.642 83.8354 410.642C83.8354 410.642 92.96 406.042 97.8253 413.946C101.69 420.249 98.8242 430.096 90.2925 433.09C81.7608 436.084 79.2967 429.581 79.2967 429.581C79.2967 429.581 77.7989 438.033 69.394 438.954C63.6357 439.584 60.5184 434.578 60.5184 434.578C60.5184 434.578 58.7644 444.622 49.5929 445.23C41.0623 445.795 41.2996 436.578 41.2996 436.578C41.2996 436.578 37.6287 443.45 30.1068 443.828C22.5849 444.206 18.6801 438.162 20.5663 433.09C22.4524 428.018 26.018 426.748 26.018 426.748C26.018 426.748 23.0196 425.251 23.0196 418.75C23.0196 418.75 23.0195 411.935 31.4698 410.845C37.7393 410.036 41.2088 416.243 41.2088 416.243C41.2088 416.243 41.2088 404.023 52.459 402.094C61.6683 400.515 63.0034 410.204 63.0034 410.204C63.0034 410.204 66.5011 400.913 75.7711 402.094Z" fill="#F8F2E9"/>
<path d="M547.771 445.094C555.196 446.04 555.835 453.642 555.835 453.642C555.835 453.642 564.96 449.042 569.825 456.946C573.69 463.249 570.824 473.096 562.292 476.09C553.761 479.084 551.297 472.581 551.297 472.581C551.297 472.581 549.799 481.033 541.394 481.954C535.636 482.584 532.518 477.578 532.518 477.578C532.518 477.578 530.764 487.622 521.593 488.23C513.062 488.795 513.3 479.578 513.3 479.578C513.3 479.578 509.629 486.45 502.107 486.828C494.585 487.206 490.68 481.162 492.566 476.09C494.452 471.018 498.018 469.748 498.018 469.748C498.018 469.748 495.02 468.251 495.02 461.75C495.02 461.75 495.02 454.935 503.47 453.845C509.739 453.036 513.209 459.243 513.209 459.243C513.209 459.243 513.209 447.023 524.459 445.094C533.668 443.515 535.003 453.204 535.003 453.204C535.003 453.204 538.501 443.913 547.771 445.094Z" fill="#F8F2E9"/>
<path d="M239.298 454.822C239.298 454.822 239.112 444.374 229.005 442.408C216.386 439.954 210.739 452.338 210.739 452.338C210.739 452.338 211.571 438.767 198.785 440.091C184.487 441.573 180.27 458.619 180.27 458.619C180.27 458.619 177.527 449.203 168.081 450.673C155.282 452.659 151.626 467.886 151.626 467.886C151.626 467.886 139.333 465.908 138.114 475.746C136.454 489.153 153.14 487.085 153.14 487.085C153.14 487.085 154.682 495.067 162.532 495.194C172.892 495.358 178.545 486.422 178.545 486.422C178.545 486.422 177.381 499 189.143 499C201.79 499 205.111 485.429 205.111 485.429C205.111 485.429 208.935 492.555 216.898 492.215C228.52 491.716 231.345 480.299 231.345 480.299C231.345 480.299 234.136 489.411 246.121 486.091C258.106 482.772 262.936 469.571 258.203 460.605C252.243 449.361 239.298 454.822 239.298 454.822Z" fill="#F8F2E9"/>
<path d="M654.3 72.822C654.3 72.822 654.114 62.3736 644.006 60.4084C631.388 57.9543 625.741 70.3375 625.741 70.3375C625.741 70.3375 626.573 56.7667 613.787 58.091C599.489 59.5732 595.272 76.6187 595.272 76.6187C595.272 76.6187 592.529 67.2029 583.083 68.673C570.284 70.6594 566.628 85.8856 566.628 85.8856C566.628 85.8856 554.335 83.9083 553.116 93.7462C551.455 107.153 568.142 105.085 568.142 105.085C568.142 105.085 569.684 113.067 577.534 113.194C587.894 113.358 593.547 104.422 593.547 104.422C593.547 104.422 592.383 117 604.145 117C616.792 117 620.113 103.429 620.113 103.429C620.113 103.429 623.937 110.555 631.9 110.215C643.522 109.716 646.347 98.2991 646.347 98.2991C646.347 98.2991 649.138 107.411 661.123 104.091C673.108 100.772 677.938 87.5713 673.205 78.6051C667.245 67.3609 654.3 72.822 654.3 72.822Z" fill="#F8F2E9"/>
<path d="M100.232 340.778L92 338.5L100.232 336.222L102.509 328L104.768 336.222L113 338.5L104.768 340.778L102.509 349L100.232 340.778Z" fill="#F8F2E9" stroke="#232222" stroke-linejoin="round"/>
<path d="M291.488 443.519L286 442L291.488 440.481L293.006 435L294.512 440.481L300 442L294.512 443.519L293.006 449L291.488 443.519Z" fill="#F8F2E9" stroke="#232222" stroke-linejoin="round"/>
<path d="M178.488 190.519L173 189L178.488 187.481L180.006 182L181.512 187.481L187 189L181.512 190.519L180.006 196L178.488 190.519Z" fill="#F8F2E9" stroke="#232222" stroke-linejoin="round"/>
<path d="M355.488 86.5188L350 85L355.488 83.4812L357.006 78L358.512 83.4812L364 85L358.512 86.5188L357.006 92L355.488 86.5188Z" fill="#F8F2E9" stroke="#232222" stroke-linejoin="round"/>
<path d="M384.624 180.387L376 178L384.624 175.613L387.009 167L389.376 175.613L398 178L389.376 180.387L387.009 189L384.624 180.387Z" fill="#F8F2E9" stroke="#232222" stroke-linejoin="round"/>
<path d="M91.7701 187.99C96.3798 192.022 103.734 206.021 103.734 206.021H99.3885L89.0411 191.7L91.7701 187.99Z" fill="#F8F2E9" stroke="#232222" stroke-linejoin="round"/>
<path d="M73.9902 172.059C73.9902 172.059 74.6048 166.758 73.5999 166.088C72.595 165.418 72.9299 169.075 72.9299 169.075C72.9299 169.075 73.4893 166.091 72.429 166.002C71.3688 165.913 71.6484 169.434 71.6484 169.434C71.6484 169.434 72.0387 166.921 71.0891 166.865C70.1395 166.81 70.4744 171.945 71.5347 174.456L73.9902 172.059Z" fill="#F8F2E9" stroke="#232222" stroke-linejoin="round"/>
<path d="M93.6434 181.527C93.6434 181.527 94.759 180.055 94.0337 178.626C93.3085 177.197 91.7995 175.636 88.2285 175.916C85.7484 176.109 83.253 177.895 78.8798 175.237C76.5934 173.851 75.3335 175.356 77.5124 176.976C79.6912 178.596 83.0441 179.376 83.0441 179.376C83.0441 179.376 77.9087 177.345 77.294 178.11C76.6794 178.875 78.969 180.602 80.8099 181.106C82.6507 181.61 83.9353 181.998 83.9353 181.998C83.9353 181.998 78.5079 180.599 78.9136 181.527C80.2043 184.511 90.0908 187.065 93.6434 181.527Z" fill="#232222" stroke="#232222" stroke-linejoin="round"/>
<path fill-rule="evenodd" clip-rule="evenodd" d="M87.7252 178.397C88.3522 177.77 89.2027 177.418 90.0895 177.418C90.9763 177.418 91.8267 177.77 92.4538 178.397C93.0808 179.024 93.4331 179.875 93.4331 180.762V183.767C93.4331 184.264 93.2356 184.741 92.884 185.093C92.5325 185.444 92.0556 185.642 91.5585 185.642H90.6335L90.3074 186.446L86.4572 184.884L86.9937 183.561C86.8316 183.164 86.7459 182.736 86.7459 182.298V180.762C86.7459 179.875 87.0981 179.024 87.7252 178.397Z" fill="#F8F2E9"/>
<path d="M92.4538 178.397L92.1002 178.751L92.4538 178.397ZM92.884 185.093L93.2376 185.446H93.2376L92.884 185.093ZM90.6335 185.642L90.1702 185.454C90.2467 185.265 90.43 185.142 90.6335 185.142V185.642ZM90.3074 186.446L90.7707 186.634C90.7209 186.757 90.6243 186.855 90.5021 186.906C90.38 186.958 90.2423 186.959 90.1195 186.909L90.3074 186.446ZM86.4572 184.884L86.2692 185.347C86.0133 185.243 85.89 184.952 85.9938 184.696L86.4572 184.884ZM86.9937 183.561L87.4566 183.373C87.5059 183.493 87.506 183.628 87.457 183.749L86.9937 183.561ZM90.0895 177.418V177.918C89.3353 177.918 88.612 178.218 88.0787 178.751L87.7252 178.397L87.3716 178.044C88.0924 177.323 89.0701 176.918 90.0895 176.918V177.418ZM92.4538 178.397L92.1002 178.751C91.5669 178.218 90.8437 177.918 90.0895 177.918V177.418V176.918C91.1089 176.918 92.0865 177.323 92.8073 178.044L92.4538 178.397ZM93.4331 180.762H92.9331C92.9331 180.007 92.6335 179.284 92.1002 178.751L92.4538 178.397L92.8073 178.044C93.5281 178.765 93.9331 179.742 93.9331 180.762H93.4331ZM93.4331 183.767H92.9331V180.762H93.4331H93.9331V183.767H93.4331ZM92.884 185.093L92.5305 184.739C92.7883 184.481 92.9331 184.132 92.9331 183.767H93.4331H93.9331C93.9331 184.397 93.6829 185.001 93.2376 185.446L92.884 185.093ZM91.5585 185.642V185.142C91.923 185.142 92.2727 184.997 92.5305 184.739L92.884 185.093L93.2376 185.446C92.7923 185.892 92.1883 186.142 91.5585 186.142V185.642ZM90.6335 185.642V185.142H91.5585V185.642V186.142H90.6335V185.642ZM90.6335 185.642L91.0969 185.83L90.7707 186.634L90.3074 186.446L89.8441 186.258L90.1702 185.454L90.6335 185.642ZM90.3074 186.446L90.1195 186.909L86.2692 185.347L86.4572 184.884L86.6451 184.421L90.4954 185.982L90.3074 186.446ZM86.4572 184.884L85.9938 184.696L86.5303 183.373L86.9937 183.561L87.457 183.749L86.9205 185.072L86.4572 184.884ZM86.7459 182.298H87.2459C87.2459 182.67 87.3187 183.035 87.4566 183.373L86.9937 183.561L86.5307 183.75C86.3444 183.294 86.2459 182.801 86.2459 182.298H86.7459ZM86.7459 180.762H87.2459V182.298H86.7459H86.2459V180.762H86.7459ZM87.7252 178.397L88.0787 178.751C87.5454 179.284 87.2459 180.007 87.2459 180.762H86.7459H86.2459C86.2459 179.742 86.6508 178.765 87.3716 178.044L87.7252 178.397Z" fill="#232222"/>
<path d="M94.7261 202.9L94.0438 192.682C93.5519 190.264 92.2286 188.094 90.3037 186.551L88.7562 185.281C87.3629 184.095 86.0525 183.857 85.2728 183.712C84.4931 183.567 84.6148 183.766 83.8931 184.095C83.1495 184.434 82.5327 185 82.1317 185.712C81.7307 186.424 81.5662 187.245 81.6619 188.057L82.8389 198.112C82.8389 198.112 88.6965 198.33 94.7261 202.9Z" fill="#F8F2E9" stroke="#232222" stroke-linejoin="round"/>
<path d="M126.364 288.547L127.455 300.896L143.626 299.467L148.851 270.047C148.851 270.047 142.661 276.67 138.402 280.188C134.142 283.707 126.364 288.547 126.364 288.547Z" fill="#FF6F23" stroke="#232222" stroke-linejoin="round"/>
<path d="M70.8682 293.992L66.7286 309.926L50.8617 306.503L49.3313 276.662L70.8682 293.992Z" fill="#FF6F23" stroke="#232222" stroke-linejoin="round"/>
<path d="M127.343 300.961C127.21 299.458 130.722 297.92 135.187 297.525C139.652 297.131 143.38 298.029 143.512 299.532C143.645 301.035 140.133 302.574 135.668 302.968C131.203 303.363 127.476 302.464 127.343 300.961Z" fill="#232222" stroke="#232222" stroke-linejoin="round"/>
<path d="M58.2319 310.959C53.8503 310.013 50.5565 308.051 50.8748 306.576C51.1932 305.101 55.0031 304.672 59.3847 305.618C63.7663 306.563 67.0603 308.526 66.7419 310.001C66.4236 311.476 62.6135 311.905 58.2319 310.959Z" fill="#232222" stroke="#232222" stroke-linejoin="round"/>
<path d="M155.115 241.432C155.675 238.359 156.345 230.645 151.633 221.963C151.052 220.871 150.061 220.053 148.879 219.688C147.696 219.324 146.417 219.442 145.321 220.018C141.615 221.985 137.973 226.299 136.409 233.503C136.365 233.673 136.371 233.851 136.425 234.018C136.479 234.185 136.579 234.332 136.714 234.444C136.85 234.556 137.014 234.626 137.188 234.648C137.362 234.67 137.538 234.641 137.696 234.566C139.138 233.89 141.642 233.466 145.797 234.683C151.486 236.352 155.115 241.432 155.115 241.432Z" fill="#FF6F23" stroke="#232222" stroke-linejoin="round"/>
<path d="M34.1697 256.382C36.533 283.137 62.947 302.658 97.9998 299.564C133.053 296.469 159.553 272.274 157.189 245.522C154.826 218.77 124.497 199.59 89.444 202.688C54.3913 205.785 31.8034 229.63 34.1697 256.382Z" fill="#FF6F23" stroke="#232222" stroke-linejoin="round"/>
<path d="M115.377 274.559L116.44 286.588L132.608 285.162L137.833 255.742" fill="#FF6F23"/>
<path d="M115.377 274.559L116.44 286.588L132.608 285.162L137.833 255.742" stroke="#232222" stroke-linejoin="round"/>
<path d="M63.0605 281.682L60.5129 293.486L44.6429 290.062L43.1156 260.219" fill="#FF6F23"/>
<path d="M63.0605 281.682L60.5129 293.486L44.6429 290.062L43.1156 260.219" stroke="#232222" stroke-linejoin="round"/>
<path d="M154.049 233.781L160.988 233.166L162.955 255.437L156.016 256.052C153.613 256.264 151.225 251.442 150.681 245.296C150.137 239.15 151.658 233.993 154.049 233.781Z" fill="#FF6F23" stroke="#232222" stroke-linejoin="round"/>
<path d="M157.51 244.745C156.966 238.595 158.473 233.436 160.875 233.224C163.278 233.012 165.666 237.826 166.21 243.976C166.753 250.127 165.246 255.285 162.844 255.498C160.441 255.71 158.053 250.896 157.51 244.745Z" fill="#FF6F23" stroke="#232222" stroke-linejoin="round"/>
<path d="M137.483 214.171C137.231 210.824 135.852 202.652 128.571 194.917C127.66 193.942 126.402 193.363 125.068 193.306C123.734 193.248 122.43 193.716 121.438 194.61C118.095 197.649 115.449 203.107 115.756 211.002C115.763 211.189 115.821 211.37 115.925 211.526C116.028 211.682 116.173 211.805 116.343 211.884C116.512 211.962 116.701 211.992 116.886 211.97C117.072 211.948 117.247 211.874 117.394 211.758C118.715 210.667 121.223 209.549 125.901 209.69C132.296 209.881 137.483 214.171 137.483 214.171Z" fill="#FF6F23" stroke="#232222" stroke-linejoin="round"/>
<path d="M139.973 226.372C139.319 225.141 139.398 223.82 140.149 223.421C140.9 223.022 142.038 223.696 142.692 224.926C143.346 226.157 143.268 227.478 142.517 227.877C141.766 228.276 140.627 227.602 139.973 226.372Z" fill="#FF6F23" stroke="#232222" stroke-linejoin="round"/>
<path d="M163.66 245.94C163.576 244.989 163.81 244.19 164.182 244.158C164.554 244.125 164.923 244.87 165.007 245.821C165.091 246.773 164.858 247.572 164.486 247.604C164.114 247.637 163.745 246.892 163.66 245.94Z" fill="#232222" stroke="#232222" stroke-linejoin="round"/>
<path d="M159.941 242.794C159.857 241.842 160.09 241.044 160.462 241.011C160.834 240.978 161.204 241.723 161.288 242.675C161.372 243.627 161.139 244.425 160.767 244.458C160.395 244.491 160.025 243.746 159.941 242.794Z" fill="#232222" stroke="#232222" stroke-linejoin="round"/>
<path d="M116.329 286.651C116.196 285.148 119.708 283.609 124.173 283.215C128.638 282.82 132.365 283.719 132.498 285.222C132.631 286.725 129.119 288.263 124.654 288.658C120.189 289.052 116.462 288.154 116.329 286.651Z" fill="#232222" stroke="#232222" stroke-linejoin="round"/>
<path d="M52.0151 294.512C47.6335 293.566 44.3397 291.604 44.658 290.129C44.9764 288.654 48.7863 288.225 53.1679 289.17C57.5495 290.116 60.8435 292.079 60.5251 293.553C60.2068 295.028 56.3967 295.457 52.0151 294.512Z" fill="#232222" stroke="#232222" stroke-linejoin="round"/>
<path d="M91.187 180.489C91.8815 180.55 91.4758 178.089 92.4162 178.703C93.4458 179.373 93.6455 181.524 93.6455 181.524C94.5921 181.383 95.096 177.419 91.4788 176.438C87.7603 175.433 85.6705 176.927 85.2741 178.623C84.8776 180.32 86.1038 184.598 87.0289 183.58C87.9539 182.563 89.2108 182.499 89.0449 180.433C88.8789 178.368 89.8439 179.106 90.139 179.161C90.434 179.216 89.8901 180.378 91.187 180.489Z" fill="#232222" stroke="#232222" stroke-linejoin="round"/>
<path d="M89.8234 181.196C89.8234 181.196 88.7571 180.145 88.7356 179.217C88.7141 178.289 89.8173 178.172 90.4442 179.217C90.813 179.829 91.2739 181.934 89.8234 181.196Z" fill="#F8F2E9" stroke="#232222" stroke-linejoin="round"/>
<path d="M92.3021 200.058L90.0894 196.121L85.455 197.427C83.1655 198.214 82.0746 199.886 83.1072 203.057C84.1398 206.229 92.133 210.94 92.133 210.94L84.9972 218.039L90.5043 223.094L98.9586 214.136C99.7507 213.283 100.199 212.167 100.218 211.002C100.237 209.838 99.8243 208.708 99.06 207.83L92.299 200.058" fill="#B1C6C3"/>
<path d="M92.3021 200.058L90.0894 196.121L85.455 197.427C83.1655 198.214 82.0746 199.886 83.1072 203.057C84.1398 206.229 92.133 210.94 92.133 210.94L84.9972 218.039L90.5043 223.094L98.9586 214.136C99.7507 213.283 100.199 212.167 100.218 211.002C100.237 209.838 99.8243 208.708 99.06 207.83L92.299 200.058" stroke="#232222" stroke-linejoin="round"/>
<path d="M81.9402 190.64C82.0732 192.007 82.0999 193.383 82.0203 194.754L81.7916 198.691C82.0989 201.15 84.7865 197.923 88.3729 198.114C90.5733 198.225 91.9962 199.69 93.1087 201C94.0799 202.143 94.7222 202.911 94.7222 202.911L94.0399 192.693" fill="#F8F2E9"/>
<path d="M94.0399 192.693L94.7222 202.911C94.7222 202.911 94.0799 202.143 93.1087 201C91.9962 199.69 90.5733 198.225 88.3729 198.114C84.7865 197.923 82.0989 201.15 81.7916 198.691L82.0203 194.754C82.0999 193.383 82.0732 192.007 81.9402 190.64L81.7916 189.111" stroke="#232222" stroke-linejoin="round"/>
<path d="M90.5034 223.1C88.6257 224.815 83.3736 219.658 84.9963 218.044C86.6189 216.431 92.7775 221.019 90.5034 223.1Z" fill="#5D766F" stroke="#232222" stroke-linejoin="round"/>
<path d="M91.2579 227.715C89.4908 229.866 82.1305 222.45 84.3063 220.695C85.3471 219.86 86.3326 218.957 87.2566 217.994C87.2566 217.994 87.7391 218.046 89.039 219.039C89.5539 219.428 90.0086 219.891 90.3882 220.413L89.1897 221.138C88.9887 221.325 88.8629 221.578 88.8363 221.851C88.8097 222.124 88.884 222.397 89.0452 222.619C90.0624 224.018 91.9586 226.86 91.2579 227.715Z" fill="#232222" stroke="#232222" stroke-linejoin="round"/>
<path d="M84.3582 190.228C80.864 188.691 72.425 183.955 70.6426 173.264L74.6592 171.002C74.6592 171.002 76.4324 181.352 86.7552 184.091C87.1877 184.207 87.8866 184.585 88.7574 185.281" fill="#F8F2E9"/>
<path d="M84.3582 190.228C80.864 188.691 72.425 183.955 70.6426 173.264L74.6592 171.002C74.6592 171.002 76.4324 181.352 86.7552 184.091C87.1877 184.207 87.8866 184.585 88.7574 185.281L90.6733 186.849" stroke="#232222" stroke-linejoin="round"/>
<line x1="22.75" y1="41.25" x2="609.25" y2="41.25" stroke="#232222" stroke-width="1.5" stroke-linecap="round"/>
<path d="M542.087 15.5H552.127V17.2C548.547 20.1 546.327 24.58 545.987 30H543.787C544.107 24.8 546.407 20.32 550.007 17.2H542.087V15.5ZM561.461 23.14C560.801 24.28 559.541 25.16 557.621 25.16C554.941 25.16 552.961 23.14 552.961 20.22C552.961 17.54 554.961 15.24 558.061 15.24C561.681 15.24 563.341 17.76 563.341 22.24C563.341 26.34 561.861 30.26 557.681 30.26C554.841 30.26 553.501 28.48 553.201 26.64H555.181C555.421 27.94 556.401 28.74 557.881 28.74C560.121 28.74 561.361 26.5 561.461 23.14ZM558.081 16.76C556.201 16.76 554.901 18.16 554.901 20.14C554.901 22.12 556.181 23.56 558.061 23.56C559.961 23.56 561.221 22.12 561.221 20.14C561.221 18.14 560.001 16.76 558.081 16.76ZM564.328 30L570.028 15.5H571.868L566.148 30H564.328ZM581.902 19.04C581.902 22.4 578.402 25.38 574.342 28.3H582.302V30H571.862V28.36C576.982 24.58 579.982 21.84 579.982 19.28C579.982 17.78 578.982 16.76 577.262 16.76C575.702 16.76 574.182 17.62 574.142 20.02H572.262C572.222 17.14 574.222 15.24 577.302 15.24C579.982 15.24 581.902 16.6 581.902 19.04ZM589.659 30.26C585.799 30.26 584.019 27.34 584.019 22.74C584.019 18.16 585.799 15.24 589.659 15.24C593.519 15.24 595.299 18.16 595.299 22.74C595.299 27.34 593.519 30.26 589.659 30.26ZM589.659 16.76C587.379 16.76 585.959 18.72 585.959 22.74C585.959 26.78 587.379 28.74 589.659 28.74C591.939 28.74 593.359 26.78 593.359 22.74C593.359 18.72 591.939 16.76 589.659 16.76ZM602.881 30.26C599.021 30.26 597.241 27.34 597.241 22.74C597.241 18.16 599.021 15.24 602.881 15.24C606.741 15.24 608.521 18.16 608.521 22.74C608.521 27.34 606.741 30.26 602.881 30.26ZM602.881 16.76C600.601 16.76 599.181 18.72 599.181 22.74C599.181 26.78 600.601 28.74 602.881 28.74C605.161 28.74 606.581 26.78 606.581 22.74C606.581 18.72 605.161 16.76 602.881 16.76Z" fill="black"/>
<path d="M506.197 28.2833C505.762 24.7149 508.772 20.1404 513.811 17.1989C518.851 14.2575 524.315 13.8864 527.208 16.0203L527.569 15.8095L528.563 17.5132C530.709 21.1896 527.583 27.0096 521.582 30.5123C515.581 34.015 508.976 33.8741 506.831 30.1977L505.836 28.4941L506.197 28.2833Z" fill="#232222"/>
<path d="M527.817 16.2362C529.963 19.9126 526.838 25.7323 520.837 29.235C514.836 32.7376 508.231 32.5967 506.085 28.9204C503.94 25.244 507.065 19.4242 513.066 15.9216C519.067 12.419 525.672 12.5598 527.817 16.2362Z" fill="#FFB772" stroke="#232222" stroke-linejoin="round"/>
<rect x="65" y="78" width="25" height="13" fill="#FFB772" stroke="black" stroke-linejoin="round"/>
<rect x="65" y="104" width="25" height="13" fill="#FFB772" stroke="black" stroke-linejoin="round"/>
<rect x="90" y="78" width="25" height="13" fill="#FF8C4F" stroke="black" stroke-linejoin="round"/>
<rect x="40" y="78" width="25" height="13" fill="#FF8C4F" stroke="black" stroke-linejoin="round"/>
<rect x="53" y="91" width="25" height="13" fill="#FF8C4F" stroke="black" stroke-linejoin="round"/>
<path d="M140 78L152 88.3394V127L140 117V78Z" fill="#FF8C4F" stroke="black" stroke-linejoin="round"/>
<path d="M140 117L152 127L51.2698 127L40 117L140 117Z" fill="#232222" stroke="black" stroke-linejoin="round"/>
<rect x="115" y="104" width="25" height="13" fill="#FFB772" stroke="black" stroke-linejoin="round"/>
<rect x="115" y="78" width="25" height="13" fill="#FFB772" stroke="black" stroke-linejoin="round"/>
<rect x="90" y="104" width="25" height="13" fill="#FF8C4F" stroke="black" stroke-linejoin="round"/>
<rect x="40" y="104" width="25" height="13" fill="#FF8C4F" stroke="black" stroke-linejoin="round"/>
<rect x="78" y="91" width="25" height="13" fill="#FFB772" stroke="black" stroke-linejoin="round"/>
<rect x="40" y="91" width="13" height="13" fill="#FFB772" stroke="black" stroke-linejoin="round"/>
<rect x="103" y="91" width="25" height="13" fill="#FF8C4F" stroke="black" stroke-linejoin="round"/>
<rect x="128" y="91" width="12" height="13" fill="#FFB772" stroke="black" stroke-linejoin="round"/>
<rect x="90" y="104" width="25" height="13" fill="#FFB772" stroke="black" stroke-linejoin="round"/>
<rect x="90" y="130" width="25" height="13" fill="#FFB772" stroke="black" stroke-linejoin="round"/>
<rect x="115" y="104" width="25" height="13" fill="#FF8C4F" stroke="black" stroke-linejoin="round"/>
<rect x="65" y="104" width="25" height="13" fill="#FF8C4F" stroke="black" stroke-linejoin="round"/>
<rect x="78" y="117" width="25" height="13" fill="#FF8C4F" stroke="black" stroke-linejoin="round"/>
<path d="M165 104L177 114.339V153L165 143V104Z" fill="#FF8C4F" stroke="black" stroke-linejoin="round"/>
<path d="M165 143L177 153L76.2698 153L65 143L165 143Z" fill="#232222" stroke="black" stroke-linejoin="round"/>
<rect x="140" y="130" width="25" height="13" fill="#FFB772" stroke="black" stroke-linejoin="round"/>
<rect x="140" y="104" width="25" height="13" fill="#FFB772" stroke="black" stroke-linejoin="round"/>
<rect x="115" y="130" width="25" height="13" fill="#FF8C4F" stroke="black" stroke-linejoin="round"/>
<rect x="65" y="130" width="25" height="13" fill="#FF8C4F" stroke="black" stroke-linejoin="round"/>
<rect x="103" y="117" width="25" height="13" fill="#FFB772" stroke="black" stroke-linejoin="round"/>
<rect x="65" y="117" width="13" height="13" fill="#FFB772" stroke="black" stroke-linejoin="round"/>
<rect x="128" y="117" width="25" height="13" fill="#FF8C4F" stroke="black" stroke-linejoin="round"/>
<rect x="153" y="117" width="12" height="13" fill="#FFB772" stroke="black" stroke-linejoin="round"/>
<rect x="529" y="223" width="25" height="13" fill="#FFB772" stroke="black" stroke-linejoin="round"/>
<rect x="529" y="249" width="25" height="13" fill="#FFB772" stroke="black" stroke-linejoin="round"/>
<rect x="554" y="223" width="25" height="13" fill="#FF8C4F" stroke="black" stroke-linejoin="round"/>
<rect x="504" y="223" width="25" height="13" fill="#FF8C4F" stroke="black" stroke-linejoin="round"/>
<rect x="517" y="236" width="25" height="13" fill="#FF8C4F" stroke="black" stroke-linejoin="round"/>
<path d="M604 223L616 233.339V272L604 262V223Z" fill="#FF8C4F" stroke="black" stroke-linejoin="round"/>
<path d="M604 262L616 272L515.27 272L504 262L604 262Z" fill="#232222" stroke="black" stroke-linejoin="round"/>
<rect x="579" y="249" width="25" height="13" fill="#FFB772" stroke="black" stroke-linejoin="round"/>
<rect x="579" y="223" width="25" height="13" fill="#FFB772" stroke="black" stroke-linejoin="round"/>
<rect x="554" y="249" width="25" height="13" fill="#FF8C4F" stroke="black" stroke-linejoin="round"/>
<rect x="504" y="249" width="25" height="13" fill="#FF8C4F" stroke="black" stroke-linejoin="round"/>
<rect x="542" y="236" width="25" height="13" fill="#FFB772" stroke="black" stroke-linejoin="round"/>
<rect x="504" y="236" width="13" height="13" fill="#FFB772" stroke="black" stroke-linejoin="round"/>
<rect x="567" y="236" width="25" height="13" fill="#FF8C4F" stroke="black" stroke-linejoin="round"/>
<rect x="592" y="236" width="12" height="13" fill="#FFB772" stroke="black" stroke-linejoin="round"/>
<rect x="-11" y="362" width="25" height="13" fill="#FFB772" stroke="black" stroke-linejoin="round"/>
<rect x="-11" y="388" width="25" height="13" fill="#FFB772" stroke="black" stroke-linejoin="round"/>
<rect x="14" y="362" width="25" height="13" fill="#FF8C4F" stroke="black" stroke-linejoin="round"/>
<rect x="-23" y="375" width="25" height="13" fill="#FF8C4F" stroke="black" stroke-linejoin="round"/>
<path d="M64 362L76 372.339V411L64 401V362Z" fill="#FF8C4F" stroke="black" stroke-linejoin="round"/>
<path d="M64 401L76 411L-24.7302 411L-36 401L64 401Z" fill="#232222" stroke="black" stroke-linejoin="round"/>
<rect x="39" y="388" width="25" height="13" fill="#FFB772" stroke="black" stroke-linejoin="round"/>
<rect x="39" y="362" width="25" height="13" fill="#FFB772" stroke="black" stroke-linejoin="round"/>
<rect x="14" y="388" width="25" height="13" fill="#FF8C4F" stroke="black" stroke-linejoin="round"/>
<rect x="2" y="375" width="25" height="13" fill="#FFB772" stroke="black" stroke-linejoin="round"/>
<rect x="27" y="375" width="25" height="13" fill="#FF8C4F" stroke="black" stroke-linejoin="round"/>
<rect x="52" y="375" width="12" height="13" fill="#FFB772" stroke="black" stroke-linejoin="round"/>
<path d="M400.499 135.532C398.053 128.505 402.135 117.931 411.039 109.771C419.943 101.611 430.832 98.4646 437.62 101.512L438.258 100.928L441.016 103.938C446.969 110.433 443.198 123.577 432.595 133.293C421.992 143.01 408.572 145.622 402.619 139.126L399.861 136.116L400.499 135.532Z" fill="#232222"/>
<path d="M438.948 101.681C444.9 108.176 441.131 121.319 430.528 131.036C419.925 140.752 406.504 143.364 400.552 136.868C394.599 130.373 398.369 117.23 408.971 107.514C419.574 97.7969 432.995 95.1855 438.948 101.681Z" fill="#FFB772" stroke="#232222" stroke-linejoin="round"/>
<path d="M479.498 401.159C477.052 394.131 481.134 383.558 490.038 375.398C498.942 367.238 509.831 364.092 516.619 367.139L517.257 366.555L520.015 369.565C525.968 376.06 522.197 389.204 511.594 398.92C500.992 408.637 487.571 411.249 481.618 404.753L478.86 401.743L479.498 401.159Z" fill="#232222"/>
<path d="M517.947 367.308C523.899 373.803 520.13 386.946 509.527 396.663C498.924 406.379 485.503 408.991 479.551 402.495C473.598 396 477.368 382.857 487.97 373.141C498.573 363.424 511.994 360.812 517.947 367.308Z" fill="#FFB772" stroke="#232222" stroke-linejoin="round"/>
<path d="M504.932 137.307C502.487 130.28 506.568 119.707 515.472 111.547C524.376 103.387 535.266 100.24 542.053 103.288L542.691 102.703L545.45 105.713C551.402 112.209 547.632 125.352 537.029 135.069C526.426 144.786 513.005 147.397 507.053 140.902L504.294 137.892L504.932 137.307Z" fill="#232222"/>
<path d="M543.381 103.456C549.334 109.952 545.564 123.094 534.962 132.811C524.359 142.528 510.938 145.139 504.985 138.644C499.033 132.148 502.802 119.006 513.405 109.289C524.008 99.5723 537.428 96.9608 543.381 103.456Z" fill="#FFB772" stroke="#232222" stroke-linejoin="round"/>
<path d="M563.498 401.159C561.052 394.131 565.134 383.558 574.038 375.398C582.942 367.238 593.831 364.092 600.619 367.139L601.257 366.555L604.015 369.565C609.968 376.06 606.197 389.204 595.594 398.92C584.992 408.637 571.571 411.249 565.618 404.753L562.86 401.743L563.498 401.159Z" fill="#232222"/>
<path d="M601.947 367.308C607.899 373.803 604.13 386.946 593.527 396.663C582.924 406.379 569.503 408.991 563.551 402.495C557.598 396 561.368 382.857 571.97 373.141C582.573 363.424 595.994 360.812 601.947 367.308Z" fill="#FFB772" stroke="#232222" stroke-linejoin="round"/>
<rect x="329" y="362" width="25" height="13" fill="#FFB772" stroke="black" stroke-linejoin="round"/>
<rect x="329" y="388" width="25" height="13" fill="#FFB772" stroke="black" stroke-linejoin="round"/>
<rect x="354" y="362" width="25" height="13" fill="#FF8C4F" stroke="black" stroke-linejoin="round"/>
<rect x="317" y="375" width="25" height="13" fill="#FF8C4F" stroke="black" stroke-linejoin="round"/>
<path d="M404 362L416 372.339V411L404 401V362Z" fill="#FF8C4F" stroke="black" stroke-linejoin="round"/>
<path d="M404 401L416 411L328.27 411L317 401L404 401Z" fill="#232222" stroke="black" stroke-linejoin="round"/>
<rect x="379" y="388" width="25" height="13" fill="#FFB772" stroke="black" stroke-linejoin="round"/>
<rect x="379" y="362" width="25" height="13" fill="#FFB772" stroke="black" stroke-linejoin="round"/>
<rect x="354" y="388" width="25" height="13" fill="#FF8C4F" stroke="black" stroke-linejoin="round"/>
<rect x="342" y="375" width="25" height="13" fill="#FFB772" stroke="black" stroke-linejoin="round"/>
<rect x="317" y="388" width="13" height="13" fill="#FFB772" stroke="black" stroke-linejoin="round"/>
<rect x="317" y="362" width="13" height="13" fill="#FFB772" stroke="black" stroke-linejoin="round"/>
<rect x="367" y="375" width="25" height="13" fill="#FF8C4F" stroke="black" stroke-linejoin="round"/>
<rect x="392" y="375" width="12" height="13" fill="#FFB772" stroke="black" stroke-linejoin="round"/>
<path d="M411.528 257.175C409.177 251.406 411.895 242.107 418.632 234.47C425.37 226.833 433.979 223.293 439.616 225.337L440.098 224.79L442.485 227.125C447.636 232.162 445.307 243.618 437.284 252.712C429.262 261.806 418.583 265.094 413.432 260.056L411.046 257.722L411.528 257.175Z" fill="#232222" stroke="#232222" stroke-linecap="round" stroke-linejoin="round"/>
<path d="M440.688 225.38C445.839 230.417 443.511 241.872 435.488 250.966C427.466 260.06 416.787 263.348 411.636 258.31C406.486 253.273 408.814 241.818 416.837 232.724C424.859 223.63 435.538 220.342 440.688 225.38Z" fill="#FFB772" stroke="#232222" stroke-linecap="round" stroke-linejoin="round"/>
<path d="M432.492 248.033C426.57 254.746 418.935 257.415 415.439 253.996" stroke="#232222" stroke-linecap="round" stroke-linejoin="round"/>
<path d="M420.413 233.319C419.85 231.287 418.263 229.7 416.231 229.137L415.586 228.959L416.231 228.781C418.263 228.218 419.85 226.631 420.413 224.599L420.59 223.959L420.763 224.59C421.323 226.627 422.913 228.219 424.949 228.783L425.586 228.959L424.949 229.135C422.913 229.699 421.323 231.291 420.763 233.328L420.59 233.959L420.413 233.319Z" fill="#F8F2E9" stroke="#232222" stroke-linecap="round" stroke-linejoin="round"/>
<path d="M312.528 257.181C310.177 251.412 312.895 242.113 319.632 234.476C326.37 226.839 334.979 223.299 340.616 225.343L341.098 224.796L343.485 227.13C348.636 232.168 346.307 243.624 338.284 252.718C330.262 261.812 319.583 265.1 314.432 260.062L312.046 257.728L312.528 257.181Z" fill="#232222" stroke="#232222" stroke-linecap="round" stroke-linejoin="round"/>
<path d="M341.688 225.385C346.839 230.423 344.511 241.878 336.488 250.972C328.466 260.065 317.787 263.354 312.636 258.316C307.486 253.279 309.814 241.823 317.837 232.73C325.859 223.636 336.538 220.348 341.688 225.385Z" fill="#FFB772" stroke="#232222" stroke-linecap="round" stroke-linejoin="round"/>
<path d="M333.492 248.039C327.57 254.751 319.935 257.421 316.439 254.002" stroke="#232222" stroke-linecap="round" stroke-linejoin="round"/>
<path d="M321.413 233.325C320.85 231.293 319.263 229.706 317.231 229.143L316.586 228.965L317.231 228.786C319.263 228.224 320.85 226.637 321.413 224.605L321.59 223.965L321.763 224.596C322.323 226.633 323.913 228.225 325.949 228.788L326.586 228.965L325.949 229.141C323.913 229.705 322.323 231.297 321.763 233.334L321.59 233.965L321.413 233.325Z" fill="#F8F2E9" stroke="#232222" stroke-linecap="round" stroke-linejoin="round"/>
<path d="M221.528 257.181C219.177 251.412 221.895 242.113 228.632 234.476C235.37 226.839 243.979 223.299 249.616 225.343L250.098 224.796L252.485 227.13C257.636 232.168 255.307 243.624 247.284 252.718C239.262 261.812 228.583 265.1 223.432 260.062L221.046 257.728L221.528 257.181Z" fill="#232222" stroke="#232222" stroke-linecap="round" stroke-linejoin="round"/>
<path d="M250.688 225.385C255.839 230.423 253.511 241.878 245.488 250.972C237.466 260.065 226.787 263.354 221.636 258.316C216.486 253.279 218.814 241.823 226.837 232.73C234.859 223.636 245.538 220.348 250.688 225.385Z" fill="#FFB772" stroke="#232222" stroke-linecap="round" stroke-linejoin="round"/>
<path d="M242.492 248.039C236.57 254.751 228.935 257.421 225.439 254.002" stroke="#232222" stroke-linecap="round" stroke-linejoin="round"/>
<path d="M230.413 233.325C229.85 231.293 228.263 229.706 226.231 229.143L225.586 228.965L226.231 228.786C228.263 228.224 229.85 226.637 230.413 224.605L230.59 223.965L230.763 224.596C231.323 226.633 232.913 228.225 234.949 228.788L235.586 228.965L234.949 229.141C232.913 229.705 231.323 231.297 230.763 233.334L230.59 233.965L230.413 233.325Z" fill="#F8F2E9" stroke="#232222" stroke-linecap="round" stroke-linejoin="round"/>
<g clip-path="url(#clip1_18357_39089)">
<path d="M283.476 112.432L281.72 110.499C279.6 108.165 276.421 107.444 273.633 108.67C270.784 109.924 268.916 112.958 268.916 116.338V129.727C268.916 129.727 273.863 129.938 273.863 125.027C273.863 125.027 278.801 126.508 279.123 121.081C279.123 121.081 283.476 123.159 283.476 117.796V112.432Z" fill="#FF6F23" stroke="#232222" stroke-linecap="round" stroke-linejoin="round"/>
<path d="M301.524 112.432L303.281 110.499C305.401 108.165 308.58 107.444 311.368 108.67C314.217 109.924 316.088 112.958 316.088 116.338V129.727C316.088 129.727 311.137 129.938 311.137 125.027C311.137 125.027 306.203 126.508 305.881 121.081C305.881 121.081 301.528 123.159 301.528 117.796V112.432H301.524Z" fill="#FF6F23" stroke="#232222" stroke-linecap="round" stroke-linejoin="round"/>
<path d="M304.694 114.793V112.299C304.694 107.034 308.51 104.529 308.51 104.529H276.286C276.286 104.529 280.296 107.034 280.296 112.502V114.797C280.296 120.927 284.137 126.042 289.692 127.23V132.712C289.692 135.448 288.355 136.814 285.876 137.725C281.148 139.459 279.603 143.523 279.603 143.523H279.62C279.62 144.143 285.387 144.644 292.502 144.644C299.617 144.644 305.384 144.143 305.384 143.523H305.391C305.391 143.523 303.845 139.459 299.117 137.725C296.639 136.814 295.301 135.448 295.301 132.712V127.23C300.856 126.042 304.694 120.927 304.694 114.797V114.793Z" fill="#FF6F23" stroke="#232222" stroke-linecap="round" stroke-linejoin="round"/>
<path d="M292.498 133.644C294.672 133.644 296.434 131.89 296.434 129.727C296.434 127.564 294.672 125.811 292.498 125.811C290.325 125.811 288.562 127.564 288.562 129.727C288.562 131.89 290.325 133.644 292.498 133.644Z" fill="#FF6F23" stroke="#232222" stroke-linecap="round" stroke-linejoin="round"/>
<path d="M311.138 125.026V117.789" stroke="#232222" stroke-linecap="round" stroke-linejoin="round"/>
<path d="M273.863 125.027V118.369" stroke="#232222" stroke-linecap="round" stroke-linejoin="round"/>
<path d="M292.396 105.65C301.294 105.65 308.506 105.148 308.506 104.529C308.506 103.91 301.294 103.408 292.396 103.408C283.499 103.408 276.286 103.91 276.286 104.529C276.286 105.148 283.499 105.65 292.396 105.65Z" fill="#232222" stroke="#232222" stroke-linecap="round" stroke-linejoin="round"/>
<path d="M286.543 106.813L287.681 108.921L285.559 107.791C284.76 107.365 283.798 107.365 282.998 107.791L280.877 108.921L282.014 106.813C282.442 106.018 282.442 105.062 282.014 104.267L280.877 102.158L282.998 103.289C283.798 103.714 284.76 103.714 285.559 103.289L287.681 102.158L286.543 104.267C286.115 105.062 286.115 106.018 286.543 106.813Z" fill="white" stroke="#232222" stroke-linecap="round" stroke-linejoin="round"/>
<path d="M291.156 120.949L296.078 108.545H295.289L291.019 118.855L288.512 112.003H286.671L289.938 120.946H291.156V120.949Z" fill="white"/>
<path d="M294.403 120.949L299.325 108.545H298.536L294.266 118.855L291.759 112.003H289.918L293.185 120.946H294.403V120.949Z" fill="white"/>
</g>
</g>
<defs>
<clipPath id="clip0_18357_39089">
<rect width="632" height="476" rx="10" fill="white"/>
</clipPath>
<clipPath id="clip1_18357_39089">
<rect width="53" height="44" fill="white" transform="translate(266 101)"/>
</clipPath>
</defs>
</svg>
