<svg width="632" height="476" viewBox="0 0 632 476" fill="none" xmlns="http://www.w3.org/2000/svg">
<g clip-path="url(#clip0_18357_39271)">
<rect width="632" height="476" rx="10" fill="#FFB772"/>
<path d="M400.355 322.036C410.04 323.27 410.873 333.185 410.873 333.185C410.873 333.185 422.775 327.185 429.121 337.495C434.162 345.717 430.424 358.561 419.296 362.466C408.167 366.371 404.953 357.889 404.953 357.889C404.953 357.889 403 368.913 392.037 370.115C384.526 370.937 380.46 364.407 380.46 364.407C380.46 364.407 378.172 377.508 366.209 378.301C355.082 379.038 355.391 367.015 355.391 367.015C355.391 367.015 350.603 375.979 340.792 376.472C330.98 376.965 325.887 369.082 328.347 362.466C330.808 355.85 335.458 354.193 335.458 354.193C335.458 354.193 331.547 352.241 331.547 343.761C331.547 343.761 331.547 334.872 342.569 333.45C350.747 332.395 355.273 340.491 355.273 340.491C355.273 340.491 355.273 324.552 369.947 322.036C381.959 319.976 383.701 332.614 383.701 332.614C383.701 332.614 388.263 320.495 400.355 322.036Z" fill="#F8F2E9"/>
<path d="M39.7711 70.0944C47.1965 71.0401 47.8354 78.6417 47.8354 78.6417C47.8354 78.6417 56.96 74.042 61.8253 81.9457C65.6901 88.2492 62.8242 98.0961 54.2925 101.09C45.7608 104.084 43.2967 97.581 43.2967 97.581C43.2967 97.581 41.7989 106.033 33.394 106.954C27.6357 107.584 24.5184 102.578 24.5184 102.578C24.5184 102.578 22.7644 112.622 13.5929 113.23C5.06233 113.795 5.29957 104.578 5.29957 104.578C5.29957 104.578 1.62874 111.45 -5.89315 111.828C-13.415 112.206 -17.3199 106.162 -15.4337 101.09C-13.5476 96.0178 -9.982 94.748 -9.982 94.748C-9.982 94.748 -12.9804 93.2507 -12.9804 86.7499C-12.9804 86.7499 -12.9805 79.9352 -4.53023 78.8449C1.73931 78.0359 5.20882 84.2432 5.20882 84.2432C5.20882 84.2432 5.20882 72.0228 16.459 70.094C25.6683 68.5151 27.0034 78.2042 27.0034 78.2042C27.0034 78.2042 30.5011 68.9131 39.7711 70.0944Z" fill="#F8F2E9"/>
<path d="M230.771 66.0944C238.196 67.0401 238.835 74.6417 238.835 74.6417C238.835 74.6417 247.96 70.042 252.825 77.9457C256.69 84.2492 253.824 94.0961 245.292 97.09C236.761 100.084 234.297 93.581 234.297 93.581C234.297 93.581 232.799 102.033 224.394 102.954C218.636 103.584 215.518 98.5781 215.518 98.5781C215.518 98.5781 213.764 108.622 204.593 109.23C196.062 109.795 196.3 100.578 196.3 100.578C196.3 100.578 192.629 107.45 185.107 107.828C177.585 108.206 173.68 102.162 175.566 97.09C177.452 92.0178 181.018 90.748 181.018 90.748C181.018 90.748 178.02 89.2507 178.02 82.7499C178.02 82.7499 178.02 75.9352 186.47 74.8449C192.739 74.0359 196.209 80.2432 196.209 80.2432C196.209 80.2432 196.209 68.0228 207.459 66.094C216.668 64.5151 218.003 74.2042 218.003 74.2042C218.003 74.2042 221.501 64.9131 230.771 66.0944Z" fill="#F8F2E9"/>
<path d="M632.771 247.094C640.196 248.04 640.835 255.642 640.835 255.642C640.835 255.642 649.96 251.042 654.825 258.946C658.69 265.249 655.824 275.096 647.292 278.09C638.761 281.084 636.297 274.581 636.297 274.581C636.297 274.581 634.799 283.033 626.394 283.954C620.636 284.584 617.518 279.578 617.518 279.578C617.518 279.578 615.764 289.622 606.593 290.23C598.062 290.795 598.3 281.578 598.3 281.578C598.3 281.578 594.629 288.45 587.107 288.828C579.585 289.206 575.68 283.162 577.566 278.09C579.452 273.018 583.018 271.748 583.018 271.748C583.018 271.748 580.02 270.251 580.02 263.75C580.02 263.75 580.02 256.935 588.47 255.845C594.739 255.036 598.209 261.243 598.209 261.243C598.209 261.243 598.209 249.023 609.459 247.094C618.668 245.515 620.003 255.204 620.003 255.204C620.003 255.204 623.501 245.913 632.771 247.094Z" fill="#F8F2E9"/>
<path d="M75.7711 402.094C83.1965 403.04 83.8354 410.642 83.8354 410.642C83.8354 410.642 92.96 406.042 97.8253 413.946C101.69 420.249 98.8242 430.096 90.2925 433.09C81.7608 436.084 79.2967 429.581 79.2967 429.581C79.2967 429.581 77.7989 438.033 69.394 438.954C63.6357 439.584 60.5184 434.578 60.5184 434.578C60.5184 434.578 58.7644 444.622 49.5929 445.23C41.0623 445.795 41.2996 436.578 41.2996 436.578C41.2996 436.578 37.6287 443.45 30.1068 443.828C22.5849 444.206 18.6801 438.162 20.5663 433.09C22.4524 428.018 26.018 426.748 26.018 426.748C26.018 426.748 23.0196 425.251 23.0196 418.75C23.0196 418.75 23.0195 411.935 31.4698 410.845C37.7393 410.036 41.2088 416.243 41.2088 416.243C41.2088 416.243 41.2088 404.023 52.459 402.094C61.6683 400.515 63.0034 410.204 63.0034 410.204C63.0034 410.204 66.5011 400.913 75.7711 402.094Z" fill="#F8F2E9"/>
<path d="M547.771 445.094C555.196 446.04 555.835 453.642 555.835 453.642C555.835 453.642 564.96 449.042 569.825 456.946C573.69 463.249 570.824 473.096 562.292 476.09C553.761 479.084 551.297 472.581 551.297 472.581C551.297 472.581 549.799 481.033 541.394 481.954C535.636 482.584 532.518 477.578 532.518 477.578C532.518 477.578 530.764 487.622 521.593 488.23C513.062 488.795 513.3 479.578 513.3 479.578C513.3 479.578 509.629 486.45 502.107 486.828C494.585 487.206 490.68 481.162 492.566 476.09C494.452 471.018 498.018 469.748 498.018 469.748C498.018 469.748 495.02 468.251 495.02 461.75C495.02 461.75 495.02 454.935 503.47 453.845C509.739 453.036 513.209 459.243 513.209 459.243C513.209 459.243 513.209 447.023 524.459 445.094C533.668 443.515 535.003 453.204 535.003 453.204C535.003 453.204 538.501 443.913 547.771 445.094Z" fill="#F8F2E9"/>
<path d="M239.298 454.822C239.298 454.822 239.112 444.374 229.005 442.408C216.386 439.954 210.739 452.338 210.739 452.338C210.739 452.338 211.571 438.767 198.785 440.091C184.487 441.573 180.27 458.619 180.27 458.619C180.27 458.619 177.527 449.203 168.081 450.673C155.282 452.659 151.626 467.886 151.626 467.886C151.626 467.886 139.333 465.908 138.114 475.746C136.454 489.153 153.14 487.085 153.14 487.085C153.14 487.085 154.682 495.067 162.532 495.194C172.892 495.358 178.545 486.422 178.545 486.422C178.545 486.422 177.381 499 189.143 499C201.79 499 205.111 485.429 205.111 485.429C205.111 485.429 208.935 492.555 216.898 492.215C228.52 491.716 231.345 480.299 231.345 480.299C231.345 480.299 234.136 489.411 246.121 486.091C258.106 482.772 262.936 469.571 258.203 460.605C252.243 449.361 239.298 454.822 239.298 454.822Z" fill="#F8F2E9"/>
<path d="M654.3 72.822C654.3 72.822 654.114 62.3736 644.006 60.4084C631.388 57.9543 625.741 70.3375 625.741 70.3375C625.741 70.3375 626.573 56.7667 613.787 58.091C599.489 59.5732 595.272 76.6187 595.272 76.6187C595.272 76.6187 592.529 67.2029 583.083 68.673C570.284 70.6594 566.628 85.8856 566.628 85.8856C566.628 85.8856 554.335 83.9083 553.116 93.7462C551.455 107.153 568.142 105.085 568.142 105.085C568.142 105.085 569.684 113.067 577.534 113.194C587.894 113.358 593.547 104.422 593.547 104.422C593.547 104.422 592.383 117 604.145 117C616.792 117 620.113 103.429 620.113 103.429C620.113 103.429 623.937 110.555 631.9 110.215C643.522 109.716 646.347 98.2991 646.347 98.2991C646.347 98.2991 649.138 107.411 661.123 104.091C673.108 100.772 677.938 87.5713 673.205 78.6051C667.245 67.3609 654.3 72.822 654.3 72.822Z" fill="#F8F2E9"/>
<path d="M100.232 340.778L92 338.5L100.232 336.222L102.509 328L104.768 336.222L113 338.5L104.768 340.778L102.509 349L100.232 340.778Z" fill="#F8F2E9" stroke="#232222" stroke-linejoin="round"/>
<path d="M291.488 443.519L286 442L291.488 440.481L293.006 435L294.512 440.481L300 442L294.512 443.519L293.006 449L291.488 443.519Z" fill="#F8F2E9" stroke="#232222" stroke-linejoin="round"/>
<path d="M178.488 190.519L173 189L178.488 187.481L180.006 182L181.512 187.481L187 189L181.512 190.519L180.006 196L178.488 190.519Z" fill="#F8F2E9" stroke="#232222" stroke-linejoin="round"/>
<path d="M355.488 86.5188L350 85L355.488 83.4812L357.006 78L358.512 83.4812L364 85L358.512 86.5188L357.006 92L355.488 86.5188Z" fill="#F8F2E9" stroke="#232222" stroke-linejoin="round"/>
<path d="M384.624 180.387L376 178L384.624 175.613L387.009 167L389.376 175.613L398 178L389.376 180.387L387.009 189L384.624 180.387Z" fill="#F8F2E9" stroke="#232222" stroke-linejoin="round"/>
<path d="M91.7696 178.99C96.3794 183.022 103.733 197.021 103.733 197.021H99.388L89.0406 182.7L91.7696 178.99Z" fill="#F8F2E9" stroke="#232222" stroke-linejoin="round"/>
<path d="M73.9907 163.059C73.9907 163.059 74.6053 157.758 73.6004 157.088C72.5955 156.418 72.9304 160.075 72.9304 160.075C72.9304 160.075 73.4897 157.091 72.4295 157.002C71.3692 156.913 71.6489 160.434 71.6489 160.434C71.6489 160.434 72.0392 157.921 71.0896 157.865C70.14 157.81 70.4749 162.945 71.5351 165.456L73.9907 163.059Z" fill="#F8F2E9" stroke="#232222" stroke-linejoin="round"/>
<path d="M93.643 172.527C93.643 172.527 94.7585 171.055 94.0333 169.626C93.308 168.197 91.799 166.636 88.228 166.916C85.7479 167.109 83.2525 168.895 78.8793 166.237C76.5929 164.851 75.333 166.356 77.5119 167.976C79.6908 169.596 83.0436 170.376 83.0436 170.376C83.0436 170.376 77.9082 168.345 77.2935 169.11C76.6789 169.875 78.9686 171.602 80.8094 172.106C82.6502 172.61 83.9348 172.998 83.9348 172.998C83.9348 172.998 78.5075 171.599 78.9131 172.527C80.2038 175.511 90.0904 178.065 93.643 172.527Z" fill="#232222" stroke="#232222" stroke-linejoin="round"/>
<path fill-rule="evenodd" clip-rule="evenodd" d="M87.7257 169.397C88.3527 168.77 89.2032 168.418 90.09 168.418C90.9767 168.418 91.8272 168.77 92.4543 169.397C93.0813 170.024 93.4336 170.875 93.4336 171.762V174.767C93.4336 175.264 93.2361 175.741 92.8845 176.093C92.533 176.444 92.0561 176.642 91.5589 176.642H90.634L90.3079 177.446L86.4577 175.884L86.9941 174.561C86.832 174.164 86.7463 173.736 86.7463 173.298V171.762C86.7463 170.875 87.0986 170.024 87.7257 169.397Z" fill="#F8F2E9"/>
<path d="M92.4543 169.397L92.1007 169.751L92.4543 169.397ZM92.8845 176.093L93.2381 176.446H93.2381L92.8845 176.093ZM90.634 176.642L90.1707 176.454C90.2472 176.265 90.4305 176.142 90.634 176.142V176.642ZM90.3079 177.446L90.7712 177.634C90.7214 177.757 90.6248 177.855 90.5026 177.906C90.3805 177.958 90.2428 177.959 90.1199 177.909L90.3079 177.446ZM86.4577 175.884L86.2697 176.347C86.0138 176.243 85.8905 175.952 85.9943 175.696L86.4577 175.884ZM86.9941 174.561L87.4571 174.373C87.5064 174.493 87.5065 174.628 87.4575 174.749L86.9941 174.561ZM90.09 168.418V168.918C89.3358 168.918 88.6125 169.218 88.0792 169.751L87.7257 169.397L87.3721 169.044C88.0929 168.323 89.0706 167.918 90.09 167.918V168.418ZM92.4543 169.397L92.1007 169.751C91.5674 169.218 90.8441 168.918 90.09 168.918V168.418V167.918C91.1094 167.918 92.087 168.323 92.8078 169.044L92.4543 169.397ZM93.4336 171.762H92.9336C92.9336 171.007 92.634 170.284 92.1007 169.751L92.4543 169.397L92.8078 169.044C93.5286 169.765 93.9336 170.742 93.9336 171.762H93.4336ZM93.4336 174.767H92.9336V171.762H93.4336H93.9336V174.767H93.4336ZM92.8845 176.093L92.531 175.739C92.7888 175.481 92.9336 175.132 92.9336 174.767H93.4336H93.9336C93.9336 175.397 93.6834 176.001 93.2381 176.446L92.8845 176.093ZM91.5589 176.642V176.142C91.9235 176.142 92.2732 175.997 92.531 175.739L92.8845 176.093L93.2381 176.446C92.7927 176.892 92.1887 177.142 91.5589 177.142V176.642ZM90.634 176.642V176.142H91.5589V176.642V177.142H90.634V176.642ZM90.634 176.642L91.0973 176.83L90.7712 177.634L90.3079 177.446L89.8446 177.258L90.1707 176.454L90.634 176.642ZM90.3079 177.446L90.1199 177.909L86.2697 176.347L86.4577 175.884L86.6456 175.421L90.4958 176.982L90.3079 177.446ZM86.4577 175.884L85.9943 175.696L86.5308 174.373L86.9941 174.561L87.4575 174.749L86.921 176.072L86.4577 175.884ZM86.7463 173.298H87.2463C87.2463 173.67 87.3192 174.035 87.4571 174.373L86.9941 174.561L86.5312 174.75C86.3449 174.294 86.2463 173.801 86.2463 173.298H86.7463ZM86.7463 171.762H87.2463V173.298H86.7463H86.2463V171.762H86.7463ZM87.7257 169.397L88.0792 169.751C87.5459 170.284 87.2463 171.007 87.2463 171.762H86.7463H86.2463C86.2463 170.742 86.6513 169.765 87.3721 169.044L87.7257 169.397Z" fill="#232222"/>
<path d="M94.7256 193.9L94.0433 183.682C93.5514 181.264 92.2281 179.094 90.3032 177.551L88.7557 176.281C87.3624 175.095 86.052 174.857 85.2723 174.712C84.4926 174.567 84.6143 174.766 83.8926 175.095C83.149 175.434 82.5322 176 82.1312 176.712C81.7302 177.424 81.5657 178.245 81.6614 179.057L82.8384 189.112C82.8384 189.112 88.696 189.33 94.7256 193.9Z" fill="#F8F2E9" stroke="#232222" stroke-linejoin="round"/>
<path d="M130.292 286.521L139.282 295.056L150.459 283.283L134.906 257.77C134.906 257.77 134.649 266.831 133.784 272.287C132.92 277.744 130.292 286.521 130.292 286.521Z" fill="#FF6F23" stroke="#232222" stroke-linejoin="round"/>
<path d="M66.8855 293.931L51.853 300.645L44.6226 286.112L66.9793 266.288L66.8855 293.931Z" fill="#FF6F23" stroke="#232222" stroke-linejoin="round"/>
<path d="M139.242 295.178C138.147 294.139 139.762 290.662 142.849 287.411C145.935 284.16 149.324 282.367 150.418 283.406C151.512 284.445 149.897 287.922 146.811 291.173C143.725 294.424 140.336 296.217 139.242 295.178Z" fill="#232222" stroke="#232222" stroke-linejoin="round"/>
<path d="M46.2146 294.698C44.2181 290.685 43.6949 286.886 45.0459 286.214C46.3968 285.542 49.1104 288.251 51.1068 292.264C53.1032 296.278 53.6265 300.076 52.2755 300.748C50.9246 301.42 48.211 298.711 46.2146 294.698Z" fill="#232222" stroke="#232222" stroke-linejoin="round"/>
<path d="M155.116 232.432C155.675 229.359 156.345 221.645 151.634 212.963C151.052 211.871 150.062 211.053 148.879 210.688C147.696 210.324 146.417 210.442 145.321 211.018C141.615 212.985 137.973 217.299 136.409 224.503C136.365 224.673 136.371 224.851 136.425 225.018C136.479 225.185 136.58 225.332 136.715 225.444C136.85 225.556 137.014 225.626 137.188 225.648C137.362 225.67 137.539 225.641 137.697 225.566C139.138 224.89 141.643 224.466 145.798 225.683C151.486 227.352 155.116 232.432 155.116 232.432Z" fill="#FF6F23" stroke="#232222" stroke-linejoin="round"/>
<path d="M34.1697 247.382C36.533 274.137 62.947 293.658 97.9998 290.564C133.053 287.469 159.553 263.274 157.189 236.522C154.826 209.77 124.497 190.59 89.444 193.688C54.3913 196.785 31.8034 220.63 34.1697 247.382Z" fill="#FF6F23" stroke="#232222" stroke-linejoin="round"/>
<path d="M120.987 273.483L130.931 280.333L140.142 266.969L120.811 244.186" fill="#FF6F23"/>
<path d="M120.987 273.483L130.931 280.333L140.142 266.969L120.811 244.186" stroke="#232222" stroke-linejoin="round"/>
<path d="M56.9295 279.054L46.2966 284.778L38.599 270.484L60.3088 249.95" fill="#FF6F23"/>
<path d="M56.9295 279.054L46.2966 284.778L38.599 270.484L60.3088 249.95" stroke="#232222" stroke-linejoin="round"/>
<path d="M154.049 224.781L160.988 224.166L162.955 246.437L156.016 247.052C153.613 247.264 151.225 242.442 150.681 236.296C150.137 230.15 151.658 224.993 154.049 224.781Z" fill="#FF6F23" stroke="#232222" stroke-linejoin="round"/>
<path d="M157.51 235.745C156.967 229.595 158.473 224.436 160.876 224.224C163.278 224.012 165.667 228.826 166.21 234.976C166.754 241.127 165.247 246.285 162.844 246.498C160.442 246.71 158.054 241.896 157.51 235.745Z" fill="#FF6F23" stroke="#232222" stroke-linejoin="round"/>
<path d="M137.317 205.101C135.738 202.139 131.182 195.216 121.402 191.071C120.175 190.545 118.79 190.523 117.546 191.008C116.302 191.493 115.298 192.446 114.75 193.664C112.915 197.793 112.693 203.855 116.155 210.956C116.237 211.124 116.363 211.267 116.521 211.367C116.678 211.468 116.861 211.523 117.048 211.526C117.234 211.53 117.419 211.481 117.579 211.386C117.74 211.291 117.872 211.153 117.959 210.988C118.729 209.457 120.573 207.423 124.911 205.667C130.841 203.265 137.317 205.101 137.317 205.101Z" fill="#FF6F23" stroke="#232222" stroke-linejoin="round"/>
<path d="M139.973 217.372C139.319 216.141 139.397 214.82 140.148 214.421C140.899 214.022 142.038 214.696 142.692 215.926C143.346 217.157 143.267 218.478 142.516 218.877C141.766 219.276 140.627 218.602 139.973 217.372Z" fill="#FF6F23" stroke="#232222" stroke-linejoin="round"/>
<path d="M163.661 236.94C163.577 235.989 163.81 235.19 164.182 235.158C164.554 235.125 164.924 235.87 165.008 236.821C165.092 237.773 164.859 238.572 164.487 238.604C164.115 238.637 163.745 237.892 163.661 236.94Z" fill="#232222" stroke="#232222" stroke-linejoin="round"/>
<path d="M159.941 233.794C159.857 232.842 160.09 232.044 160.462 232.011C160.834 231.978 161.204 232.723 161.288 233.675C161.372 234.627 161.139 235.425 160.767 235.458C160.395 235.491 160.025 234.746 159.941 233.794Z" fill="#232222" stroke="#232222" stroke-linejoin="round"/>
<path d="M130.911 280.461C129.668 279.605 130.722 275.919 133.266 272.228C135.809 268.537 138.878 266.238 140.12 267.094C141.363 267.951 140.308 271.637 137.765 275.328C135.222 279.019 132.153 281.318 130.911 280.461Z" fill="#232222" stroke="#232222" stroke-linejoin="round"/>
<path d="M40.0005 278.979C37.8757 275.032 37.2302 271.253 38.5587 270.537C39.8873 269.822 42.6869 272.442 44.8117 276.389C46.9366 280.336 47.5821 284.115 46.2535 284.83C44.925 285.546 42.1254 282.926 40.0005 278.979Z" fill="#232222" stroke="#232222" stroke-linejoin="round"/>
<path d="M91.1875 171.489C91.882 171.55 91.4763 169.089 92.4167 169.703C93.4463 170.373 93.646 172.524 93.646 172.524C94.5926 172.383 95.0965 168.419 91.4793 167.438C87.7608 166.433 85.671 167.927 85.2746 169.623C84.8781 171.32 86.1043 175.598 87.0294 174.58C87.9544 173.563 89.2113 173.499 89.0454 171.433C88.8794 169.368 89.8444 170.106 90.1395 170.161C90.4345 170.216 89.8906 171.378 91.1875 171.489Z" fill="#232222" stroke="#232222" stroke-linejoin="round"/>
<path d="M89.8234 172.196C89.8234 172.196 88.7571 171.145 88.7356 170.217C88.7141 169.289 89.8173 169.172 90.4442 170.217C90.813 170.829 91.2739 172.934 89.8234 172.196Z" fill="#F8F2E9" stroke="#232222" stroke-linejoin="round"/>
<path d="M92.3021 191.058L90.0894 187.121L85.455 188.427C83.1655 189.214 82.0746 190.886 83.1072 194.057C84.1398 197.229 92.133 201.94 92.133 201.94L84.9972 209.039L90.5043 214.094L98.9586 205.136C99.7507 204.283 100.199 203.167 100.218 202.002C100.237 200.838 99.8243 199.708 99.06 198.83L92.299 191.058" fill="#B1C6C3"/>
<path d="M92.3021 191.058L90.0894 187.121L85.455 188.427C83.1655 189.214 82.0746 190.886 83.1072 194.057C84.1398 197.229 92.133 201.94 92.133 201.94L84.9972 209.039L90.5043 214.094L98.9586 205.136C99.7507 204.283 100.199 203.167 100.218 202.002C100.237 200.838 99.8243 199.708 99.06 198.83L92.299 191.058" stroke="#232222" stroke-linejoin="round"/>
<path d="M81.9397 181.64C82.0727 183.007 82.0994 184.383 82.0198 185.754L81.7911 189.691C82.0984 192.15 84.786 188.923 88.3724 189.114C90.5728 189.225 91.9958 190.69 93.1083 192C94.0794 193.143 94.7217 193.911 94.7217 193.911L94.0394 183.693" fill="#F8F2E9"/>
<path d="M94.0394 183.693L94.7217 193.911C94.7217 193.911 94.0794 193.143 93.1083 192C91.9958 190.69 90.5728 189.225 88.3724 189.114C84.786 188.923 82.0984 192.15 81.7911 189.691L82.0198 185.754C82.0994 184.383 82.0727 183.007 81.9397 181.64L81.7911 180.111" stroke="#232222" stroke-linejoin="round"/>
<path d="M90.5029 214.1C88.6252 215.815 83.3731 210.658 84.9958 209.044C86.6184 207.431 92.7771 212.019 90.5029 214.1Z" fill="#5D766F" stroke="#232222" stroke-linejoin="round"/>
<path d="M91.2584 218.715C89.4913 220.866 82.131 213.45 84.3068 211.695C85.3475 210.86 86.3331 209.957 87.2571 208.994C87.2571 208.994 87.7395 209.046 89.0395 210.039C89.5544 210.428 90.0091 210.891 90.3887 211.413L89.1902 212.138C88.9892 212.325 88.8634 212.578 88.8368 212.851C88.8102 213.124 88.8845 213.397 89.0457 213.619C90.0629 215.018 91.9591 217.86 91.2584 218.715Z" fill="#232222" stroke="#232222" stroke-linejoin="round"/>
<path d="M84.3587 181.228C80.8645 179.691 72.4255 174.955 70.6431 164.264L74.6597 162.002C74.6597 162.002 76.4329 172.352 86.7557 175.091C87.1882 175.207 87.8871 175.585 88.7579 176.281" fill="#F8F2E9"/>
<path d="M84.3587 181.228C80.8645 179.691 72.4255 174.955 70.6431 164.264L74.6597 162.002C74.6597 162.002 76.4329 172.352 86.7557 175.091C87.1882 175.207 87.8871 175.585 88.7579 176.281L90.6738 177.849" stroke="#232222" stroke-linejoin="round"/>
<line x1="22.75" y1="41.25" x2="609.25" y2="41.25" stroke="#232222" stroke-width="1.5" stroke-linecap="round"/>
<path d="M542.087 15.5H552.127V17.2C548.547 20.1 546.327 24.58 545.987 30H543.787C544.107 24.8 546.407 20.32 550.007 17.2H542.087V15.5ZM561.461 23.14C560.801 24.28 559.541 25.16 557.621 25.16C554.941 25.16 552.961 23.14 552.961 20.22C552.961 17.54 554.961 15.24 558.061 15.24C561.681 15.24 563.341 17.76 563.341 22.24C563.341 26.34 561.861 30.26 557.681 30.26C554.841 30.26 553.501 28.48 553.201 26.64H555.181C555.421 27.94 556.401 28.74 557.881 28.74C560.121 28.74 561.361 26.5 561.461 23.14ZM558.081 16.76C556.201 16.76 554.901 18.16 554.901 20.14C554.901 22.12 556.181 23.56 558.061 23.56C559.961 23.56 561.221 22.12 561.221 20.14C561.221 18.14 560.001 16.76 558.081 16.76ZM564.328 30L570.028 15.5H571.868L566.148 30H564.328ZM581.902 19.04C581.902 22.4 578.402 25.38 574.342 28.3H582.302V30H571.862V28.36C576.982 24.58 579.982 21.84 579.982 19.28C579.982 17.78 578.982 16.76 577.262 16.76C575.702 16.76 574.182 17.62 574.142 20.02H572.262C572.222 17.14 574.222 15.24 577.302 15.24C579.982 15.24 581.902 16.6 581.902 19.04ZM589.659 30.26C585.799 30.26 584.019 27.34 584.019 22.74C584.019 18.16 585.799 15.24 589.659 15.24C593.519 15.24 595.299 18.16 595.299 22.74C595.299 27.34 593.519 30.26 589.659 30.26ZM589.659 16.76C587.379 16.76 585.959 18.72 585.959 22.74C585.959 26.78 587.379 28.74 589.659 28.74C591.939 28.74 593.359 26.78 593.359 22.74C593.359 18.72 591.939 16.76 589.659 16.76ZM602.881 30.26C599.021 30.26 597.241 27.34 597.241 22.74C597.241 18.16 599.021 15.24 602.881 15.24C606.741 15.24 608.521 18.16 608.521 22.74C608.521 27.34 606.741 30.26 602.881 30.26ZM602.881 16.76C600.601 16.76 599.181 18.72 599.181 22.74C599.181 26.78 600.601 28.74 602.881 28.74C605.161 28.74 606.581 26.78 606.581 22.74C606.581 18.72 605.161 16.76 602.881 16.76Z" fill="black"/>
<path d="M227.511 263.346C224.041 256.349 226.902 244.8 235.103 235.131C243.304 225.462 254.232 220.754 261.702 223.036L262.289 222.343L265.558 225.115C272.612 231.098 270.412 245.283 260.646 256.796C250.88 268.31 237.246 272.794 230.192 266.811L226.924 264.039L227.511 263.346Z" fill="#232222"/>
<path d="M263.108 223.038C270.161 229.021 267.963 243.205 258.197 254.718C248.431 266.232 234.797 270.716 227.743 264.733C220.69 258.75 222.888 244.567 232.654 233.053C242.42 221.54 256.054 217.056 263.108 223.038Z" fill="#FFB772" stroke="#232222" stroke-linejoin="round"/>
<path d="M506.197 28.2833C505.762 24.7149 508.772 20.1404 513.811 17.1989C518.851 14.2575 524.315 13.8864 527.208 16.0203L527.569 15.8095L528.563 17.5132C530.709 21.1896 527.583 27.0096 521.582 30.5123C515.581 34.015 508.976 33.8741 506.831 30.1977L505.836 28.4941L506.197 28.2833Z" fill="#232222"/>
<path d="M527.817 16.2362C529.963 19.9126 526.838 25.7323 520.837 29.235C514.836 32.7376 508.231 32.5967 506.085 28.9204C503.94 25.244 507.065 19.4242 513.066 15.9216C519.067 12.419 525.672 12.5598 527.817 16.2362Z" fill="#FFB772" stroke="#232222" stroke-linejoin="round"/>
<path d="M313.362 258.895C311.444 251.323 316.675 240.637 326.73 232.914C336.784 225.191 348.459 222.891 355.28 226.696L356 226.142L358.611 229.541C364.245 236.876 359.106 250.279 347.133 259.476C335.16 268.673 320.887 270.182 315.252 262.847L312.641 259.448L313.362 258.895Z" fill="#232222"/>
<path d="M356.655 226.996C362.289 234.33 357.151 247.732 345.178 256.929C333.205 266.126 318.931 267.635 313.297 260.3C307.663 252.966 312.802 239.564 324.774 230.367C336.747 221.17 351.021 219.661 356.655 226.996Z" fill="#FFB772" stroke="#232222" stroke-linejoin="round"/>
<path d="M400.499 135.532C398.053 128.505 402.135 117.931 411.039 109.771C419.943 101.611 430.832 98.4646 437.62 101.512L438.258 100.928L441.016 103.938C446.969 110.433 443.198 123.577 432.595 133.293C421.992 143.01 408.572 145.622 402.619 139.126L399.861 136.116L400.499 135.532Z" fill="#232222"/>
<path d="M438.948 101.681C444.9 108.176 441.131 121.319 430.528 131.036C419.925 140.752 406.504 143.364 400.552 136.868C394.599 130.373 398.369 117.23 408.971 107.514C419.574 97.7969 432.995 95.1855 438.948 101.681Z" fill="#FFB772" stroke="#232222" stroke-linejoin="round"/>
<path d="M284.498 135.532C282.052 128.505 286.134 117.931 295.038 109.771C303.942 101.611 314.831 98.4646 321.619 101.512L322.257 100.928L325.015 103.938C330.968 110.433 327.197 123.577 316.594 133.293C305.992 143.01 292.571 145.622 286.618 139.126L283.86 136.116L284.498 135.532Z" fill="#232222"/>
<path d="M322.947 101.681C328.899 108.176 325.13 121.319 314.527 131.036C303.924 140.752 290.503 143.364 284.551 136.868C278.598 130.373 282.368 117.23 292.97 107.514C303.573 97.7969 316.994 95.1855 322.947 101.681Z" fill="#FFB772" stroke="#232222" stroke-linejoin="round"/>
<path d="M113.498 135.532C111.052 128.505 115.134 117.931 124.038 109.771C132.942 101.611 143.831 98.4646 150.619 101.512L151.257 100.928L154.015 103.938C159.968 110.433 156.197 123.577 145.594 133.293C134.992 143.01 121.571 145.622 115.618 139.126L112.86 136.116L113.498 135.532Z" fill="#232222"/>
<path d="M151.947 101.681C157.899 108.176 154.13 121.319 143.527 131.036C132.924 140.752 119.503 143.364 113.551 136.868C107.598 130.373 111.368 117.23 121.97 107.514C132.573 97.7969 145.994 95.1855 151.947 101.681Z" fill="#FFB772" stroke="#232222" stroke-linejoin="round"/>
<path d="M479.498 401.159C477.052 394.131 481.134 383.558 490.038 375.398C498.942 367.238 509.831 364.092 516.619 367.139L517.257 366.555L520.015 369.565C525.968 376.06 522.197 389.204 511.594 398.92C500.992 408.637 487.571 411.249 481.618 404.753L478.86 401.743L479.498 401.159Z" fill="#232222"/>
<path d="M517.947 367.308C523.899 373.803 520.13 386.946 509.527 396.663C498.924 406.379 485.503 408.991 479.551 402.495C473.598 396 477.368 382.857 487.97 373.141C498.573 363.424 511.994 360.812 517.947 367.308Z" fill="#FFB772" stroke="#232222" stroke-linejoin="round"/>
<path d="M504.932 137.307C502.487 130.28 506.568 119.707 515.472 111.547C524.376 103.387 535.266 100.24 542.053 103.288L542.691 102.703L545.45 105.713C551.402 112.209 547.632 125.352 537.029 135.069C526.426 144.786 513.005 147.397 507.053 140.902L504.294 137.892L504.932 137.307Z" fill="#232222"/>
<path d="M543.381 103.456C549.334 109.952 545.564 123.094 534.962 132.811C524.359 142.528 510.938 145.139 504.985 138.644C499.033 132.148 502.802 119.006 513.405 109.289C524.008 99.5723 537.428 96.9608 543.381 103.456Z" fill="#FFB772" stroke="#232222" stroke-linejoin="round"/>
<path d="M503.498 265.159C501.052 258.131 505.134 247.558 514.038 239.398C522.942 231.238 533.831 228.092 540.619 231.139L541.257 230.555L544.015 233.565C549.968 240.06 546.197 253.204 535.594 262.92C524.992 272.637 511.571 275.249 505.618 268.753L502.86 265.743L503.498 265.159Z" fill="#232222"/>
<path d="M541.947 231.308C547.899 237.803 544.13 250.946 533.527 260.663C522.924 270.379 509.503 272.991 503.551 266.495C497.598 260 501.368 246.857 511.97 237.141C522.573 227.424 535.994 224.812 541.947 231.308Z" fill="#FFB772" stroke="#232222" stroke-linejoin="round"/>
<path d="M387.498 407.159C385.052 400.131 389.134 389.558 398.038 381.398C406.942 373.238 417.831 370.092 424.619 373.139L425.257 372.555L428.015 375.565C433.968 382.06 430.197 395.204 419.594 404.92C408.992 414.637 395.571 417.249 389.618 410.753L386.86 407.743L387.498 407.159Z" fill="#232222"/>
<path d="M425.947 373.308C431.899 379.803 428.13 392.946 417.527 402.663C406.924 412.379 393.503 414.991 387.551 408.495C381.598 402 385.368 388.857 395.97 379.141C406.573 369.424 419.994 366.812 425.947 373.308Z" fill="#FFB772" stroke="#232222" stroke-linejoin="round"/>
<path d="M294.498 399.159C292.052 392.131 296.134 381.558 305.038 373.398C313.942 365.238 324.831 362.092 331.619 365.139L332.257 364.555L335.015 367.565C340.968 374.06 337.197 387.204 326.594 396.92C315.992 406.637 302.571 409.249 296.618 402.753L293.86 399.743L294.498 399.159Z" fill="#232222"/>
<path d="M332.947 365.308C338.899 371.803 335.13 384.946 324.527 394.663C313.924 404.379 300.503 406.991 294.551 400.495C288.598 394 292.368 380.857 302.97 371.141C313.573 361.424 326.994 358.812 332.947 365.308Z" fill="#FFB772" stroke="#232222" stroke-linejoin="round"/>
<path d="M194.498 394.159C192.052 387.131 196.134 376.558 205.038 368.398C213.942 360.238 224.831 357.092 231.619 360.139L232.257 359.555L235.015 362.565C240.968 369.06 237.197 382.204 226.594 391.92C215.992 401.637 202.571 404.249 196.618 397.753L193.86 394.743L194.498 394.159Z" fill="#232222"/>
<path d="M232.947 360.308C238.899 366.803 235.13 379.946 224.527 389.663C213.924 399.379 200.503 401.991 194.551 395.495C188.598 389 192.368 375.857 202.97 366.141C213.573 356.424 226.994 353.812 232.947 360.308Z" fill="#FFB772" stroke="#232222" stroke-linejoin="round"/>
<path d="M121.498 403.159C119.052 396.131 123.134 385.558 132.038 377.398C140.942 369.238 151.831 366.092 158.619 369.139L159.257 368.555L162.015 371.565C167.968 378.06 164.197 391.204 153.594 400.92C142.992 410.637 129.571 413.249 123.618 406.753L120.86 403.743L121.498 403.159Z" fill="#232222"/>
<path d="M159.947 369.308C165.899 375.803 162.13 388.946 151.527 398.663C140.924 408.379 127.503 410.991 121.551 404.495C115.598 398 119.368 384.857 129.97 375.141C140.573 365.424 153.994 362.812 159.947 369.308Z" fill="#FFB772" stroke="#232222" stroke-linejoin="round"/>
<path d="M61.4975 410.159C59.0522 403.131 63.1338 392.558 72.0378 384.398C80.9417 376.238 91.8311 373.092 98.6187 376.139L99.2566 375.555L102.015 378.565C107.968 385.06 104.197 398.204 93.5944 407.92C82.9915 417.637 69.5708 420.249 63.6181 413.753L60.8596 410.743L61.4975 410.159Z" fill="#232222"/>
<path d="M99.9466 376.308C105.899 382.803 102.13 395.946 91.5269 405.663C80.9242 415.379 67.5034 417.991 61.5507 411.495C55.5981 405 59.3677 391.857 69.9704 382.141C80.5731 372.424 93.9939 369.812 99.9466 376.308Z" fill="#FFB772" stroke="#232222" stroke-linejoin="round"/>
<path d="M415.498 258.159C413.052 251.131 417.134 240.558 426.038 232.398C434.942 224.238 445.831 221.092 452.619 224.139L453.257 223.555L456.015 226.565C461.968 233.06 458.197 246.204 447.594 255.92C436.992 265.637 423.571 268.249 417.618 261.753L414.86 258.743L415.498 258.159Z" fill="#232222"/>
<path d="M453.947 224.308C459.899 230.803 456.13 243.946 445.527 253.663C434.924 263.379 421.503 265.991 415.551 259.495C409.598 253 413.368 239.857 423.97 230.141C434.573 220.424 447.994 217.812 453.947 224.308Z" fill="#FFB772" stroke="#232222" stroke-linejoin="round"/>
<path d="M563.498 401.159C561.052 394.131 565.134 383.558 574.038 375.398C582.942 367.238 593.831 364.092 600.619 367.139L601.257 366.555L604.015 369.565C609.968 376.06 606.197 389.204 595.594 398.92C584.992 408.637 571.571 411.249 565.618 404.753L562.86 401.743L563.498 401.159Z" fill="#232222"/>
<path d="M601.947 367.308C607.899 373.803 604.13 386.946 593.527 396.663C582.924 406.379 569.503 408.991 563.551 402.495C557.598 396 561.368 382.857 571.97 373.141C582.573 363.424 595.994 360.812 601.947 367.308Z" fill="#FFB772" stroke="#232222" stroke-linejoin="round"/>
<path d="M37.6703 34.8848L38.5859 35.6478L35.7577 35.648L34.8978 34.8849L37.6703 34.8848Z" fill="#232222" stroke="#232222" stroke-width="0.802063" stroke-linejoin="round"/>
<path d="M45.5551 34.8848L46.4707 35.6478L43.6425 35.648L42.7826 34.8849L45.5551 34.8848Z" fill="#232222" stroke="#232222" stroke-width="0.802063" stroke-linejoin="round"/>
<path d="M45.5814 30.1814L46.4971 30.9445L40.3356 14.1576L39.4757 13.3945L45.5814 30.1814Z" fill="#232222" stroke="#232222" stroke-width="0.802063" stroke-linejoin="round"/>
<path d="M45.5803 34.8858L46.496 35.6488L58.3945 5.76304L57.6618 5L45.5803 34.8858Z" fill="#232222" stroke="#232222" stroke-width="0.802063" stroke-linejoin="round"/>
<path d="M45.735 34.8817L57.6454 5.02148H55.7353L45.4019 29.8408L39.3329 13.3459H34.8799L42.7872 34.8798L45.735 34.8817Z" fill="#FF6F23" stroke="#232222" stroke-width="0.802063" stroke-linejoin="round"/>
<path d="M37.6956 34.8858L38.6112 35.6488L50.5098 5.76304L49.777 5L37.6956 34.8858Z" fill="#232222" stroke="#232222" stroke-width="0.802063" stroke-linejoin="round"/>
<path d="M37.6957 30.1814L38.6113 30.9445L32.4498 14.1576L31.5899 13.3945L37.6957 30.1814Z" fill="#232222" stroke="#232222" stroke-width="0.802063" stroke-linejoin="round"/>
<path d="M37.8558 34.8817L49.7661 5.02148H47.8548L37.5214 29.8408L31.4523 13.3459H27L34.9079 34.8817H37.8558Z" fill="#FF6F23" stroke="#232222" stroke-width="0.802063" stroke-linejoin="round"/>
<path d="M25.9447 229.207C20.7991 226.477 17.423 224.586 16.0584 223.541C14.8876 222.355 12.7643 217.705 10.0693 210.834C8.95006 207.969 8.33515 206.369 7.52734 204.41" stroke="black" stroke-width="2" stroke-linecap="round"/>
<path d="M24.9801 239.164C23.3997 239.453 21.8192 239.743 18.5709 239.826C15.3226 239.91 10.4543 239.779 5.43848 239.645" stroke="black" stroke-width="2" stroke-linecap="round"/>
<rect width="632" height="476" fill="#232222" fill-opacity="0.32"/>
<g filter="url(#filter0_d_18357_39271)">
<rect x="118" y="131" width="396" height="241" rx="8.88524" fill="white"/>
<path d="M303.973 157.968C304.837 155.7 304.765 155.52 302.965 155.16V154.8H307.573V155.16C306.241 155.52 305.593 155.7 304.765 157.968L300.553 169.2V176.616C300.553 179.028 300.841 179.28 302.173 179.64V180H295.261V179.64C296.593 179.28 296.881 179.028 296.881 176.616V170.064L291.697 157.896C290.761 155.7 290.077 155.52 288.781 155.16V154.8H296.953V155.16C295.153 155.52 295.117 155.7 296.053 157.932L300.193 167.868L303.973 157.968ZM316.548 180.468C315.792 180.468 315.324 180 315.324 178.776V177.768C314.316 179.46 312.66 180.504 310.5 180.504C306.9 180.504 303.984 178.2 303.984 173.16C303.984 168.156 306.9 165.888 310.536 165.888C312.696 165.888 314.316 166.86 315.324 168.588V167.76C315.324 163.548 314.388 162.216 311.94 162.216C310.212 162.216 307.8 162.972 305.676 165.852H304.92L306.828 162.144C308.628 162.144 310.32 161.496 312.408 161.496C316.404 161.496 318.924 163.404 318.924 167.832V176.184C318.924 178.596 318.924 178.704 320.796 178.164L320.94 178.452L318.24 179.892C317.52 180.252 317.052 180.468 316.548 180.468ZM307.98 173.16C307.98 177.012 309.456 179.136 311.616 179.136C313.704 179.136 315.324 177.156 315.324 173.16C315.324 169.2 313.704 167.22 311.652 167.22C309.456 167.22 307.98 169.308 307.98 173.16ZM325.446 187.848C324.258 187.848 323.718 187.272 322.458 187.272L321.45 180.72H322.17C323.538 186.48 324.366 187.128 325.518 187.128C326.67 187.128 327.21 186.084 328.182 183.096L329.046 180.504H327.966L322.314 165.168C321.486 162.9 320.838 162.72 319.542 162.36V162H327.534V162.36C325.626 162.72 325.518 162.9 326.346 165.204L330.378 176.472L334.122 165.204C334.878 162.936 334.77 162.72 332.862 162.36V162H337.578V162.36C336.246 162.72 335.634 162.936 334.878 165.204L328.974 183.024C327.93 186.084 327.39 187.848 325.446 187.848ZM340.489 154.152C341.857 154.152 342.541 155.124 342.541 156.528C342.541 159.3 340.885 163.728 340.885 172.62H340.165C340.165 163.728 338.437 159.3 338.437 156.528C338.437 155.124 339.157 154.152 340.489 154.152ZM338.401 178.308C338.401 177.084 339.265 176.148 340.489 176.148C341.713 176.148 342.577 177.084 342.577 178.308C342.577 179.532 341.713 180.504 340.489 180.504C339.265 180.504 338.401 179.532 338.401 178.308Z" fill="#232222"/>
<path d="M224.373 215.5L228.333 222.58L232.373 215.5H234.613L229.293 224.38V230H227.253V224.34L222.133 215.5H224.373ZM243.876 224.66C243.876 228.56 241.216 230.26 238.716 230.26C236.216 230.26 233.556 228.56 233.556 224.66C233.556 220.76 236.216 219.06 238.716 219.06C241.216 219.06 243.876 220.76 243.876 224.66ZM238.716 228.66C240.356 228.66 241.936 227.42 241.936 224.66C241.936 221.8 240.356 220.66 238.716 220.66C237.076 220.66 235.496 221.72 235.496 224.66C235.496 227.52 237.076 228.66 238.716 228.66ZM252.713 228.46C252.093 229.48 251.113 230.26 249.333 230.26C246.833 230.26 245.893 228.58 245.893 226.12V219.24H247.713V225.58C247.713 227.24 247.993 228.68 249.973 228.68C251.693 228.68 252.713 227.46 252.713 225.16V219.24H254.533V230H252.713V228.46ZM271.127 222.84H269.287C269.027 221.56 267.907 220.66 266.507 220.66C264.887 220.66 263.407 221.92 263.407 224.62C263.407 227.36 264.907 228.66 266.507 228.66C268.027 228.66 269.107 227.64 269.367 226.5H271.247C270.887 228.52 268.947 230.26 266.447 230.26C263.367 230.26 261.427 227.92 261.427 224.64C261.427 221.44 263.447 219.06 266.627 219.06C269.227 219.06 270.887 221.02 271.127 222.84ZM272.659 227.16C272.659 224.62 275.519 223.88 279.939 223.38V223.12C279.939 221.16 278.839 220.5 277.499 220.5C275.999 220.5 275.119 221.32 275.039 222.64H273.159C273.339 220.32 275.379 219.02 277.479 219.02C280.439 219.02 281.779 220.44 281.759 223.46L281.739 225.94C281.719 227.74 281.819 228.98 282.019 230H280.179C280.119 229.6 280.059 229.16 280.039 228.52C279.379 229.62 278.259 230.26 276.359 230.26C274.339 230.26 272.659 229.14 272.659 227.16ZM280.079 224.82C276.779 225.16 274.679 225.64 274.679 227.12C274.679 228.14 275.459 228.82 276.759 228.82C278.459 228.82 280.079 228.04 280.079 225.5V224.82ZM291.131 228.46C290.511 229.48 289.531 230.26 287.751 230.26C285.251 230.26 284.311 228.58 284.311 226.12V219.24H286.131V225.58C286.131 227.24 286.411 228.68 288.391 228.68C290.111 228.68 291.131 227.46 291.131 225.16V219.24H292.951V230H291.131V228.46ZM303.078 219.24H304.898V228.56C304.898 230.76 304.498 231.66 303.878 232.34C303.098 233.24 301.758 233.76 300.158 233.76C297.718 233.76 296.078 232.64 295.738 230.46H297.678C297.918 231.42 298.498 232.16 300.178 232.16C301.158 232.16 301.898 231.88 302.378 231.36C302.778 230.94 303.078 230.44 303.078 228.98V227.96C302.418 229.1 301.378 229.82 299.658 229.82C297.278 229.82 295.098 227.9 295.098 224.44C295.098 221 297.278 219.06 299.658 219.06C301.378 219.06 302.418 219.8 303.078 220.94V219.24ZM300.118 220.62C298.338 220.62 297.078 222 297.078 224.44C297.078 226.9 298.338 228.28 300.118 228.28C301.738 228.28 303.158 227.18 303.158 224.44C303.158 221.72 301.738 220.62 300.118 220.62ZM309.592 220.86C310.212 219.84 311.252 219.06 313.072 219.06C315.672 219.06 316.612 220.74 316.612 223.2V230H314.792V223.74C314.792 222.08 314.512 220.64 312.432 220.64C310.672 220.64 309.592 221.86 309.592 224.16V230H307.772V215.5H309.592V220.86ZM319.855 216.54H321.675V219.24H323.715V220.7H321.675V227.08C321.675 228.2 321.755 228.48 322.795 228.48H323.715V230H322.395C320.335 230 319.855 229.54 319.855 227.3V220.7H318.155V219.24H319.855V216.54ZM329.945 227.16C329.945 224.62 332.805 223.88 337.225 223.38V223.12C337.225 221.16 336.125 220.5 334.785 220.5C333.285 220.5 332.405 221.32 332.325 222.64H330.445C330.625 220.32 332.665 219.02 334.765 219.02C337.725 219.02 339.065 220.44 339.045 223.46L339.025 225.94C339.005 227.74 339.105 228.98 339.305 230H337.465C337.405 229.6 337.345 229.16 337.325 228.52C336.665 229.62 335.545 230.26 333.645 230.26C331.625 230.26 329.945 229.14 329.945 227.16ZM337.365 224.82C334.065 225.16 331.965 225.64 331.965 227.12C331.965 228.14 332.745 228.82 334.045 228.82C335.745 228.82 337.365 228.04 337.365 225.5V224.82ZM352.823 230L348.823 217.36V230H346.783V215.5H350.202L353.903 227.58L357.603 215.5H361.023V230H358.983V217.36L354.983 230H352.823ZM365.398 225.22C365.478 227.54 367.118 228.66 368.718 228.66C370.318 228.66 371.198 227.94 371.658 226.88H373.538C373.038 228.74 371.338 230.26 368.718 230.26C365.318 230.26 363.438 227.82 363.438 224.64C363.438 221.24 365.718 219.06 368.658 219.06C371.938 219.06 373.918 221.82 373.678 225.22H365.398ZM365.418 223.66H371.758C371.718 222.14 370.578 220.62 368.658 220.62C367.038 220.62 365.578 221.5 365.418 223.66ZM377.619 230H375.799V215.5H377.619V230ZM382.326 230H380.506V215.5H382.326V230ZM394.833 224.66C394.833 228.56 392.173 230.26 389.673 230.26C387.173 230.26 384.513 228.56 384.513 224.66C384.513 220.76 387.173 219.06 389.673 219.06C392.173 219.06 394.833 220.76 394.833 224.66ZM389.673 228.66C391.313 228.66 392.893 227.42 392.893 224.66C392.893 221.8 391.313 220.66 389.673 220.66C388.033 220.66 386.453 221.72 386.453 224.66C386.453 227.52 388.033 228.66 389.673 228.66ZM401.733 219.24H403.613L405.753 227.2L407.813 219.24H409.773L406.673 230H405.013L402.633 221.34L400.333 230H398.673L395.573 219.24H397.533L399.593 227.2L401.733 219.24ZM191.33 239.5V244.94C191.99 243.8 193.13 243.06 194.85 243.06C197.31 243.06 199.45 245.12 199.45 248.66C199.45 252.22 197.31 254.26 194.85 254.26C193.13 254.26 191.99 253.52 191.33 252.38V254H189.51V239.5H191.33ZM194.39 252.7C196.25 252.7 197.47 251.22 197.47 248.66C197.47 246.1 196.25 244.62 194.39 244.62C192.77 244.62 191.25 245.82 191.25 248.66C191.25 251.5 192.77 252.7 194.39 252.7ZM211.298 248.66C211.298 252.56 208.638 254.26 206.138 254.26C203.638 254.26 200.978 252.56 200.978 248.66C200.978 244.76 203.638 243.06 206.138 243.06C208.638 243.06 211.298 244.76 211.298 248.66ZM206.138 252.66C207.778 252.66 209.358 251.42 209.358 248.66C209.358 245.8 207.778 244.66 206.138 244.66C204.498 244.66 202.918 245.72 202.918 248.66C202.918 251.52 204.498 252.66 206.138 252.66ZM223.251 248.66C223.251 252.56 220.591 254.26 218.091 254.26C215.591 254.26 212.931 252.56 212.931 248.66C212.931 244.76 215.591 243.06 218.091 243.06C220.591 243.06 223.251 244.76 223.251 248.66ZM218.091 252.66C219.731 252.66 221.311 251.42 221.311 248.66C221.311 245.8 219.731 244.66 218.091 244.66C216.451 244.66 214.871 245.72 214.871 248.66C214.871 251.52 216.451 252.66 218.091 252.66ZM231.588 246.38C231.308 245.1 230.308 244.6 229.048 244.6C227.988 244.6 226.788 244.98 226.788 245.96C226.788 246.82 227.388 247.22 228.428 247.42L229.948 247.72C231.908 248.1 233.628 248.84 233.628 250.92C233.628 253.04 231.708 254.26 229.248 254.26C226.428 254.26 224.828 252.4 224.628 250.52H226.548C226.828 251.9 227.688 252.72 229.288 252.72C230.668 252.72 231.788 252.12 231.788 251.12C231.788 250.04 230.768 249.58 229.608 249.34L228.008 249.02C226.548 248.72 224.948 248.04 224.948 246.04C224.948 244.14 226.868 243.04 229.248 243.04C231.568 243.04 233.148 244.34 233.488 246.38H231.588ZM236.456 240.54H238.276V243.24H240.316V244.7H238.276V251.08C238.276 252.2 238.356 252.48 239.396 252.48H240.316V254H238.996C236.936 254 236.456 253.54 236.456 251.3V244.7H234.756V243.24H236.456V240.54ZM243.562 249.22C243.642 251.54 245.282 252.66 246.882 252.66C248.482 252.66 249.362 251.94 249.822 250.88H251.702C251.202 252.74 249.502 254.26 246.882 254.26C243.482 254.26 241.602 251.82 241.602 248.64C241.602 245.24 243.882 243.06 246.822 243.06C250.102 243.06 252.082 245.82 251.842 249.22H243.562ZM243.582 247.66H249.922C249.882 246.14 248.742 244.62 246.822 244.62C245.202 244.62 243.742 245.5 243.582 247.66ZM259.323 245.14C258.943 245.1 258.603 245.06 258.303 245.06C256.623 245.06 255.783 246 255.783 248.36V254H253.963V243.24H255.743V245.12C256.283 243.9 257.383 243.22 258.783 243.18C258.963 243.18 259.123 243.18 259.323 243.2V245.14ZM266.339 240.54H268.159V243.24H270.199V244.7H268.159V251.08C268.159 252.2 268.239 252.48 269.279 252.48H270.199V254H268.879C266.819 254 266.339 253.54 266.339 251.3V244.7H264.639V243.24H266.339V240.54ZM274.338 244.86C274.958 243.84 275.998 243.06 277.818 243.06C280.418 243.06 281.358 244.74 281.358 247.2V254H279.538V247.74C279.538 246.08 279.258 244.64 277.178 244.64C275.418 244.64 274.338 245.86 274.338 248.16V254H272.518V239.5H274.338V244.86ZM283.441 251.16C283.441 248.62 286.301 247.88 290.721 247.38V247.12C290.721 245.16 289.621 244.5 288.281 244.5C286.781 244.5 285.901 245.32 285.821 246.64H283.941C284.121 244.32 286.161 243.02 288.261 243.02C291.221 243.02 292.561 244.44 292.541 247.46L292.521 249.94C292.501 251.74 292.601 252.98 292.801 254H290.961C290.901 253.6 290.841 253.16 290.821 252.52C290.161 253.62 289.041 254.26 287.141 254.26C285.121 254.26 283.441 253.14 283.441 251.16ZM290.861 248.82C287.561 249.16 285.461 249.64 285.461 251.12C285.461 252.14 286.241 252.82 287.541 252.82C289.241 252.82 290.861 252.04 290.861 249.5V248.82ZM295.773 240.54H297.593V243.24H299.633V244.7H297.593V251.08C297.593 252.2 297.673 252.48 298.713 252.48H299.633V254H298.313C296.253 254 295.773 253.54 295.773 251.3V244.7H294.073V243.24H295.773V240.54ZM312.663 246.38C312.383 245.1 311.383 244.6 310.123 244.6C309.063 244.6 307.863 244.98 307.863 245.96C307.863 246.82 308.463 247.22 309.503 247.42L311.023 247.72C312.983 248.1 314.703 248.84 314.703 250.92C314.703 253.04 312.783 254.26 310.323 254.26C307.503 254.26 305.903 252.4 305.703 250.52H307.623C307.903 251.9 308.763 252.72 310.363 252.72C311.743 252.72 312.863 252.12 312.863 251.12C312.863 250.04 311.843 249.58 310.683 249.34L309.083 249.02C307.623 248.72 306.023 248.04 306.023 246.04C306.023 244.14 307.943 243.04 310.323 243.04C312.643 243.04 314.223 244.34 314.563 246.38H312.663ZM318.83 243.24V244.94C319.49 243.8 320.63 243.06 322.35 243.06C324.81 243.06 326.95 245.12 326.95 248.66C326.95 252.22 324.81 254.26 322.35 254.26C320.63 254.26 319.49 253.52 318.83 252.38V257.5H317.01V243.24H318.83ZM321.89 252.7C323.75 252.7 324.97 251.22 324.97 248.66C324.97 246.1 323.75 244.62 321.89 244.62C320.27 244.62 318.75 245.82 318.75 248.66C318.75 251.5 320.27 252.7 321.89 252.7ZM330.457 249.22C330.537 251.54 332.177 252.66 333.777 252.66C335.377 252.66 336.257 251.94 336.717 250.88H338.597C338.097 252.74 336.397 254.26 333.777 254.26C330.377 254.26 328.497 251.82 328.497 248.64C328.497 245.24 330.777 243.06 333.717 243.06C336.997 243.06 338.977 245.82 338.737 249.22H330.457ZM330.477 247.66H336.817C336.777 246.14 335.637 244.62 333.717 244.62C332.097 244.62 330.637 245.5 330.477 247.66ZM342.176 249.22C342.256 251.54 343.896 252.66 345.496 252.66C347.096 252.66 347.976 251.94 348.436 250.88H350.316C349.816 252.74 348.116 254.26 345.496 254.26C342.096 254.26 340.216 251.82 340.216 248.64C340.216 245.24 342.496 243.06 345.436 243.06C348.716 243.06 350.696 245.82 350.456 249.22H342.176ZM342.196 247.66H348.536C348.496 246.14 347.356 244.62 345.436 244.62C343.816 244.62 342.356 245.5 342.196 247.66ZM360.054 239.5H361.874V254H360.054V252.38C359.394 253.52 358.254 254.26 356.534 254.26C354.074 254.26 351.934 252.22 351.934 248.66C351.934 245.12 354.074 243.06 356.534 243.06C358.254 243.06 359.394 243.8 360.054 244.94V239.5ZM356.994 244.62C355.134 244.62 353.914 246.1 353.914 248.66C353.914 251.22 355.134 252.7 356.994 252.7C358.614 252.7 360.134 251.5 360.134 248.66C360.134 245.82 358.614 244.62 356.994 244.62ZM370.905 246.38C370.625 245.1 369.625 244.6 368.365 244.6C367.305 244.6 366.105 244.98 366.105 245.96C366.105 246.82 366.705 247.22 367.745 247.42L369.265 247.72C371.225 248.1 372.945 248.84 372.945 250.92C372.945 253.04 371.025 254.26 368.565 254.26C365.745 254.26 364.145 252.4 363.945 250.52H365.865C366.145 251.9 367.005 252.72 368.605 252.72C369.985 252.72 371.105 252.12 371.105 251.12C371.105 250.04 370.085 249.58 368.925 249.34L367.325 249.02C365.865 248.72 364.265 248.04 364.265 246.04C364.265 244.14 366.185 243.04 368.565 243.04C370.885 243.04 372.465 244.34 372.805 246.38H370.905ZM387.879 243.24L384.039 254.46C383.259 256.8 382.699 257.5 380.299 257.5H379.359V255.98H380.099C381.299 255.98 381.879 255.9 382.359 254.22L382.439 254L378.559 243.24H380.579L383.319 251.54L385.979 243.24H387.879ZM398.74 248.66C398.74 252.56 396.08 254.26 393.58 254.26C391.08 254.26 388.42 252.56 388.42 248.66C388.42 244.76 391.08 243.06 393.58 243.06C396.08 243.06 398.74 244.76 398.74 248.66ZM393.58 252.66C395.22 252.66 396.8 251.42 396.8 248.66C396.8 245.8 395.22 244.66 393.58 244.66C391.94 244.66 390.36 245.72 390.36 248.66C390.36 251.52 391.94 252.66 393.58 252.66ZM407.577 252.46C406.957 253.48 405.977 254.26 404.197 254.26C401.697 254.26 400.757 252.58 400.757 250.12V243.24H402.577V249.58C402.577 251.24 402.857 252.68 404.837 252.68C406.557 252.68 407.577 251.46 407.577 249.16V243.24H409.397V254H407.577V252.46ZM423.69 252.46C423.07 253.48 422.09 254.26 420.31 254.26C417.81 254.26 416.87 252.58 416.87 250.12V243.24H418.69V249.58C418.69 251.24 418.97 252.68 420.95 252.68C422.67 252.68 423.69 251.46 423.69 249.16V243.24H425.51V254H423.69V252.46ZM430.217 243.24V244.94C430.877 243.8 432.017 243.06 433.737 243.06C436.197 243.06 438.337 245.12 438.337 248.66C438.337 252.22 436.197 254.26 433.737 254.26C432.017 254.26 430.877 253.52 430.217 252.38V257.5H428.397V243.24H430.217ZM433.277 252.7C435.137 252.7 436.357 251.22 436.357 248.66C436.357 246.1 435.137 244.62 433.277 244.62C431.657 244.62 430.137 245.82 430.137 248.66C430.137 251.5 431.657 252.7 433.277 252.7ZM440.907 249.76L440.507 243.88V239.5H442.447V243.88L442.047 249.76H440.907ZM440.327 254V251.7H442.627V254H440.327Z" fill="#232222"/>
<rect x="138" y="288" width="356" height="54" rx="5.9235" fill="#FF6F23"/>
<path d="M262.33 316.18C261.73 319.42 259.41 321.26 256.07 321.26C251.83 321.26 249.37 318.24 249.37 313.7C249.37 309.14 251.99 306.24 256.19 306.24C259.41 306.24 261.71 308.08 262.29 311.32H259.85C259.41 309.36 257.99 308.32 256.11 308.32C253.81 308.32 251.99 310.2 251.99 313.7C251.99 317.22 253.77 319.18 256.09 319.18C258.05 319.18 259.45 318.16 259.89 316.18H262.33ZM274.515 315.64C274.515 319.52 271.835 321.26 269.215 321.26C266.595 321.26 263.915 319.52 263.915 315.64C263.915 311.76 266.595 310 269.215 310C271.835 310 274.515 311.76 274.515 315.64ZM269.215 319.32C270.715 319.32 272.055 318.12 272.055 315.64C272.055 313.16 270.715 311.94 269.215 311.94C267.715 311.94 266.375 313.16 266.375 315.64C266.375 318.12 267.715 319.32 269.215 319.32ZM286.468 315.64C286.468 319.52 283.788 321.26 281.168 321.26C278.548 321.26 275.868 319.52 275.868 315.64C275.868 311.76 278.548 310 281.168 310C283.788 310 286.468 311.76 286.468 315.64ZM281.168 319.32C282.668 319.32 284.008 318.12 284.008 315.64C284.008 313.16 282.668 311.94 281.168 311.94C279.668 311.94 278.328 313.16 278.328 315.64C278.328 318.12 279.668 319.32 281.168 319.32ZM290.804 321H288.424V306.5H290.804V321ZM293.183 318.28H295.903V321.2L294.503 324.16H293.083L294.403 321H293.183V318.28ZM312.257 313.92H309.937C309.737 312.78 308.737 311.98 307.437 311.98C305.957 311.98 304.617 313.08 304.617 315.62C304.617 318.18 305.977 319.28 307.377 319.28C308.537 319.28 309.717 318.76 310.017 317.32H312.337C311.857 319.84 309.637 321.26 307.337 321.26C304.217 321.26 302.157 318.84 302.157 315.64C302.157 312.44 304.237 310 307.437 310C309.777 310 311.857 311.52 312.257 313.92ZM324.105 315.64C324.105 319.52 321.425 321.26 318.805 321.26C316.185 321.26 313.505 319.52 313.505 315.64C313.505 311.76 316.185 310 318.805 310C321.425 310 324.105 311.76 324.105 315.64ZM318.805 319.32C320.305 319.32 321.645 318.12 321.645 315.64C321.645 313.16 320.305 311.94 318.805 311.94C317.305 311.94 315.965 313.16 315.965 315.64C315.965 318.12 317.305 319.32 318.805 319.32ZM328.441 311.74C329.061 310.62 330.201 310 331.701 310C334.301 310 335.361 311.68 335.361 314.24V321H332.981V314.82C332.981 313.36 332.761 311.94 330.941 311.94C329.121 311.94 328.441 313.34 328.441 315.28V321H326.061V310.24H328.441V311.74ZM338.178 307.4H340.558V310.24H342.718V311.96H340.558V317.82C340.558 318.92 340.818 319.18 341.838 319.18H342.698V321H340.938C338.638 321 338.178 320.38 338.178 318.18V311.96H336.578V310.24H338.178V307.4ZM347.015 306.5V308.9H344.635V306.5H347.015ZM347.015 310.24V321H344.635V310.24H347.015ZM352.074 311.74C352.694 310.62 353.834 310 355.334 310C357.934 310 358.994 311.68 358.994 314.24V321H356.614V314.82C356.614 313.36 356.394 311.94 354.574 311.94C352.754 311.94 352.074 313.34 352.074 315.28V321H349.694V310.24H352.074V311.74ZM368.111 319.52C367.491 320.64 366.391 321.26 364.931 321.26C362.371 321.26 361.331 319.58 361.331 317.02V310.24H363.711V316.44C363.711 317.9 363.911 319.32 365.691 319.32C367.471 319.32 368.111 317.92 368.111 315.98V310.24H370.491V321H368.111V319.52ZM374.87 316.3C375.03 318.3 376.43 319.28 377.79 319.28C379.03 319.28 380.01 318.78 380.43 317.78H382.77C382.27 319.5 380.67 321.26 377.89 321.26C374.43 321.26 372.45 318.62 372.45 315.54C372.45 312.3 374.67 310 377.73 310C381.03 310 383.09 312.68 382.89 316.3H374.87ZM374.87 314.56H380.47C380.41 312.88 379.13 311.86 377.73 311.86C376.61 311.86 375.07 312.52 374.87 314.56Z" fill="#F8F2E9"/>
</g>
</g>
<defs>
<filter id="filter0_d_18357_39271" x="109.115" y="125.077" width="413.77" height="258.77" filterUnits="userSpaceOnUse" color-interpolation-filters="sRGB">
<feFlood flood-opacity="0" result="BackgroundImageFix"/>
<feColorMatrix in="SourceAlpha" type="matrix" values="0 0 0 0 0 0 0 0 0 0 0 0 0 0 0 0 0 0 127 0" result="hardAlpha"/>
<feOffset dy="2.96175"/>
<feGaussianBlur stdDeviation="4.44262"/>
<feColorMatrix type="matrix" values="0 0 0 0 0 0 0 0 0 0 0 0 0 0 0 0 0 0 0.1 0"/>
<feBlend mode="normal" in2="BackgroundImageFix" result="effect1_dropShadow_18357_39271"/>
<feBlend mode="normal" in="SourceGraphic" in2="effect1_dropShadow_18357_39271" result="shape"/>
</filter>
<clipPath id="clip0_18357_39271">
<rect width="632" height="476" rx="10" fill="white"/>
</clipPath>
</defs>
</svg>
