<svg width="632" height="476" viewBox="0 0 632 476" fill="none" xmlns="http://www.w3.org/2000/svg">
<g clip-path="url(#clip0_18357_39751)">
<rect width="632" height="476" rx="10" fill="#F6D8BA"/>
<path d="M175.902 79.77H173.867L162.757 45.395C161.657 41.93 160.722 41.6 158.742 41.05V40.5H182.337V41.16C179.972 41.49 179.697 41.985 180.797 45.34L183.217 53.04L185.692 45.34C186.792 41.985 186.462 41.435 184.097 41.16V40.5H190.697V41.16C188.827 41.49 187.892 42.205 186.847 45.34L183.822 54.855L189.047 71.3L197.352 45.34C198.397 42.205 198.287 41.49 195.757 41.16V40.5H202.577V41.05C200.542 41.6 199.607 41.93 198.507 45.45L187.562 79.77H185.527L180.687 64.7L175.902 79.77ZM169.082 45.34L177.387 71.3L180.082 62.83L174.472 45.34C173.427 42.205 172.492 41.16 170.732 41.16C168.532 41.16 168.257 42.645 169.082 45.34ZM216.07 79.715C214.915 79.715 214.2 79 214.2 77.13V75.59C212.66 78.175 210.13 79.77 206.83 79.77C201.33 79.77 196.875 76.25 196.875 68.55C196.875 60.905 201.33 57.44 206.885 57.44C210.185 57.44 212.66 58.925 214.2 61.565V60.3C214.2 53.865 212.77 51.83 209.03 51.83C206.39 51.83 202.705 52.985 199.46 57.385H198.305L201.22 51.72C203.97 51.72 206.555 50.73 209.745 50.73C215.85 50.73 219.7 53.645 219.7 60.41V73.17C219.7 76.855 219.7 77.02 222.56 76.195L222.78 76.635L218.655 78.835C217.555 79.385 216.84 79.715 216.07 79.715ZM202.98 68.55C202.98 74.435 205.235 77.68 208.535 77.68C211.725 77.68 214.2 74.655 214.2 68.55C214.2 62.5 211.725 59.475 208.59 59.475C205.235 59.475 202.98 62.665 202.98 68.55ZM225.306 57.605C225.306 53.92 224.811 53.535 222.611 52.985V52.435H226.131C227.726 52.38 229.046 52.05 230.201 50.73H230.751V55.075C232.841 52.93 235.646 50.73 239.221 50.73C243.621 50.73 246.316 53.15 246.316 58.87V73.83C246.316 77.515 246.811 77.9 248.956 78.45V79H238.176V78.45C240.376 77.9 240.871 77.515 240.871 73.83V57.55C240.871 54.415 239.771 52.71 237.461 52.71C235.261 52.71 233.006 54.195 230.751 56.45V73.83C230.751 77.515 231.246 77.9 233.391 78.45V79H222.611V78.45C224.811 77.9 225.306 77.515 225.306 73.83V57.605ZM247.125 51.5C252.57 51.225 254.385 48.97 255.43 43.25H256.035V51.5H261.425V52.6C256.695 52.6 256.035 53.315 256.035 55.735V71.685C256.035 74.985 256.2 76.36 257.63 76.36C258.95 76.36 259.995 73.94 260.985 68.77L261.975 69.1C260.6 76.085 259.445 79.77 255.21 79.77C251.855 79.77 250.535 77.46 250.535 72.345V55.735C250.535 53.315 250.26 52.6 247.125 52.6V51.5ZM291.216 79.715C290.061 79.715 289.346 79 289.346 77.13V75.59C287.806 78.175 285.276 79.77 281.976 79.77C276.476 79.77 272.021 76.25 272.021 68.55C272.021 60.905 276.476 57.44 282.031 57.44C285.331 57.44 287.806 58.925 289.346 61.565V60.3C289.346 53.865 287.916 51.83 284.176 51.83C281.536 51.83 277.851 52.985 274.606 57.385H273.451L276.366 51.72C279.116 51.72 281.701 50.73 284.891 50.73C290.996 50.73 294.846 53.645 294.846 60.41V73.17C294.846 76.855 294.846 77.02 297.706 76.195L297.926 76.635L293.801 78.835C292.701 79.385 291.986 79.715 291.216 79.715ZM278.126 68.55C278.126 74.435 280.381 77.68 283.681 77.68C286.871 77.68 289.346 74.655 289.346 68.55C289.346 62.5 286.871 59.475 283.736 59.475C280.381 59.475 278.126 62.665 278.126 68.55ZM309.611 57.605C309.611 53.92 309.116 53.535 306.916 52.985V52.435H310.436C312.031 52.38 313.351 52.05 314.506 50.73H315.056V54.8C317.201 52.215 319.621 50.73 323.031 50.73C327.761 50.73 332.051 54.745 332.051 64.37C332.051 74.05 326.881 79.77 321.436 79.77C318.521 79.77 316.541 78.78 315.056 76.58V84.83C315.056 88.515 315.551 88.9 317.696 89.45V90H306.916V89.45C309.116 88.9 309.611 88.515 309.611 84.83V57.605ZM315.056 69.32C315.111 75.535 317.806 78.175 320.226 78.175C324.131 78.175 325.891 74.105 325.891 65.195C325.891 56.395 324.076 52.93 320.556 52.93C318.906 52.93 317.311 53.645 315.056 56.065V69.32ZM335.153 57.605C335.153 53.92 334.658 53.535 332.513 52.985V52.435H335.978C337.628 52.38 338.948 52.05 340.103 50.73H340.653V73.83C340.653 77.515 341.148 77.9 343.293 78.45V79H332.513V78.45C334.658 77.9 335.153 77.515 335.153 73.83V57.605ZM333.778 43.525C333.778 41.49 335.428 39.95 337.518 39.95C339.608 39.95 341.203 41.49 341.203 43.525C341.203 45.56 339.608 47.1 337.518 47.1C335.428 47.1 333.778 45.56 333.778 43.525ZM355.54 76.14C353.065 76.14 350.975 75.535 349.27 74.49C348.61 74.875 348.115 75.205 348.115 75.865C348.115 77.02 349.93 77.57 355.485 79.22C362.58 81.255 366.265 82.08 366.265 85.82C366.265 89.615 362.14 91.045 358.125 91.045C352.955 91.045 350.425 89.45 350.425 86.81C350.425 84.94 351.855 83.565 353.945 82.74C347.455 80.925 344.65 79.935 344.65 77.515C344.65 75.645 346.245 74.6 348.335 73.83C345.585 71.63 344.155 68 344.155 63.435C344.155 55.735 348.28 50.675 355.54 50.675C356.915 50.675 358.125 50.84 359.28 51.17C360.435 48.75 361.975 47.045 364.56 45.835L366.87 49.08C363.185 49.19 361.59 49.905 360.27 51.555C364.56 53.26 366.98 57.55 366.98 63.435C366.98 71.135 362.855 76.14 355.54 76.14ZM350.26 63.435C350.26 70.31 351.525 75.04 355.54 75.04C359.61 75.04 360.875 70.255 360.875 63.435C360.875 56.56 359.61 51.775 355.54 51.775C351.525 51.775 350.26 56.56 350.26 63.435ZM353.45 86.645C353.45 88.845 355.1 89.945 358.18 89.945C360.93 89.945 362.36 88.79 362.36 87.14C362.36 85.16 361.04 84.72 355.65 83.18C354.385 83.895 353.45 84.885 353.45 86.645ZM391.923 58.32C389.283 58.32 389.558 54.635 388.513 54.085C388.183 53.865 387.358 54.58 384.938 57V73.83C384.938 77.515 385.763 77.9 389.503 78.45V79H376.798V78.45C378.998 77.9 379.493 77.515 379.493 73.83V57.605C379.493 53.92 378.998 53.535 376.798 52.985V52.435H380.318C381.968 52.38 383.233 52.05 384.388 50.73H384.938V55.515C387.743 52.71 389.668 50.73 391.318 50.73C393.298 50.73 392.913 53.26 394.233 53.26C394.618 53.26 395.003 53.04 395.718 52.6L396.103 53.37C395.333 56.56 393.793 58.32 391.923 58.32ZM398.966 57.605C398.966 53.92 398.471 53.535 396.326 52.985V52.435H399.791C401.441 52.38 402.761 52.05 403.916 50.73H404.466V73.83C404.466 77.515 404.961 77.9 407.106 78.45V79H396.326V78.45C398.471 77.9 398.966 77.515 398.966 73.83V57.605ZM397.591 43.525C397.591 41.49 399.241 39.95 401.331 39.95C403.421 39.95 405.016 41.49 405.016 43.525C405.016 45.56 403.421 47.1 401.331 47.1C399.241 47.1 397.591 45.56 397.591 43.525ZM424.592 46.495C424.592 42.81 424.097 42.425 421.897 41.875V41.325H425.417C427.012 41.27 428.332 40.995 429.487 39.675H430.037V73.005C430.037 76.69 430.532 77.075 432.677 77.625V78.175H429.212C427.562 78.23 426.187 78.56 425.142 79.88H424.592V75.7C422.502 78.23 419.972 79.77 416.562 79.77C411.887 79.77 407.542 75.7 407.542 66.13C407.542 56.395 412.712 50.73 418.212 50.73C421.127 50.73 423.107 51.72 424.592 53.92V46.495ZM413.757 65.305C413.757 74.05 415.572 77.515 419.037 77.515C420.742 77.515 422.337 76.8 424.592 74.38V61.18C424.537 54.91 421.787 52.325 419.367 52.325C415.517 52.325 413.757 56.34 413.757 65.305ZM433.083 65.14C433.083 56.34 437.868 50.73 444.633 50.73C450.023 50.73 453.928 54.415 453.928 61.565H439.243V62.995C439.243 70.805 441.223 77.075 446.558 77.075C449.198 77.075 452.113 75.37 454.038 68.825L455.083 69.1C452.828 77.405 448.923 79.77 444.413 79.77C437.428 79.77 433.083 74.49 433.083 65.14ZM439.298 60.465H448.373C448.373 54.305 446.998 51.83 444.468 51.83C441.168 51.83 439.683 55.13 439.298 60.465ZM460.484 67.725C460.484 58.265 460.649 56.01 462.739 52.325C464.114 49.575 464.939 47.595 464.939 44.68C464.939 42.37 464.279 40.83 462.409 40.83C459.659 40.83 457.679 42.755 455.424 54.36H454.324L455.809 40.665C458.834 40.665 459.934 39.73 463.344 39.73C467.964 39.73 471.319 41.49 471.319 45.615C471.319 49.795 468.129 52.49 465.654 54.58C462.299 57.55 461.584 59.53 461.584 67.725H460.484ZM457.844 76.47C457.844 74.655 459.219 73.17 461.034 73.17C462.904 73.17 464.279 74.655 464.279 76.47C464.279 78.34 462.904 79.825 461.034 79.825C459.219 79.825 457.844 78.34 457.844 76.47Z" fill="#232222"/>
<path d="M75.0269 491H320.419C344.576 491 354.044 464.538 338.197 452.196C320.536 438.442 299.409 452.196 299.409 452.196C299.409 452.196 301.384 431.266 284.642 423.941C267.899 416.615 253.077 428.573 253.077 428.573C253.077 428.573 255.822 399.151 237.591 388.67C220.401 378.791 203.513 391.535 203.513 391.535C203.513 391.535 192.276 370.338 161.939 374.555C135.016 378.298 133.671 402.212 133.671 402.212C133.671 402.212 100.212 390.754 82.3301 417.577C69.0168 437.545 78.7084 459.877 78.7084 459.877C78.7084 459.877 64.5964 457.07 59.1716 467.895C52.4643 481.279 62.2912 491 75.0269 491Z" fill="white"/>
<path d="M-20.0736 382.527H82.6861C95.8823 382.527 97.3488 374.39 93.5304 368.066C90.1614 362.485 80.8536 365.189 80.8536 365.189C80.8536 365.189 87.2068 349.585 75.1005 342.712C63.1287 335.915 50.7937 346.504 50.7937 346.504C50.7937 346.504 50.304 337.61 40.8966 337.029C29.1401 336.303 27.2 349.359 27.2 349.359C27.2 349.359 22.569 344.698 16.3369 347.995C8.95575 351.902 10.8394 359.487 10.8394 359.487C10.8394 359.487 3.18379 351.339 -4.67899 355.814C-12.6225 360.335 -11.6592 368.803 -11.6592 368.803C-11.6592 368.803 -15.8462 365.757 -22.1509 368.063C-28.8701 370.52 -28.9939 382.524 -20.0736 382.524V382.527Z" fill="white"/>
<path d="M350.472 321.398H416.829C425.351 321.398 426.299 316.143 423.834 312.061C421.659 308.457 415.648 310.204 415.648 310.204C415.648 310.204 419.752 300.126 411.935 295.689C404.204 291.3 396.239 298.138 396.239 298.138C396.239 298.138 395.924 292.396 389.848 292.019C382.257 291.551 381.003 299.981 381.003 299.981C381.003 299.981 378.013 296.97 373.988 299.101C369.222 301.625 370.436 306.523 370.436 306.523C370.436 306.523 365.492 301.259 360.415 304.149C355.286 307.069 355.908 312.537 355.908 312.537C355.908 312.537 353.203 310.57 349.132 312.058C344.791 313.643 344.713 321.395 350.472 321.395V321.398Z" fill="white"/>
<path d="M373.33 405.41H527.208C542.52 405.41 553.835 389.195 551.451 374.093C549.153 359.546 536.651 351.891 522.871 354.7C522.871 354.7 522.494 340.368 508.773 337.454C495.055 334.54 487.144 346.789 487.144 346.789C487.144 346.789 476.716 339.015 463.3 344.383C452.184 348.829 451.019 361.365 451.019 361.365C451.019 361.365 433.81 349.972 412.886 359.546C392.963 368.663 392.981 384.555 392.981 384.555C392.981 384.555 384.559 376.644 370.782 382.658C357.801 388.323 363.425 405.41 373.333 405.41H373.33Z" fill="white"/>
<path d="M101.004 269L102.08 265.084L106 264L102.08 262.916L101.004 259L99.9202 262.916L96 264L99.9202 265.084L101.004 269Z" fill="#F8F2E9" stroke="#232222" stroke-linejoin="round"/>
<path d="M54.7052 401.376L46.5785 404.108L38.3145 406.886L35.9733 413.773L52.8539 423.791L60.5594 405.507L54.7052 401.376Z" fill="#E2EED3" stroke="#232222" stroke-width="0.892529" stroke-linejoin="round"/>
<path d="M35.9722 413.773L60.5583 405.508" stroke="#232222" stroke-width="0.892529" stroke-linejoin="round"/>
<path d="M44.1694 411.018L52.8547 423.791" stroke="#232222" stroke-width="0.892529" stroke-linejoin="round"/>
<path d="M52.3635 408.261L52.8534 423.789" stroke="#232222" stroke-width="0.892529" stroke-linejoin="round"/>
<path d="M60.5594 405.507L54.7052 401.376L52.364 408.263L46.5099 404.131L44.1686 411.018L38.3145 406.886L35.9733 413.773" stroke="#232222" stroke-width="0.892529" stroke-linejoin="round"/>
<path d="M456.055 319.238L449.672 316.449L443.181 313.612L438.014 316.48L442.709 331.722L457.325 324.92L456.055 319.238Z" fill="#E2EED3" stroke="#232222" stroke-width="0.892529" stroke-linejoin="round"/>
<path d="M438.014 316.48L457.325 324.92" stroke="#232222" stroke-width="0.892529" stroke-linejoin="round"/>
<path d="M444.452 319.293L442.71 331.722" stroke="#232222" stroke-width="0.892529" stroke-linejoin="round"/>
<path d="M450.889 322.106L442.711 331.721" stroke="#232222" stroke-width="0.892529" stroke-linejoin="round"/>
<path d="M457.325 324.92L456.055 319.238L450.888 322.107L449.618 316.425L444.451 319.293L443.181 313.612L438.014 316.48" stroke="#232222" stroke-width="0.892529" stroke-linejoin="round"/>
<path d="M145.864 333.712L148.415 324.429L157.709 321.856L148.415 319.284L145.864 310L143.294 319.284L134 321.856L143.294 324.429L145.864 333.712Z" fill="#F8F2E9" stroke="#232222" stroke-linejoin="round"/>
<path d="M458.647 285.284L459.645 281.648L463.286 280.642L459.645 279.635L458.647 276L457.641 279.635L454 280.642L457.641 281.648L458.647 285.284Z" fill="#F8F2E9" stroke="#232222" stroke-linejoin="round"/>
<path d="M479.318 302.625L480.031 300.031L482.63 299.312L480.031 298.594L479.318 296L478.599 298.594L476 299.312L478.599 300.031L479.318 302.625Z" fill="#F8F2E9" stroke="#232222" stroke-linejoin="round"/>
<path d="M483.005 441.993L485.155 434.166L492.993 431.997L485.155 429.828L483.005 422L480.839 429.828L473 431.997L480.839 434.166L483.005 441.993Z" fill="#F8F2E9" stroke="#232222" stroke-linejoin="round"/>
<path d="M397.624 456.237L398.832 451.838L403.237 450.619L398.832 449.4L397.624 445L396.405 449.4L392 450.619L396.405 451.838L397.624 456.237Z" fill="#F8F2E9" stroke="#232222" stroke-linejoin="round"/>
<path d="M251.335 477.166C251.335 477.166 289.29 456.226 301.335 435.166" stroke="#232222" stroke-linejoin="round"/>
<path d="M208.335 480.166C208.335 480.166 246.616 472.471 276.335 453.166" stroke="#232222" stroke-linejoin="round"/>
<path d="M237.444 290.961C236.567 291.868 238.633 293.131 240.292 291.995C241.95 290.86 248.223 288.078 248.223 288.078C248.223 288.078 241.769 286.499 237.444 290.961Z" fill="#232222" stroke="#232222" stroke-linecap="round" stroke-linejoin="round"/>
<path d="M336.292 295.399C336.292 295.399 343.286 291.597 345.099 290.474C346.678 289.495 351.391 292.504 355.651 297.133C359.561 301.38 362.553 307.685 361.54 308.844C359.426 311.265 354.831 316.53 354.831 316.53L336.292 295.402V295.399Z" fill="#FF6F23" stroke="#232222" stroke-linejoin="round"/>
<path d="M288.654 284.357L285.224 268.332C285.224 268.332 304.23 269.716 310.783 290.938" fill="#FF6F23"/>
<path d="M288.654 284.357L285.224 268.332C285.224 268.332 304.23 269.716 310.783 290.938" stroke="#232222" stroke-linejoin="round"/>
<path d="M223.656 392.525L214.709 427.405L242.61 434.611L262.27 397.188" fill="#FF6F23"/>
<path d="M223.656 392.525L214.709 427.405L242.61 434.611L262.27 397.188" stroke="#232222" stroke-linejoin="round"/>
<path d="M314.887 411.107C355.229 391.404 374.985 348.92 359.013 316.216C343.04 283.511 297.388 272.971 257.046 292.673C216.704 312.376 196.948 354.86 212.92 387.564C228.893 420.269 274.545 430.809 314.887 411.107Z" fill="#FF6F23" stroke="#232222" stroke-linejoin="round"/>
<path d="M195.814 350.197C194.076 354.96 197.548 362.959 204.423 361.626C211.301 360.293 211.583 346.494 205.795 346.971C200.007 347.448 201.716 364.307 210.055 364.278C217.314 364.254 219.402 354.997 219.402 354.997" stroke="#232222" stroke-miterlimit="10"/>
<path d="M256.513 405.373L252.53 436.219L280.392 443.992L300.356 407.495" fill="#FF6F23"/>
<path d="M256.513 405.373L252.53 436.219L280.392 443.992L300.356 407.495" stroke="#232222" stroke-linejoin="round"/>
<path d="M280.409 443.912C281.131 441.296 275.475 437.452 267.776 435.326C260.077 433.199 253.25 433.596 252.528 436.211C251.805 438.827 257.461 442.671 265.16 444.798C272.859 446.924 279.686 446.528 280.409 443.912Z" fill="#232222" stroke="#232222" stroke-linecap="round" stroke-linejoin="round"/>
<path d="M242.538 434.996C243.26 432.38 237.605 428.536 229.906 426.41C222.207 424.283 215.38 424.68 214.657 427.295C213.935 429.911 219.59 433.755 227.29 435.882C234.989 438.008 241.816 437.612 242.538 434.996Z" fill="#232222" stroke="#232222" stroke-linecap="round" stroke-linejoin="round"/>
<path d="M258.563 311.499C256.854 314.148 266.724 316.137 267.751 314.064C268.778 311.991 261.514 306.928 258.563 311.499Z" fill="#5D766F" stroke="#232222" stroke-linejoin="round"/>
<path d="M347.701 376.086L383.18 367.899C385.271 368.299 388.065 362.889 389.417 355.816C390.77 348.743 390.172 342.684 388.079 342.284L356.635 338.236" fill="#FF6F23"/>
<path d="M347.701 376.086L383.18 367.899C385.271 368.299 388.065 362.889 389.417 355.816C390.77 348.743 390.172 342.684 388.079 342.284L356.635 338.236" stroke="#232222" stroke-linejoin="round"/>
<path d="M304.732 285.791L300.139 266.922C300.139 266.922 327.444 275.642 324.522 299.053" fill="#FF6F23"/>
<path d="M304.732 285.791L300.139 266.922C300.139 266.922 327.444 275.642 324.522 299.053" stroke="#232222" stroke-linejoin="round"/>
<path d="M266.883 320.287C266.883 320.287 264.696 316.162 265.48 313.686L268.693 309.067L263.325 307.797L261.683 310.456C261.208 311.223 260.591 311.89 259.86 312.421L258.52 313.395C255.658 315.068 259.757 319.581 263.838 323.711C267.216 327.129 269.757 325.087 266.883 320.287Z" fill="#F8F2E9" stroke="#232222" stroke-linecap="round" stroke-linejoin="round"/>
<path d="M258.746 269.904C262.087 270.207 265.802 262.517 261.815 259.366C258.461 256.716 255.18 257.84 253.96 261.215C252.74 264.59 254.414 269.511 258.743 269.904H258.746Z" fill="#F8F2E9" stroke="#232222" stroke-linecap="round" stroke-linejoin="round"/>
<path d="M260.418 258.423C260.418 258.423 262.274 260.033 260.973 262.222C258.875 265.751 257.494 264.495 256.187 267.22C254.439 270.86 246.681 277.051 244.765 276.166C243.755 275.698 244.777 273.996 244.777 273.996C244.777 273.996 240.621 279.044 239.136 278.203C237.651 277.362 241.566 273.203 241.566 273.203C241.566 273.203 239.152 274.054 239.249 273.051C239.454 270.898 246.667 267.304 249.102 264.085C252.945 259.008 256.216 256.364 260.416 258.423H260.418Z" fill="#232222" stroke="#232222" stroke-linecap="round" stroke-linejoin="round"/>
<path d="M275.294 291.748C273.452 288.819 268.153 288.735 255.18 288.636L257.442 286.37C257.442 286.37 248.483 285.473 244.211 286.948C240.648 288.18 238.758 289.663 238.758 289.663C238.584 290.509 238.529 291.321 238.57 292.093H238.567C238.567 292.093 237.738 299.369 242.393 301.734L245.486 299.612L248.223 299.306C256.668 298.838 265.171 298.207 265.171 298.207L258.565 311.5C258.565 311.5 259.961 309.034 264.334 310.463C268.705 311.893 267.753 314.065 267.753 314.065C274.867 299.66 277.521 295.285 275.296 291.748H275.294Z" fill="#B1C6C3" stroke="#232222" stroke-linecap="round" stroke-linejoin="round"/>
<path d="M237.443 290.962C244.567 283.754 251.761 291.114 257.253 288.662C257.253 288.662 258.904 279.879 262.827 274.593C262.827 274.593 266.149 269.091 262.144 267.932C258.55 266.89 251.58 268.361 245.319 276.362C239.893 283.298 237.443 290.964 237.443 290.964V290.962Z" fill="#F8F2E9" stroke="#232222" stroke-linecap="round" stroke-linejoin="round"/>
<path d="M258.52 313.396C259.947 312.555 265.188 316.788 266.319 319.064C267.45 321.34 269.014 323.832 267.606 325.166C266.198 326.499 262.225 322.241 260.762 320.457C259.299 318.673 255.895 314.944 258.52 313.396Z" fill="#232222" stroke="#232222" stroke-linecap="round" stroke-linejoin="round"/>
<path d="M258.98 262.103C257.591 261.551 256.345 265.251 257.83 265.678C259.315 266.105 260.843 262.843 258.98 262.103Z" fill="#F8F2E9" stroke="#232222" stroke-linecap="round" stroke-linejoin="round"/>
<path d="M258.46 264.374C258.46 264.374 262.457 264.865 263.393 261.859C264.207 259.241 261.435 258.077 257.701 259.002L260.336 260.789C260.336 260.789 259.805 263.86 258.46 264.374Z" fill="#232222" stroke="#232222" stroke-linecap="round" stroke-linejoin="round"/>
<path d="M276.352 287.681C276.352 287.681 282.017 289.451 283.312 289.977C284.606 290.502 285.187 290.251 286.477 289.2C287.829 288.098 288.348 287.645 288.348 287.645C288.348 287.645 290.382 287.156 291.074 287.004C291.658 286.876 291.595 285.994 290.828 286.095C290.122 286.189 288.295 286.577 288.295 286.577C288.295 286.577 290.85 285.664 291.443 285.49C292.125 285.29 291.843 284.203 290.915 284.506C289.985 284.813 288.087 285.415 288.087 285.415C288.087 285.415 290.455 284.205 290.975 283.947C291.496 283.689 291.26 282.727 290.44 283.004C289.621 283.284 287.709 284.357 287.709 284.357C287.709 284.357 289.047 283.624 289.637 283.32C290.435 282.91 289.946 282.081 289.15 282.489C288.222 282.963 286.226 283.855 286.226 283.855L283.733 286.085L277.948 283.971L276.352 287.677V287.681Z" fill="#F8F2E9" stroke="#232222" stroke-linecap="round" stroke-linejoin="round"/>
<path d="M262.143 267.93C262.143 267.93 265.14 268.142 268.185 275.215C269.952 279.321 270.849 281.028 270.849 281.028L283.674 285.328C283.674 285.328 284.932 288.626 281.634 291.1L265.827 287.274L258.609 275.623" fill="#F8F2E9"/>
<path d="M262.143 267.93C262.143 267.93 265.14 268.142 268.185 275.215C269.952 279.321 270.849 281.028 270.849 281.028L283.674 285.328C283.674 285.328 284.932 288.626 281.634 291.1L265.827 287.274L258.609 275.623" stroke="#232222" stroke-linecap="round" stroke-linejoin="round"/>
<path d="M337.14 297.748C337.14 297.748 341.988 300.398 340.09 301.644C338.427 302.738 333.786 300.024 333.786 300.024" stroke="#232222" stroke-linejoin="round"/>
<path d="M542.318 263.625L543.031 261.031L545.63 260.312L543.031 259.594L542.318 257L541.599 259.594L539 260.312L541.599 261.031L542.318 263.625Z" fill="#F8F2E9" stroke="#232222" stroke-linejoin="round"/>
<path d="M562.49 451.398H643.947C654.408 451.398 655.571 444.947 652.545 439.936C649.876 435.513 642.497 437.657 642.497 437.657C642.497 437.657 647.534 425.286 637.938 419.839C628.448 414.452 618.671 422.845 618.671 422.845C618.671 422.845 618.284 415.796 610.826 415.334C601.507 414.759 599.968 425.108 599.968 425.108C599.968 425.108 596.298 421.412 591.356 424.028C585.506 427.126 586.996 433.138 586.996 433.138C586.996 433.138 580.928 426.677 574.695 430.225C568.399 433.809 569.162 440.521 569.162 440.521C569.162 440.521 565.842 438.106 560.845 439.933C555.516 441.878 555.421 451.395 562.49 451.395V451.398Z" fill="white"/>
<path d="M365.219 140.913C362.868 135.145 365.586 125.845 372.323 118.208C379.061 110.572 387.669 107.031 393.307 109.076L393.789 108.529L396.176 110.863C401.327 115.9 398.998 127.357 390.975 136.45C382.952 145.544 372.274 148.832 367.123 143.795L364.736 141.46L365.219 140.913Z" fill="#232222" stroke="#232222" stroke-linecap="round" stroke-linejoin="round"/>
<path d="M394.379 109.118C399.53 114.155 397.202 125.611 389.179 134.704C381.157 143.798 370.478 147.086 365.327 142.049C360.177 137.011 362.505 125.556 370.527 116.462C378.55 107.369 389.229 104.08 394.379 109.118Z" fill="#FFB772" stroke="#232222" stroke-linecap="round" stroke-linejoin="round"/>
<path d="M386.183 131.773C380.261 138.486 372.626 141.156 369.13 137.736" stroke="#232222" stroke-linecap="round" stroke-linejoin="round"/>
<path d="M374.103 117.057C373.541 115.026 371.953 113.438 369.921 112.876L369.276 112.697L369.921 112.519C371.953 111.957 373.541 110.369 374.103 108.337L374.28 107.697L374.454 108.328C375.013 110.365 376.603 111.957 378.639 112.521L379.276 112.697L378.639 112.874C376.603 113.437 375.013 115.03 374.454 117.067L374.28 117.697L374.103 117.057Z" fill="#F8F2E9" stroke="#232222" stroke-linecap="round" stroke-linejoin="round"/>
<path d="M237.656 127.456C236.888 131.296 233.888 133.312 230.12 133.312C225.128 133.312 222.224 129.568 222.224 124.264C222.224 118.864 225.392 115.288 230.312 115.288C233.912 115.288 236.816 117.424 237.56 121.144H235.184C234.656 118.984 232.976 117.352 230.192 117.352C227.12 117.352 224.72 119.752 224.72 124.264C224.72 128.656 227.024 131.248 230.264 131.248C233.024 131.248 234.728 129.688 235.28 127.456H237.656ZM251.92 126.592C251.92 131.272 248.728 133.312 245.728 133.312C242.728 133.312 239.536 131.272 239.536 126.592C239.536 121.912 242.728 119.872 245.728 119.872C248.728 119.872 251.92 121.912 251.92 126.592ZM245.728 131.392C247.696 131.392 249.592 129.904 249.592 126.592C249.592 123.16 247.696 121.792 245.728 121.792C243.76 121.792 241.864 123.064 241.864 126.592C241.864 130.024 243.76 131.392 245.728 131.392ZM256.717 133H254.533V115.6H256.717V133ZM262.365 133H260.181V115.6H262.365V133ZM267.294 127.264C267.39 130.048 269.358 131.392 271.278 131.392C273.198 131.392 274.254 130.528 274.806 129.256H277.062C276.462 131.488 274.422 133.312 271.278 133.312C267.198 133.312 264.942 130.384 264.942 126.568C264.942 122.488 267.678 119.872 271.206 119.872C275.142 119.872 277.518 123.184 277.23 127.264H267.294ZM267.318 125.392H274.926C274.878 123.568 273.51 121.744 271.206 121.744C269.262 121.744 267.51 122.8 267.318 125.392ZM290.644 124.408H288.436C288.124 122.872 286.78 121.792 285.1 121.792C283.156 121.792 281.38 123.304 281.38 126.544C281.38 129.832 283.18 131.392 285.1 131.392C286.924 131.392 288.22 130.168 288.532 128.8H290.788C290.356 131.224 288.028 133.312 285.028 133.312C281.332 133.312 279.004 130.504 279.004 126.568C279.004 122.728 281.428 119.872 285.244 119.872C288.364 119.872 290.356 122.224 290.644 124.408ZM293.875 116.848H296.059V120.088H298.507V121.84H296.059V129.496C296.059 130.84 296.155 131.176 297.403 131.176H298.507V133H296.923C294.451 133 293.875 132.448 293.875 129.76V121.84H291.835V120.088H293.875V116.848ZM312.511 130.816C313.423 130.816 314.175 130.504 314.767 129.88C315.359 129.256 315.655 128.392 315.655 127.288C315.655 126.696 315.559 126.176 315.367 125.728C315.191 125.28 314.951 124.912 314.647 124.624C314.343 124.32 313.999 124.096 313.615 123.952C313.231 123.808 312.839 123.736 312.439 123.736C311.671 123.736 311.023 123.896 310.495 124.216C309.983 124.536 309.639 124.904 309.463 125.32L306.439 125.176L307.591 115.6H318.319V118.384H310.303L309.823 122.104C310.191 121.832 310.655 121.608 311.215 121.432C311.775 121.24 312.463 121.144 313.279 121.144C314.015 121.144 314.727 121.28 315.415 121.552C316.119 121.808 316.735 122.192 317.263 122.704C317.791 123.216 318.215 123.856 318.535 124.624C318.855 125.376 319.015 126.256 319.015 127.264C319.015 128.224 318.839 129.08 318.487 129.832C318.151 130.584 317.679 131.216 317.071 131.728C316.479 132.24 315.783 132.632 314.983 132.904C314.199 133.176 313.359 133.312 312.463 133.312C311.439 133.312 310.535 133.152 309.751 132.832C308.983 132.512 308.327 132.088 307.783 131.56C307.255 131.016 306.839 130.4 306.535 129.712C306.247 129.008 306.079 128.28 306.031 127.528H309.151C309.199 127.976 309.295 128.4 309.439 128.8C309.599 129.2 309.815 129.552 310.087 129.856C310.375 130.144 310.719 130.376 311.119 130.552C311.519 130.728 311.983 130.816 312.511 130.816ZM327.945 133.312C326.777 133.312 325.753 133.088 324.873 132.64C324.009 132.192 323.281 131.568 322.689 130.768C322.113 129.968 321.673 129.016 321.369 127.912C321.081 126.808 320.937 125.592 320.937 124.264C320.937 122.952 321.081 121.744 321.369 120.64C321.673 119.536 322.113 118.592 322.689 117.808C323.281 117.008 324.009 116.392 324.873 115.96C325.753 115.512 326.777 115.288 327.945 115.288C329.097 115.288 330.105 115.512 330.969 115.96C331.849 116.392 332.577 117.008 333.153 117.808C333.745 118.592 334.185 119.536 334.473 120.64C334.777 121.744 334.929 122.952 334.929 124.264C334.929 125.592 334.777 126.808 334.473 127.912C334.185 129.016 333.745 129.968 333.153 130.768C332.577 131.568 331.849 132.192 330.969 132.64C330.105 133.088 329.097 133.312 327.945 133.312ZM327.945 130.816C329.129 130.816 330.025 130.248 330.633 129.112C331.241 127.976 331.545 126.36 331.545 124.264C331.545 122.168 331.241 120.568 330.633 119.464C330.025 118.344 329.129 117.784 327.945 117.784C326.761 117.784 325.857 118.344 325.233 119.464C324.625 120.568 324.321 122.168 324.321 124.264C324.321 126.36 324.625 127.976 325.233 129.112C325.857 130.248 326.761 130.816 327.945 130.816ZM343.859 133.312C342.691 133.312 341.667 133.088 340.787 132.64C339.923 132.192 339.195 131.568 338.603 130.768C338.027 129.968 337.587 129.016 337.283 127.912C336.995 126.808 336.851 125.592 336.851 124.264C336.851 122.952 336.995 121.744 337.283 120.64C337.587 119.536 338.027 118.592 338.603 117.808C339.195 117.008 339.923 116.392 340.787 115.96C341.667 115.512 342.691 115.288 343.859 115.288C345.011 115.288 346.019 115.512 346.883 115.96C347.763 116.392 348.491 117.008 349.067 117.808C349.659 118.592 350.099 119.536 350.387 120.64C350.691 121.744 350.843 122.952 350.843 124.264C350.843 125.592 350.691 126.808 350.387 127.912C350.099 129.016 349.659 129.968 349.067 130.768C348.491 131.568 347.763 132.192 346.883 132.64C346.019 133.088 345.011 133.312 343.859 133.312ZM343.859 130.816C345.043 130.816 345.939 130.248 346.547 129.112C347.155 127.976 347.459 126.36 347.459 124.264C347.459 122.168 347.155 120.568 346.547 119.464C345.939 118.344 345.043 117.784 343.859 117.784C342.675 117.784 341.771 118.344 341.147 119.464C340.539 120.568 340.235 122.168 340.235 124.264C340.235 126.36 340.539 127.976 341.147 129.112C341.771 130.248 342.675 130.816 343.859 130.816Z" fill="#232222"/>
<path d="M582.477 320.949L578 319.71L582.477 318.471L583.715 314L584.943 318.471L589.42 319.71L584.943 320.949L583.715 325.42L582.477 320.949Z" fill="#F8F2E9" stroke="#232222" stroke-width="1.03819" stroke-linejoin="round"/>
<rect x="169" y="168" width="294" height="63.8049" rx="7.0793" fill="#FF6F23"/>
<path d="M274.637 190.573C278.438 190.573 281.999 191.195 281.999 196.023C281.999 200.397 278.772 201.353 274.685 201.353H271.96V207.902H268.925V190.573H274.637ZM271.96 193.011V198.867H274.781C277.075 198.867 278.844 198.533 278.844 196.047C278.844 193.226 276.765 193.011 274.637 193.011H271.96ZM286.705 207.902H283.86V190.573H286.705V207.902ZM289.141 204.365C289.141 201.162 293.085 200.349 297.794 199.871V199.632C297.794 197.433 296.527 196.764 295.117 196.764C293.682 196.764 292.607 197.529 292.535 199.082H289.739C289.93 196.453 292.105 194.66 295.212 194.66C298.296 194.66 300.71 196.071 300.638 200.182C300.638 200.827 300.59 202.333 300.59 203.504C300.59 205.13 300.734 206.827 300.973 207.902H298.367C298.272 207.353 298.176 207.042 298.128 206.157C297.316 207.544 295.786 208.213 293.898 208.213C291.101 208.213 289.141 206.707 289.141 204.365ZM297.865 201.855C293.802 202.237 292.153 202.811 292.153 204.293C292.153 205.416 293.085 206.086 294.519 206.086C296.622 206.086 297.865 205.01 297.865 202.835V201.855ZM302.779 212.085V209.91H303.855C305.098 209.91 305.623 209.815 306.197 208.141L306.341 207.831L301.68 195.043H304.787L307.703 204.269L310.619 195.043H313.535L309.018 207.878C307.822 211.201 306.962 212.085 304.07 212.085H302.779ZM323.492 196.836C324.233 195.497 325.595 194.756 327.388 194.756C330.495 194.756 331.762 196.764 331.762 199.823V207.902H328.918V200.516C328.918 198.772 328.655 197.075 326.48 197.075C324.305 197.075 323.492 198.748 323.492 201.066V207.902H320.648V195.043H323.492V196.836ZM346.531 201.496C346.531 206.134 343.328 208.213 340.197 208.213C337.065 208.213 333.862 206.134 333.862 201.496C333.862 196.859 337.065 194.756 340.197 194.756C343.328 194.756 346.531 196.859 346.531 201.496ZM340.197 205.895C341.989 205.895 343.591 204.46 343.591 201.496C343.591 198.533 341.989 197.075 340.197 197.075C338.404 197.075 336.802 198.533 336.802 201.496C336.802 204.46 338.404 205.895 340.197 205.895ZM354.557 195.043H357.497L359.72 204.174L361.608 195.043H364.692L361.274 207.902H358.573L356.039 198.389L353.505 207.902H350.804L347.386 195.043H350.47L352.358 204.174L354.557 195.043Z" fill="#F8F2E9"/>
</g>
<defs>
<clipPath id="clip0_18357_39751">
<rect width="632" height="476" rx="10" fill="white"/>
</clipPath>
</defs>
</svg>
