<svg width="632" height="476" viewBox="0 0 632 476" fill="none" xmlns="http://www.w3.org/2000/svg">
<rect width="632" height="476" rx="10" fill="#F6D8BA"/>
<path d="M47.8624 161.998H134.359C145.466 161.998 146.701 155.027 143.487 149.61C140.651 144.83 132.816 147.146 132.816 147.146C132.816 147.146 138.164 133.779 127.974 127.891C117.897 122.069 107.514 131.139 107.514 131.139C107.514 131.139 107.102 123.521 99.1831 123.023C89.2873 122.401 87.6542 133.585 87.6542 133.585C87.6542 133.585 83.7561 129.593 78.5103 132.416C72.2974 135.763 73.8829 142.262 73.8829 142.262C73.8829 142.262 67.4389 135.282 60.8206 139.115C54.1343 142.988 54.9451 150.242 54.9451 150.242C54.9451 150.242 51.4208 147.633 46.1138 149.608C40.4581 151.713 40.3539 161.996 47.8624 161.996V161.998Z" fill="white"/>
<path d="M109.937 112.998H167.881C175.323 112.998 176.15 108.529 173.997 105.058C172.099 101.993 166.85 103.479 166.85 103.479C166.85 103.479 170.433 94.9088 163.607 91.1353C156.856 87.4031 149.901 93.2177 149.901 93.2177C149.901 93.2177 149.626 88.3344 144.321 88.014C137.692 87.6159 136.597 94.7852 136.597 94.7852C136.597 94.7852 133.987 92.2246 130.471 94.0369C126.31 96.1834 127.37 100.348 127.37 100.348C127.37 100.348 123.053 95.8722 118.619 98.3298C114.141 100.813 114.684 105.463 114.684 105.463C114.684 105.463 112.322 103.79 108.767 105.055C104.977 106.403 104.909 112.996 109.937 112.996V112.998Z" fill="white"/>
<path d="M552.282 148.998H482.042C467.51 148.998 460.932 139.3 462.182 130.099C463.386 121.237 472.042 116.393 479.264 118.104C479.264 118.104 479.696 110.07 486.887 108.295C494.076 106.52 497.988 113.284 497.988 113.284C497.988 113.284 505.294 106.886 513.529 110.716C520.311 113.871 520.311 120.893 520.311 120.893C520.311 120.893 528.237 115.06 539.203 120.893C549.644 126.447 547.336 136.293 547.336 136.293C547.336 136.293 552.282 130.964 558.97 135.137C564.876 138.822 561.485 148.998 555.188 148.998H552.282Z" fill="white"/>
<path d="M372.438 151.78C372.438 151.78 388.35 167.419 391.991 186.529L368.329 197.957C368.329 197.957 360.929 178.292 347.551 173.366" fill="#FF6F23"/>
<path d="M372.438 151.78C372.438 151.78 388.35 167.419 391.991 186.529L368.329 197.957C368.329 197.957 360.929 178.292 347.551 173.366" stroke="#232222" stroke-linecap="round" stroke-linejoin="round"/>
<path d="M381.824 195.687C388.358 192.532 392.909 188.432 391.991 186.529C391.072 184.627 385.03 185.642 378.497 188.797C371.963 191.952 367.412 196.052 368.331 197.955C369.25 199.858 375.291 198.843 381.824 195.687Z" fill="#232222" stroke="#232222" stroke-linecap="round" stroke-linejoin="round"/>
<path d="M297.704 154.114C297.704 154.114 305.187 165.453 297.426 169.039C291.253 171.891 280.055 161.733 286.369 158.97C292.102 156.461 296.213 170.41 285.139 174.07" stroke="#232222" stroke-linecap="round" stroke-linejoin="round"/>
<path d="M417.589 69.6732C419.549 69.2716 422.257 74.4081 423.635 81.1414C425.014 87.8778 424.54 93.6632 422.58 94.0648C404.255 96.2277 399.299 114.891 399.299 114.891L364.32 101.732C382.315 64.8683 417.589 69.6732 417.589 69.6732Z" fill="#FF6F23" stroke="#232222" stroke-linecap="round" stroke-linejoin="round"/>
<path d="M323.802 63.6824C323.802 63.6824 314.545 56.8335 313.349 41.379C313.349 41.379 328.848 35.1059 343.857 52.4513" fill="#FF6F23"/>
<path d="M323.802 63.6824C323.802 63.6824 314.545 56.8335 313.349 41.379C313.349 41.379 328.848 35.1059 343.857 52.4513" stroke="#232222" stroke-linecap="round" stroke-linejoin="round"/>
<path d="M367.024 50.1424C336.848 40.4625 305.58 62.8463 291.391 98.0537C275.818 136.697 294.863 171.339 325.042 181.019C355.218 190.699 392.49 170.68 400.674 133.108C408.755 96.0118 397.203 59.8221 367.024 50.1424Z" fill="#FF6F23" stroke="#232222" stroke-linecap="round" stroke-linejoin="round"/>
<path d="M366.297 43.8627L360.049 51.9373L381.134 62.3866L384.492 52.2816L366.297 43.8627Z" fill="#FF6F23"/>
<path d="M384.421 52.4055C385.123 50.8897 381.618 47.7756 376.592 45.4501C371.567 43.1245 366.925 42.4681 366.223 43.9839C365.522 45.4997 369.027 48.6137 374.052 50.9393C379.078 53.2648 383.72 53.9213 384.421 52.4055Z" fill="#FF6F23" stroke="#232222" stroke-linecap="round" stroke-linejoin="round"/>
<path d="M384.492 52.281L382.328 59.0007" stroke="#232222" stroke-linecap="round" stroke-linejoin="round"/>
<path d="M366.297 43.8608L362.22 49.1288" stroke="#232222" stroke-linecap="round" stroke-linejoin="round"/>
<path d="M329.147 60.0509C329.147 60.0509 314.314 55.6703 299.337 69.9841C299.337 69.9841 310.288 85.7222 328.594 83.4553" fill="#FF6F23"/>
<path d="M329.147 60.0509C329.147 60.0509 314.314 55.6703 299.337 69.9841C299.337 69.9841 310.288 85.7222 328.594 83.4553" stroke="#232222" stroke-linecap="round" stroke-linejoin="round"/>
<path d="M380.582 130.452C386.936 128.08 396.61 127.044 405.164 133.962L418.266 111.186C418.266 111.186 404.777 92.5491 374.427 94.2539" fill="#FF6F23"/>
<path d="M380.582 130.452C386.936 128.08 396.61 127.044 405.164 133.962L418.266 111.186C418.266 111.186 404.777 92.5491 374.427 94.2539" stroke="#232222" stroke-linecap="round" stroke-linejoin="round"/>
<path d="M415.034 124.488C418.653 118.199 420.101 112.246 418.27 111.193C416.438 110.139 412.02 114.383 408.402 120.672C404.784 126.96 403.335 132.913 405.167 133.967C406.998 135.02 411.416 130.776 415.034 124.488Z" fill="#232222" stroke="#232222" stroke-linecap="round" stroke-linejoin="round"/>
<path d="M346.583 164.02C347.276 190.907 325.617 205.669 325.617 205.669C324.365 207.369 318.612 205.262 312.77 200.962C306.927 196.659 303.204 191.796 304.456 190.093C304.544 189.97 304.661 189.87 304.797 189.785C314.97 180.517 312.482 162.296 312.482 162.296" fill="#FF6F23"/>
<path d="M346.583 164.02C347.276 190.907 325.617 205.669 325.617 205.669C324.365 207.369 318.612 205.262 312.77 200.962C306.927 196.659 303.204 191.796 304.456 190.093C304.544 189.97 304.661 189.869 304.797 189.785C314.97 180.517 312.482 162.296 312.482 162.296" stroke="#232222" stroke-linecap="round" stroke-linejoin="round"/>
<path d="M353.089 57.1373C353.089 57.1373 345.162 57.1378 344.317 59.8017C343.471 62.4656 350.255 64.9348 350.255 64.9348" stroke="#232222" stroke-linecap="round" stroke-linejoin="round"/>
<path d="M350.375 48.2383C350.375 48.2383 351.46 50.0328 355.428 52.2274" stroke="#232222" stroke-linecap="round" stroke-linejoin="round"/>
<path d="M384.444 62.3601C384.444 62.3601 384.821 70.515 370.623 74.0821C370.623 74.0821 381.164 78.7539 386.342 73.6607C392.194 67.9066 384.444 62.357 384.444 62.357L384.444 62.3601Z" fill="#FF6F23" stroke="#232222" stroke-linecap="round" stroke-linejoin="round"/>
<path d="M263.772 84.4824C265.586 88.1184 263.186 91.8772 267.182 98.7293C271.182 105.581 271.583 107.51 269.982 107.811C268.382 108.112 267.851 105.981 267.851 105.981C267.851 105.981 268.117 108.382 266.517 108.382C264.917 108.382 262.271 105.181 260.995 100.65C259.72 96.1191 263.772 84.4824 263.772 84.4824Z" fill="#232222" stroke="#232222" stroke-linecap="round" stroke-linejoin="round"/>
<path d="M262.857 129.122C263.36 130.417 261.016 131.114 260.39 131.221L260.168 127.637C260.168 127.637 262.505 128.215 262.861 129.122H262.857Z" fill="#232222" stroke="#232222" stroke-linecap="round" stroke-linejoin="round"/>
<path d="M241.995 72.363C241.995 72.363 240.937 70.0856 240.442 67.7646C240.442 67.7646 239.087 63.578 239.769 63.2374C240.454 62.8968 241.373 66.3189 241.373 66.3189C241.373 66.3189 240.652 61.6214 241.452 61.3402C242.252 61.059 242.894 65.6971 242.894 65.6971C242.894 65.6971 242.719 60.5798 243.425 60.6233C244.13 60.6669 244.427 65.4594 244.427 65.4594C244.427 65.4594 244.633 61.0115 245.314 60.9917C245.801 60.9758 245.975 61.8472 245.746 65.5782L245.888 66.9011C245.888 66.9011 246.716 64.2435 247.623 64.4732C248.114 64.5999 248.059 65.194 247.777 66.4298C247.54 67.4715 247.611 68.2755 247.425 69.2934C247.223 70.4024 246.363 71.0322 246.363 71.0322L246.724 73.1314L241.995 72.3591V72.363Z" fill="#F8F2E9" stroke="#232222" stroke-linecap="round" stroke-linejoin="round"/>
<path d="M230.478 151.077L230.569 159.415C230.577 160.187 230.83 160.94 231.309 161.546C232.01 162.437 232.906 163.902 232.462 165.158C232.022 166.405 229.258 167.174 226.517 168.061C221.043 169.835 217.193 170.845 216.773 168.425C216.338 165.93 224.659 163.237 224.521 159.375C224.319 153.763 223.34 149.438 223.34 149.438L230.478 151.073V151.077Z" fill="#F8F2E9" stroke="#232222" stroke-linecap="round" stroke-linejoin="round"/>
<path d="M219.217 165.375C219.217 165.375 218.436 166.508 219.676 167.094C222.124 168.254 231.21 165.47 232.101 162.967C232.101 162.967 234.014 165.537 230.453 166.706C227.435 167.696 221.546 169.736 218.991 169.898C216.298 170.072 216.258 168.096 217.284 167.003C218.278 165.945 219.217 165.375 219.217 165.375Z" fill="#232222" stroke="#232222" stroke-linecap="round" stroke-linejoin="round"/>
<path d="M260.485 167.791C260.821 169.059 261.625 170.152 262.73 170.861C263.439 171.312 264.109 172.006 264.109 173.004C264.109 174.742 262.643 176.865 260.809 179.476C258.975 182.086 256.5 185.496 254.238 184.811C250.559 183.694 256.021 177.638 256.266 174.75C256.666 170.025 252.809 164.789 252.809 164.789L260.096 165.922L260.481 167.795L260.485 167.791Z" fill="#F8F2E9" stroke="#232222" stroke-linecap="round" stroke-linejoin="round"/>
<path d="M254.084 179.819C254.084 179.819 253.66 181.462 255.395 181.439C258.104 181.403 263.245 173.331 262.73 170.863C262.73 170.863 265.19 172.309 263.586 175.046C261.981 177.783 258.793 183.304 256.345 184.441C253.902 185.581 252.84 184.092 252.991 182.797C253.173 181.256 254.08 179.819 254.08 179.819H254.084Z" fill="#232222" stroke="#232222" stroke-linecap="round" stroke-linejoin="round"/>
<path d="M246.309 134.392L244.483 148.908C244.321 150.187 244.519 151.483 245.045 152.655L253.486 171.35L262.164 168.244L254.373 151.134L259.966 133.259C260.651 131.069 260.611 128.716 259.851 126.554L258.868 123.745L244.554 120.395L243.402 123.29L226.43 132.962C224.861 133.853 223.843 135.469 223.713 137.267L222.16 158.624L231.785 158.255L233.151 140.678L246.313 134.388L246.309 134.392Z" fill="#B1C6C3" stroke="#232222" stroke-linecap="round" stroke-linejoin="round"/>
<path d="M257.065 95.7469C255.62 95.4854 254.111 95.2755 252.637 95.2993C250.154 91.2514 247.35 84.6092 247.35 84.6092V71.8635C246.308 69.7405 240.846 71.8635 240.846 71.8635C240.521 73.9864 238.482 84.6092 239.135 87.1876C239.654 89.2235 243.187 97.3747 244.652 100.718L240.482 124.3C240.482 124.3 242.466 129.108 251.263 127.88C255.148 127.338 260.511 126.53 262.856 129.12C262.856 129.12 263.224 115.967 263.672 110.097C264.116 104.227 263.292 96.8677 257.069 95.7469H257.065Z" fill="#F8F2E9" stroke="#232222" stroke-linecap="round" stroke-linejoin="round"/>
<path d="M252.444 95.9454L253.885 91.8262L260.187 93.2243L258.69 97.4703C258.69 97.4703 256.115 99.3437 253.129 98.9278C251.279 98.6704 252.444 95.9454 252.444 95.9454Z" fill="#F8F2E9" stroke="#232222" stroke-linecap="round" stroke-linejoin="round"/>
<path d="M258.808 82.0226C255.113 81.0324 252.982 84.4387 251.869 87.3855C251.267 87.6746 250.261 88.2449 250.261 88.8232C250.261 89.1995 250.859 89.2391 251.275 89.2233C251.108 89.8293 250.993 90.3481 250.926 90.7046C250.447 93.2197 251.675 95.0812 254.764 95.0812C257.422 95.0812 259.846 94.6653 261.969 90.9818C264.508 86.5775 263.612 83.3098 258.808 82.0226Z" fill="#F8F2E9" stroke="#232222" stroke-linecap="round" stroke-linejoin="round"/>
<path d="M258.701 87.7582C258.701 87.7582 255.477 95.85 258.701 98.7295L264.599 94.8638C264.599 94.8638 263.807 92.4279 264.151 87.7067C264.599 81.5675 258.622 80.8506 256.135 81.8646L258.705 87.7582H258.701Z" fill="#232222" stroke="#232222" stroke-linecap="round" stroke-linejoin="round"/>
<path d="M256.527 83.3112C256.527 83.3112 253.77 86.1471 251.434 85.8223C251.434 85.8223 253.406 79.3069 258.836 81.4813C258.836 81.4813 257.771 83.1092 256.527 83.3112Z" fill="#232222" stroke="#232222" stroke-linecap="round" stroke-linejoin="round"/>
<path d="M256.202 82.5455C256.202 82.5455 255.647 85.124 256.527 86.7954L257.271 85.7101C257.271 85.7101 257.24 89.0926 259.505 89.9759C259.505 89.9759 262.555 82.6881 259.921 81.6821C257.287 80.676 256.36 81.4127 256.206 82.5455H256.202Z" fill="#232222" stroke="#232222" stroke-linecap="round" stroke-linejoin="round"/>
<path d="M250.828 91.1816C250.828 91.1816 252.579 92.259 253.799 91.1816" stroke="#232222" stroke-linecap="round" stroke-linejoin="round"/>
<path d="M254.223 86.8242C254.223 86.8242 253.462 88.2501 253.922 88.4442C254.381 88.6382 255.688 87.6322 255.688 87.6322" stroke="#232222" stroke-linecap="round" stroke-linejoin="round"/>
<path d="M280.004 79.7023L282.57 75.2703C283.109 73.979 284.202 71.4046 283.537 70.9253C282.871 70.45 281.877 73.4285 281.877 73.4285C281.877 73.4285 283.267 69.3054 282.467 68.8736C281.667 68.4419 280.752 72.7789 280.752 72.7789C280.752 72.7789 281.711 67.828 280.95 67.7567C280.19 67.6854 279.437 72.2046 279.437 72.2046C279.437 72.2046 279.556 68.2756 278.835 68.1409C278.344 68.0498 278.102 69.8084 277.968 72.5056L277.053 73.7691C277.053 73.7691 276.538 70.5173 275.571 70.7708C274.91 70.9451 275.223 71.8402 275.259 73.1394C275.302 74.8068 275.306 76.003 275.785 77.7576L274.851 80.2014L280.004 79.7023Z" fill="#F8F2E9" stroke="#232222" stroke-linecap="round" stroke-linejoin="round"/>
<path d="M257.343 99.4427C257.343 99.4427 266.781 93.3471 268.797 91.739L274.695 77.6427C274.695 77.6427 277.265 77.5951 281.088 79.8607L275.935 97.6722L262.092 107.816" fill="#F8F2E9"/>
<path d="M257.343 99.4427C257.343 99.4427 266.781 93.3471 268.797 91.739L274.695 77.6427C274.695 77.6427 277.265 77.5951 281.088 79.8607L275.935 97.6722L262.092 107.816" stroke="#232222" stroke-linecap="round" stroke-linejoin="round"/>
<path d="M244.765 68.8747C244.765 68.8747 244.717 67.7578 245.89 66.9102L244.765 68.8747Z" fill="#F8F2E9"/>
<path d="M244.765 68.8747C244.765 68.8747 244.717 67.7578 245.89 66.9102" stroke="#232222" stroke-linecap="round" stroke-linejoin="round"/>
<path d="M247.987 96.0586C247.987 96.0586 245.136 97.9796 244.367 102.321" stroke="#232222" stroke-linecap="round" stroke-linejoin="round"/>
<g clip-path="url(#clip0_18357_39906)">
<path d="M202.675 260.635L102.455 268.585L127.57 228.229L102.455 187.874L206.495 179.621V256.834C206.495 258.813 204.835 260.465 202.675 260.635Z" fill="#F8F2E9" stroke="#232222" stroke-linecap="round" stroke-linejoin="round"/>
<path d="M206.44 230.5C206.44 230.5 178.992 232.566 162.013 234.442C160.003 234.662 159.552 237.135 161.367 237.948L204.28 257.084C205.362 257.565 205.63 258.636 205.244 259.466C205.244 259.466 206.494 259.275 206.494 255.433C206.494 251.591 206.44 230.5 206.44 230.5Z" fill="#5D766F" stroke="#232222" stroke-linecap="round" stroke-linejoin="round"/>
<path d="M430.325 260.635L530.545 268.585L505.43 228.229L530.545 187.874L426.505 179.621V256.834C426.505 258.813 428.165 260.465 430.325 260.635Z" fill="#F8F2E9" stroke="#232222" stroke-linecap="round" stroke-linejoin="round"/>
<path d="M163.61 238.943L161.236 237.851C161.154 237.814 161.076 237.764 160.999 237.723C161.117 237.81 161.245 237.889 161.39 237.955L163.605 238.943H163.61Z" fill="#F8F2E9" stroke="#232222" stroke-linecap="round" stroke-linejoin="round"/>
<path d="M469.389 238.943L471.604 237.955C471.75 237.889 471.877 237.81 471.995 237.723C471.918 237.764 471.841 237.814 471.759 237.851L469.385 238.943H469.389Z" fill="#F8F2E9" stroke="#232222" stroke-linecap="round" stroke-linejoin="round"/>
<path d="M470.882 155.787C456 153.874 387.495 145.58 317.543 145.414C317.198 145.414 316.848 145.414 316.502 145.414C316.152 145.414 315.806 145.414 315.46 145.414C245.509 145.58 177.004 153.874 162.122 155.787C160.417 156.007 159.152 157.339 159.152 158.907V234.751C159.152 235.975 159.866 237.096 161.008 237.718C159.675 236.751 160.185 234.664 162.018 234.432C177.15 232.805 244.004 226.183 316.506 226.121C389.009 226.183 455.859 232.809 470.995 234.432C472.828 234.66 473.338 236.751 472.005 237.718C473.147 237.096 473.861 235.975 473.861 234.751V158.912C473.861 157.339 472.596 156.011 470.891 155.791L470.882 155.787Z" fill="#F8F2E9" stroke="#232222" stroke-linecap="round" stroke-linejoin="round"/>
<path d="M426.559 230.5C426.559 230.5 454.008 232.566 470.986 234.442C472.997 234.662 473.447 237.135 471.632 237.948L428.72 257.084C427.637 257.565 427.369 258.636 427.756 259.466C427.756 259.466 426.505 259.275 426.505 255.433C426.505 251.591 426.559 230.5 426.559 230.5Z" fill="#5D766F" stroke="#232222" stroke-linecap="round" stroke-linejoin="round"/>
</g>
<path d="M249.551 170.34C250.871 166.875 250.761 166.6 248.011 166.05V165.5H255.051V166.05C253.016 166.6 252.026 166.875 250.761 170.34L244.326 187.5V198.83C244.326 202.515 244.766 202.9 246.801 203.45V204H236.241V203.45C238.276 202.9 238.716 202.515 238.716 198.83V188.82L230.796 170.23C229.366 166.875 228.321 166.6 226.341 166.05V165.5H238.826V166.05C236.076 166.6 236.021 166.875 237.451 170.285L243.776 185.465L249.551 170.34ZM260.786 204.77C253.196 204.77 248.466 199.82 248.466 190.25C248.466 180.68 253.196 175.73 260.786 175.73C268.376 175.73 273.106 180.625 273.106 190.25C273.106 199.82 268.376 204.77 260.786 204.77ZM254.681 190.25C254.681 199.27 256.441 203.615 260.786 203.615C265.131 203.615 266.891 199.27 266.891 190.25C266.891 181.23 265.131 176.83 260.786 176.83C256.441 176.83 254.681 181.23 254.681 190.25ZM281.1 175.675H281.65V198.005C281.65 201.14 282.695 202.845 285.06 202.845C287.205 202.845 289.46 201.47 291.715 199.16V182.495C291.715 178.81 291.22 178.425 289.075 177.875V177.325H292.54C294.19 177.27 295.51 176.94 296.665 175.675H297.215V197.785C297.215 201.47 297.655 201.855 299.855 202.405V202.955H296.335C294.74 203.065 293.42 203.395 292.265 204.66H291.715V200.48C289.68 202.625 286.82 204.825 283.3 204.825C278.845 204.825 276.15 202.405 276.15 196.685V182.495C276.15 178.81 275.655 178.425 273.455 177.875V177.325H276.975C278.625 177.27 279.945 176.995 281.1 175.675ZM313.026 181.34C311.761 177.875 310.771 177.6 308.791 177.05V176.5H336.291V177.16C334.531 177.49 333.541 177.985 332.331 181.285L330.901 185.3L335.521 198.28L341.516 181.285C342.726 177.985 342.451 177.49 340.031 177.16V176.5H346.906V177.05C344.871 177.6 343.881 177.875 342.671 181.34L334.256 204.77H332.056L327.931 193.55L323.861 204.77H321.661L313.026 181.34ZM319.131 181.285L325.181 198.28L327.381 192.065L323.366 181.285C322.376 178.37 321.441 177.16 320.066 177.16C318.636 177.16 318.086 178.37 319.131 181.285ZM329.471 181.285L330.351 183.705L331.176 181.285C332.221 178.425 332.166 177.6 330.296 177.27C328.426 177.6 328.426 178.37 329.471 181.285ZM357.147 204.77C349.557 204.77 344.827 199.82 344.827 190.25C344.827 180.68 349.557 175.73 357.147 175.73C364.737 175.73 369.467 180.625 369.467 190.25C369.467 199.82 364.737 204.77 357.147 204.77ZM351.042 190.25C351.042 199.27 352.802 203.615 357.147 203.615C361.493 203.615 363.252 199.27 363.252 190.25C363.252 181.23 361.493 176.83 357.147 176.83C352.802 176.83 351.042 181.23 351.042 190.25ZM372.509 182.605C372.509 178.92 372.014 178.535 369.814 177.985V177.435H373.334C374.929 177.38 376.249 177.05 377.404 175.73H377.954V180.075C380.044 177.93 382.849 175.73 386.424 175.73C390.824 175.73 393.519 178.15 393.519 183.87V198.83C393.519 202.515 394.014 202.9 396.159 203.45V204H385.379V203.45C387.579 202.9 388.074 202.515 388.074 198.83V182.55C388.074 179.415 386.974 177.71 384.664 177.71C382.464 177.71 380.209 179.195 377.954 181.45V198.83C377.954 202.515 378.449 202.9 380.594 203.45V204H369.814V203.45C372.014 202.9 372.509 202.515 372.509 198.83V182.605ZM400.497 164.51C402.587 164.51 403.632 165.995 403.632 168.14C403.632 172.375 401.102 179.14 401.102 192.725H400.002C400.002 179.14 397.362 172.375 397.362 168.14C397.362 165.995 398.462 164.51 400.497 164.51ZM397.307 201.415C397.307 199.545 398.627 198.115 400.497 198.115C402.367 198.115 403.687 199.545 403.687 201.415C403.687 203.285 402.367 204.77 400.497 204.77C398.627 204.77 397.307 203.285 397.307 201.415Z" fill="#232222"/>
<path d="M224.904 292.656C224.472 292.68 224.04 292.68 223.584 292.68H220.512V300H218.064V282.6H223.584C227.832 282.6 230.832 283.44 230.832 287.616C230.832 290.376 229.512 291.696 227.376 292.272L231.408 300H228.672L224.904 292.656ZM220.512 284.664V290.616H223.776C226.32 290.616 228.312 290.352 228.312 287.664C228.312 284.976 226.32 284.664 223.776 284.664H220.512ZM235.364 294.264C235.46 297.048 237.428 298.392 239.348 298.392C241.268 298.392 242.324 297.528 242.876 296.256H245.132C244.532 298.488 242.492 300.312 239.348 300.312C235.268 300.312 233.012 297.384 233.012 293.568C233.012 289.488 235.748 286.872 239.276 286.872C243.212 286.872 245.588 290.184 245.3 294.264H235.364ZM235.388 292.392H242.996C242.948 290.568 241.58 288.744 239.276 288.744C237.332 288.744 235.58 289.8 235.388 292.392ZM246.96 296.592C246.96 293.544 250.392 292.656 255.696 292.056V291.744C255.696 289.392 254.376 288.6 252.768 288.6C250.968 288.6 249.912 289.584 249.816 291.168H247.56C247.776 288.384 250.224 286.824 252.744 286.824C256.296 286.824 257.904 288.528 257.88 292.152L257.856 295.128C257.832 297.288 257.952 298.776 258.192 300H255.984C255.912 299.52 255.84 298.992 255.816 298.224C255.024 299.544 253.68 300.312 251.4 300.312C248.976 300.312 246.96 298.968 246.96 296.592ZM255.864 293.784C251.904 294.192 249.384 294.768 249.384 296.544C249.384 297.768 250.32 298.584 251.88 298.584C253.92 298.584 255.864 297.648 255.864 294.6V293.784ZM269.99 282.6H272.174V300H269.99V298.056C269.198 299.424 267.83 300.312 265.766 300.312C262.814 300.312 260.246 297.864 260.246 293.592C260.246 289.344 262.814 286.872 265.766 286.872C267.83 286.872 269.198 287.76 269.99 289.128V282.6ZM266.318 288.744C264.086 288.744 262.622 290.52 262.622 293.592C262.622 296.664 264.086 298.44 266.318 298.44C268.262 298.44 270.086 297 270.086 293.592C270.086 290.184 268.262 288.744 266.318 288.744ZM285.075 287.088L280.467 300.552C279.531 303.36 278.859 304.2 275.979 304.2H274.851V302.376H275.739C277.179 302.376 277.875 302.28 278.451 300.264L278.547 300L273.891 287.088H276.315L279.603 297.048L282.795 287.088H285.075ZM293.118 283.848H295.302V287.088H297.75V288.84H295.302V296.496C295.302 297.84 295.398 298.176 296.646 298.176H297.75V300H296.166C293.694 300 293.118 299.448 293.118 296.76V288.84H291.078V287.088H293.118V283.848ZM311.725 293.592C311.725 298.272 308.533 300.312 305.533 300.312C302.533 300.312 299.341 298.272 299.341 293.592C299.341 288.912 302.533 286.872 305.533 286.872C308.533 286.872 311.725 288.912 311.725 293.592ZM305.533 298.392C307.501 298.392 309.397 296.904 309.397 293.592C309.397 290.16 307.501 288.792 305.533 288.792C303.565 288.792 301.669 290.064 301.669 293.592C301.669 297.024 303.565 298.392 305.533 298.392ZM322.217 287.088V289.128C323.009 287.76 324.377 286.872 326.441 286.872C329.393 286.872 331.961 289.344 331.961 293.592C331.961 297.864 329.393 300.312 326.441 300.312C324.377 300.312 323.009 299.424 322.217 298.056V304.2H320.033V287.088H322.217ZM325.889 298.44C328.121 298.44 329.585 296.664 329.585 293.592C329.585 290.52 328.121 288.744 325.889 288.744C323.945 288.744 322.121 290.184 322.121 293.592C322.121 297 323.945 298.44 325.889 298.44ZM336.701 300H334.517V282.6H336.701V300ZM339.398 296.592C339.398 293.544 342.83 292.656 348.134 292.056V291.744C348.134 289.392 346.814 288.6 345.206 288.6C343.406 288.6 342.35 289.584 342.254 291.168H339.998C340.214 288.384 342.662 286.824 345.182 286.824C348.734 286.824 350.342 288.528 350.318 292.152L350.294 295.128C350.27 297.288 350.39 298.776 350.63 300H348.422C348.35 299.52 348.278 298.992 348.254 298.224C347.462 299.544 346.118 300.312 343.838 300.312C341.414 300.312 339.398 298.968 339.398 296.592ZM348.302 293.784C344.342 294.192 341.822 294.768 341.822 296.544C341.822 297.768 342.758 298.584 344.318 298.584C346.358 298.584 348.302 297.648 348.302 294.6V293.784ZM362.911 287.088L358.303 300.552C357.367 303.36 356.695 304.2 353.815 304.2H352.687V302.376H353.575C355.015 302.376 355.711 302.28 356.287 300.264L356.383 300L351.727 287.088H354.151L357.439 297.048L360.631 287.088H362.911ZM373.114 300H370.666V282.6H373.114V300ZM384.092 292.656C383.66 292.68 383.228 292.68 382.772 292.68H379.7V300H377.252V282.6H382.772C387.02 282.6 390.02 283.44 390.02 287.616C390.02 290.376 388.7 291.696 386.564 292.272L390.596 300H387.859L384.092 292.656ZM379.7 284.664V290.616H382.964C385.508 290.616 387.5 290.352 387.5 287.664C387.5 284.976 385.508 284.664 382.964 284.664H379.7ZM395.989 297.888H405.181V300H393.541V282.6H395.989V297.888ZM414.647 286.512C414.647 288.792 413.039 290.4 411.407 291.456C409.919 292.416 409.391 292.848 409.391 294.168V294.912H407.159V294.096C407.159 292.08 408.143 291.192 410.135 289.92C411.383 289.128 412.367 288.168 412.367 286.608C412.367 285.096 411.023 284.112 409.175 284.112C406.487 284.112 405.623 285.984 405.527 287.448H403.343C403.367 284.328 405.815 282.288 409.223 282.288C411.935 282.288 414.647 283.608 414.647 286.512ZM406.943 300V297.24H409.703V300H406.943Z" fill="#232222"/>
<rect x="176" y="331" width="280" height="63.8049" rx="7.0793" fill="#FF6F23"/>
<path d="M244.427 353.573H250.952C254.107 353.573 257.191 354.434 257.191 357.995C257.191 359.62 256.283 361.078 255.255 361.7C256.689 362.345 257.86 363.469 257.86 365.763C257.86 369.492 254.92 370.902 251.383 370.902H244.427V353.573ZM247.463 360.816H251.239C253.008 360.816 254.107 360.027 254.107 358.33C254.107 356.8 252.96 356.011 251.239 356.011H247.463V360.816ZM247.463 368.464H251.502C253.653 368.464 254.729 367.484 254.729 365.763C254.729 363.995 253.653 363.134 251.335 363.134H247.463V368.464ZM272.501 364.496C272.501 369.134 269.298 371.213 266.167 371.213C263.036 371.213 259.833 369.134 259.833 364.496C259.833 359.859 263.036 357.756 266.167 357.756C269.298 357.756 272.501 359.859 272.501 364.496ZM266.167 368.895C267.959 368.895 269.561 367.46 269.561 364.496C269.561 361.533 267.959 360.075 266.167 360.075C264.374 360.075 262.773 361.533 262.773 364.496C262.773 367.46 264.374 368.895 266.167 368.895ZM286.786 364.496C286.786 369.134 283.583 371.213 280.452 371.213C277.321 371.213 274.118 369.134 274.118 364.496C274.118 359.859 277.321 357.756 280.452 357.756C283.583 357.756 286.786 359.859 286.786 364.496ZM280.452 368.895C282.245 368.895 283.846 367.46 283.846 364.496C283.846 361.533 282.245 360.075 280.452 360.075C278.66 360.075 277.058 361.533 277.058 364.496C277.058 367.46 278.66 368.895 280.452 368.895ZM291.968 353.573V363.206L296.725 358.043H300.143L295.219 363.325L300.693 370.902H297.37L293.331 365.333L291.968 366.791V370.902H289.124V353.573H291.968ZM306.659 367.365C306.659 364.162 310.603 363.349 315.312 362.871V362.632C315.312 360.433 314.045 359.764 312.635 359.764C311.201 359.764 310.125 360.529 310.054 362.082H307.257C307.448 359.453 309.623 357.66 312.731 357.66C315.814 357.66 318.228 359.071 318.156 363.182C318.156 363.827 318.109 365.333 318.109 366.504C318.109 368.13 318.252 369.827 318.491 370.902H315.886C315.79 370.353 315.694 370.042 315.647 369.157C314.834 370.544 313.304 371.213 311.416 371.213C308.619 371.213 306.659 369.707 306.659 367.365ZM315.384 364.855C311.32 365.237 309.671 365.811 309.671 367.293C309.671 368.416 310.603 369.086 312.037 369.086C314.141 369.086 315.384 368.01 315.384 365.835V364.855ZM335.075 353.573H337.919V370.902H335.075V369.205C334.31 370.472 332.971 371.213 331.25 371.213C328.215 371.213 325.657 368.608 325.657 364.473C325.657 360.361 328.215 357.756 331.25 357.756C332.971 357.756 334.31 358.497 335.075 359.764V353.573ZM331.872 360.075C329.983 360.075 328.621 361.772 328.621 364.473C328.621 367.197 329.983 368.895 331.872 368.895C333.736 368.895 335.194 367.436 335.194 364.473C335.194 361.509 333.736 360.075 331.872 360.075ZM343.162 365.285C343.353 367.676 345.027 368.847 346.652 368.847C348.134 368.847 349.305 368.249 349.807 367.054H352.604C352.006 369.11 350.094 371.213 346.771 371.213C342.636 371.213 340.27 368.058 340.27 364.377C340.27 360.505 342.923 357.756 346.58 357.756C350.524 357.756 352.986 360.959 352.747 365.285H343.162ZM343.162 363.206H349.855C349.783 361.198 348.253 359.979 346.58 359.979C345.242 359.979 343.401 360.768 343.162 363.206ZM357.933 370.902H355.089V358.043H357.933V359.836C358.674 358.497 359.941 357.756 361.662 357.756C363.646 357.756 364.817 358.593 365.415 360.027C366.514 358.401 368.02 357.756 369.598 357.756C372.633 357.756 373.805 359.764 373.805 362.823V370.902H370.96V363.516C370.96 361.772 370.793 360.075 368.69 360.075C366.586 360.075 365.869 361.748 365.869 364.066V370.902H363.025V363.516C363.025 361.772 362.857 360.075 360.754 360.075C358.651 360.075 357.933 361.748 357.933 364.066V370.902ZM388.582 364.496C388.582 369.134 385.379 371.213 382.248 371.213C379.116 371.213 375.914 369.134 375.914 364.496C375.914 359.859 379.116 357.756 382.248 357.756C385.379 357.756 388.582 359.859 388.582 364.496ZM382.248 368.895C384.04 368.895 385.642 367.46 385.642 364.496C385.642 361.533 384.04 360.075 382.248 360.075C380.455 360.075 378.854 361.533 378.854 364.496C378.854 367.46 380.455 368.895 382.248 368.895Z" fill="#F8F2E9"/>
<path d="M262 421.371V427.371M262 427.371H268M262 427.371L266.64 423.011C267.715 421.935 269.044 421.15 270.505 420.727C271.965 420.305 273.509 420.259 274.992 420.595C276.475 420.93 277.848 421.636 278.985 422.646C280.121 423.656 280.983 424.937 281.49 426.371M284 437.371V431.371M284 431.371H278M284 431.371L279.36 435.731C278.285 436.806 276.956 437.591 275.495 438.014C274.035 438.436 272.491 438.482 271.008 438.146C269.525 437.811 268.152 437.105 267.015 436.095C265.879 435.085 265.017 433.804 264.51 432.371" stroke="#FF6F23" stroke-width="1.8" stroke-linecap="square"/>
<path d="M297.276 424.229H293.172V422.321H303.666V424.229H299.562V435.371H297.276V424.229ZM308.896 427.865C308.536 427.829 308.194 427.811 307.87 427.811C306.52 427.811 305.746 428.351 305.746 430.295V435.371H303.604V425.687H305.71V427.415C306.232 426.335 307.168 425.687 308.338 425.669C308.5 425.669 308.734 425.687 308.896 425.705V427.865ZM310.223 438.521V436.883H311.033C311.969 436.883 312.365 436.811 312.797 435.551L312.905 435.317L309.395 425.687H311.735L313.931 432.635L316.127 425.687H318.323L314.921 435.353C314.021 437.855 313.373 438.521 311.195 438.521H310.223ZM327.333 422.321H329.745L334.641 435.371H332.139L331.113 432.473H325.821L324.813 435.371H322.473L327.333 422.321ZM326.487 430.565H330.429L328.449 424.967L326.487 430.565ZM342.181 425.687H344.323V434.399C344.323 435.983 343.927 437.099 343.153 437.819C342.379 438.539 341.227 438.863 339.715 438.863C337.591 438.863 335.899 438.017 335.575 435.893H337.699C337.897 436.793 338.491 437.171 339.769 437.171C340.723 437.171 341.335 436.901 341.695 436.469C342.055 436.055 342.181 435.461 342.181 434.831V433.697C341.605 434.651 340.597 435.209 339.301 435.209C337.015 435.209 335.089 433.355 335.089 430.331C335.089 427.307 337.015 425.471 339.301 425.471C340.597 425.471 341.605 426.029 342.181 426.983V425.687ZM339.769 427.181C338.347 427.181 337.321 428.387 337.321 430.331C337.321 432.311 338.347 433.517 339.769 433.517C341.173 433.517 342.271 432.509 342.271 430.331C342.271 428.171 341.173 427.181 339.769 427.181ZM346.148 432.707C346.148 430.295 349.118 429.683 352.664 429.323V429.143C352.664 427.487 351.71 426.983 350.648 426.983C349.568 426.983 348.758 427.559 348.704 428.729H346.598C346.742 426.749 348.38 425.399 350.72 425.399C353.042 425.399 354.86 426.461 354.806 429.557C354.806 430.043 354.77 431.177 354.77 432.059C354.77 433.283 354.878 434.561 355.058 435.371H353.096C353.024 434.957 352.952 434.723 352.916 434.057C352.304 435.101 351.152 435.605 349.73 435.605C347.624 435.605 346.148 434.471 346.148 432.707ZM352.718 430.817C349.658 431.105 348.416 431.537 348.416 432.653C348.416 433.499 349.118 434.003 350.198 434.003C351.782 434.003 352.718 433.193 352.718 431.555V430.817ZM359.114 422.321V424.481H356.972V422.321H359.114ZM359.114 425.687V435.371H356.972V425.687H359.114ZM363.666 427.037C364.224 426.029 365.25 425.471 366.6 425.471C368.94 425.471 369.894 426.983 369.894 429.287V435.371H367.752V429.809C367.752 428.495 367.554 427.217 365.916 427.217C364.278 427.217 363.666 428.477 363.666 430.223V435.371H361.524V425.687H363.666V427.037Z" fill="#FF6F23"/>
<path d="M188.128 124.908L183.032 123.498L188.128 122.088L189.538 116.998L190.936 122.088L196.032 123.498L190.936 124.908L189.538 129.998L188.128 124.908Z" fill="#F8F2E9" stroke="#232222" stroke-linejoin="round"/>
<path d="M289.912 25.7338L284.032 23.998L289.912 22.2623L291.538 15.998L293.152 22.2623L299.032 23.998L293.152 25.7338L291.538 31.998L289.912 25.7338Z" fill="#F8F2E9" stroke="#232222" stroke-linejoin="round"/>
<path d="M264.56 52.4744L261.032 51.498L264.56 50.5217L265.536 46.998L266.504 50.5217L270.032 51.498L266.504 52.4744L265.536 55.998L264.56 52.4744Z" fill="#F8F2E9" stroke="#232222" stroke-linejoin="round"/>
<path d="M441.56 32.8659L438.032 31.998L441.56 31.1302L442.536 27.998L443.504 31.1302L447.032 31.998L443.504 32.8659L442.536 35.998L441.56 32.8659Z" fill="#F8F2E9" stroke="#232222" stroke-linejoin="round"/>
<path d="M470.128 87.9083L465.032 86.498L470.128 85.0878L471.538 79.998L472.936 85.0878L478.032 86.498L472.936 87.9083L471.538 92.998L470.128 87.9083Z" fill="#F8F2E9" stroke="#232222" stroke-linejoin="round"/>
<path d="M216.163 117.811L219.456 111.442L222.872 114.362L218.884 120.319L216.163 117.811Z" fill="#FF6F23" stroke="#232222" stroke-linecap="round" stroke-linejoin="round"/>
<path d="M448.735 51.1114L454.705 47.1424L456.274 51.3532L449.896 54.6255L448.735 51.1114Z" fill="#FF6F23" stroke="#232222" stroke-linecap="round" stroke-linejoin="round"/>
<path d="M255.222 32.5104L259.955 37.8961L255.992 40.0144L251.895 34.1321L255.222 32.5104Z" fill="#FF6F23" stroke="#232222" stroke-linecap="round" stroke-linejoin="round"/>
<path d="M396.73 27.2678L402.791 31.098L399.587 34.2491L393.996 29.7629L396.73 27.2678Z" fill="#FF6F23" stroke="#232222" stroke-linecap="round" stroke-linejoin="round"/>
<path d="M298.667 50.7575C298.667 50.7575 291.683 57.7751 283.965 54.0805L285.382 49.2202C285.382 49.2202 290.043 52.4306 297.664 48.7944L298.657 50.7504L298.667 50.7575Z" fill="#A2C9C4" stroke="#232222" stroke-linecap="round" stroke-linejoin="round"/>
<path d="M442.774 132.2C442.774 132.2 433.842 127.931 434.775 119.425L439.83 119.155C439.83 119.155 438.343 124.616 444.295 130.605L442.777 132.189L442.774 132.2Z" fill="#A2C9C4" stroke="#232222" stroke-linecap="round" stroke-linejoin="round"/>
<path d="M209.762 102.014C209.762 102.014 216.832 102.026 218.94 96.9929L217.114 95.3677C217.114 95.3677 214.788 99.7861 209.514 99.7835L209.759 102.024L209.762 102.014Z" fill="#E2EED3" stroke="#232222" stroke-linecap="round" stroke-linejoin="round"/>
<path d="M444.028 108.155C444.028 108.155 450.636 110.669 454.389 106.708L453.256 104.542C453.256 104.542 449.517 107.851 444.585 105.981L444.022 108.164L444.028 108.155Z" fill="#E2EED3" stroke="#232222" stroke-linecap="round" stroke-linejoin="round"/>
<path d="M212.582 52.6841L218.894 50.5807C218.894 50.5807 227.728 56.8443 226.031 65.2614L220.063 68.0394C220.063 68.0394 223.132 58.3961 212.589 52.6972L212.582 52.6841Z" fill="#5E8B7F" stroke="#232222" stroke-linecap="round" stroke-linejoin="round"/>
<path d="M373.485 17.1642L376.375 21.6257C376.375 21.6257 373.297 29.7135 366.446 30.0852L363.103 26.0242C363.103 26.0242 371.177 26.4687 373.476 17.1722L373.485 17.1642Z" fill="#5E8B7F" stroke="#232222" stroke-linecap="round" stroke-linejoin="round"/>
<path d="M198.728 63.8926C198.728 63.8926 195.404 71.5941 189.267 71.7948C183.58 71.979 184.774 65.9151 184.774 65.9151L188.376 64.9393C188.376 64.9393 187.429 68.7778 191.085 67.7874C194.741 66.797 196.245 61.0598 196.245 61.0598L198.737 63.8902L198.728 63.8926Z" fill="white" stroke="#232222" stroke-linecap="round" stroke-linejoin="round"/>
<path d="M450.568 79.5452C450.568 79.5452 443.182 75.5685 443.511 69.438C443.818 63.7559 449.757 65.468 449.757 65.468L450.418 69.1412C450.418 69.1412 446.676 67.8663 447.347 71.5945C448.018 75.3227 453.604 77.3156 453.604 77.3156L450.57 79.5543L450.568 79.5452Z" fill="white" stroke="#232222" stroke-linecap="round" stroke-linejoin="round"/>
<path d="M195.739 104.23L190.871 101.067C190.871 101.067 190.488 91.6361 197.28 88.2376L202.432 90.7994C202.432 90.7994 194.05 93.9362 195.739 104.23Z" fill="#FFB772" stroke="#232222" stroke-linecap="round" stroke-linejoin="round"/>
<path d="M428.034 54.1099L422.23 54.2427C422.23 54.2427 416.595 46.6709 420.287 40.0343L425.986 39.2443C425.986 39.2443 420.834 46.5617 428.034 54.1099Z" fill="#FFB772" stroke="#232222" stroke-linecap="round" stroke-linejoin="round"/>
<defs>
<clipPath id="clip0_18357_39906">
<rect width="429" height="124" fill="white" transform="translate(102 145)"/>
</clipPath>
</defs>
</svg>
